<svg xmlns="http://www.w3.org/2000/svg" version="1.1" xmlns:xlink="http://www.w3.org/1999/xlink" xmlns:svgjs="http://svgjs.dev/svgjs" width="1500" height="1500" viewBox="0 0 1500 1500"><rect width="1500" height="1500" fill="#ffffff"></rect><g transform="matrix(0.6666666666666666,0,0,0.6666666666666666,249.39400863229008,604.063634042241)"><svg viewBox="0 0 396 115" data-background-color="#ffffff" preserveAspectRatio="xMidYMid meet" height="435" width="1500" xmlns="http://www.w3.org/2000/svg" xmlns:xlink="http://www.w3.org/1999/xlink"><g id="tight-bounds" transform="matrix(1,0,0,1,0.23997258161313084,0.37131753497340014)"><svg viewBox="0 0 395.52 114.25736493005319" height="114.25736493005319" width="395.52"><g><svg viewBox="0 0 395.52 114.25736493005319" height="114.25736493005319" width="395.52"><g><svg viewBox="0 0 577.0142525387496 166.68721688451097" height="114.25736493005319" width="395.52"><g transform="matrix(1,0,0,1,181.49425253874955,0)"><svg viewBox="0 0 395.52 166.68721688451097" height="166.68721688451097" width="395.52"><g id="textblocktransform"><svg viewBox="0 0 395.52 166.68721688451097" height="166.68721688451097" width="395.52" id="textblock"><g><svg viewBox="0 0 395.52 127.36450242578366" height="127.36450242578366" width="395.52"><path d="M394.594 27.317C392.735 14.097 387.435 10.422 387.435 10.422 371.165-3.195 350.86-0.26 332.619 1.696 300.414 1.775 268.339 4.684 236.208 6.244 168.767 6.482 100.749 2.569 33.643 12.22 27.339 15.181-6.54 12.801 1.121 29.009 3.129 35.752 10.456 43.235 10.232 49.422 11.236 50.506 12.631 48.02 13.226 49.58 15.309 53.784 18.711 51.801 21.501 54.287 17.614 60.923 20.403 66.45 23.062 72.24 18.377 73.747 12.371 73.033 9.675 78.031 9.396 81.653 7.89 80.966 6.235 80.807 5.026 80.701 2.59 81.098 2.999 82.235 4.394 86.122-1.594 88.369 2.162 92.176-0.422 96.301 3.948 99.871 3.353 104.339 3.278 105.238 3.687 106.005 4.338 106.217 7.22 107.353 3.018 109.575 3.464 111.981 33.029 128.427 65.104 117.057 95.394 124.619 103.259 119.331 97.346 126.497 100.489 125.386 102.943 124.091 104.728 129.458 107.499 126.417 107.927 125.545 107.276 123.482 108.8 123.879 109.6 124.091 110.307 124.038 110.418 122.821 110.586 120.997 109.117 122.134 108.726 121.182 112.947 116.37 111.906 127.819 115.866 127.343 115.68 125.941 114.528 123.932 116.889 124.196 119.232 122.187 119.306 120.521 121.389 125.042 121.463 126.021 121.835 126.708 122.43 127.184 128.938 122.266 135.409 128.929 142.233 126.708 146.417 124.276 150.433 128.03 154.672 127.105 156.16 126.364 157.666 125.042 159.098 127.263 176.632 127.739 195.319 125.756 211.943 127.343 256.364 124.381 303.836 128.559 350.674 124.646 361.719 123.139 373.192 120.997 383.958 119.278 383.958 119.278 392.679 114.572 392.679 93.419S394.538 74.911 394.817 58.068C395.096 41.225 396.398 40.538 394.538 27.317Z" opacity="1" fill="#556970" data-fill-palette-color="tertiary"></path><g transform="matrix(1,0,0,1,55.76832,26.068561146666667)"><svg width="283.98335999999995" viewBox="4 -39 188.73 50" height="75.22738013245032" data-palette-color="#ffffff"><path d="M6.35-35L6.35-31 22-31 22-35 6.35-35ZM6.35-21L6.35-17 21.5-17 21.5-21 6.35-21ZM8.25-35L4-35 4 0 8.25 0 8.25-35ZM25.25-11.5L25.25-11.5Q25.25-8.05 26.82-5.33 28.4-2.6 31.1-1.05 33.8 0.5 37.15 0.5L37.15 0.5Q40.55 0.5 43.22-1.05 45.9-2.6 47.47-5.33 49.05-8.05 49.05-11.5L49.05-11.5Q49.05-15 47.47-17.7 45.9-20.4 43.22-21.95 40.55-23.5 37.15-23.5L37.15-23.5Q33.8-23.5 31.1-21.95 28.4-20.4 26.82-17.7 25.25-15 25.25-11.5ZM29.3-11.5L29.3-11.5Q29.3-13.9 30.32-15.78 31.35-17.65 33.12-18.7 34.9-19.75 37.15-19.75L37.15-19.75Q39.4-19.75 41.17-18.7 42.95-17.65 43.97-15.78 45-13.9 45-11.5L45-11.5Q45-9.1 43.97-7.25 42.95-5.4 41.17-4.33 39.4-3.25 37.15-3.25L37.15-3.25Q34.9-3.25 33.12-4.33 31.35-5.4 30.32-7.25 29.3-9.1 29.3-11.5ZM52.55-11.5L52.55-11.5Q52.55-8.05 54.12-5.33 55.7-2.6 58.4-1.05 61.09 0.5 64.45 0.5L64.45 0.5Q67.84 0.5 70.52-1.05 73.2-2.6 74.77-5.33 76.34-8.05 76.34-11.5L76.34-11.5Q76.34-15 74.77-17.7 73.2-20.4 70.52-21.95 67.84-23.5 64.45-23.5L64.45-23.5Q61.09-23.5 58.4-21.95 55.7-20.4 54.12-17.7 52.55-15 52.55-11.5ZM56.59-11.5L56.59-11.5Q56.59-13.9 57.62-15.78 58.65-17.65 60.42-18.7 62.2-19.75 64.45-19.75L64.45-19.75Q66.7-19.75 68.47-18.7 70.25-17.65 71.27-15.78 72.3-13.9 72.3-11.5L72.3-11.5Q72.3-9.1 71.27-7.25 70.25-5.4 68.47-4.33 66.7-3.25 64.45-3.25L64.45-3.25Q62.2-3.25 60.42-4.33 58.65-5.4 57.62-7.25 56.59-9.1 56.59-11.5ZM103.09-39L99.09-39 99.09 0 103.09 0 103.09-39ZM79.84-11.5L79.84-11.5Q79.84-7.8 81.39-5.1 82.94-2.4 85.54-0.95 88.14 0.5 91.24 0.5L91.24 0.5Q94.14 0.5 96.29-0.95 98.44-2.4 99.67-5.1 100.89-7.8 100.89-11.5L100.89-11.5Q100.89-15.25 99.67-17.93 98.44-20.6 96.29-22.05 94.14-23.5 91.24-23.5L91.24-23.5Q88.14-23.5 85.54-22.05 82.94-20.6 81.39-17.93 79.84-15.25 79.84-11.5ZM83.89-11.5L83.89-11.5Q83.89-14.15 84.97-16 86.04-17.85 87.84-18.8 89.64-19.75 91.74-19.75L91.74-19.75Q93.49-19.75 95.19-18.8 96.89-17.85 97.99-16 99.09-14.15 99.09-11.5L99.09-11.5Q99.09-8.85 97.99-7 96.89-5.15 95.19-4.2 93.49-3.25 91.74-3.25L91.74-3.25Q89.64-3.25 87.84-4.2 86.04-5.15 84.97-7 83.89-8.85 83.89-11.5ZM111.29-7.05L111.29-7.05 108.14-5.1Q108.79-3.75 110.06-2.45 111.34-1.15 113.19-0.33 115.04 0.5 117.34 0.5L117.34 0.5Q120.89 0.5 123.06-1.5 125.24-3.5 125.24-6.5L125.24-6.5Q125.24-8.55 124.27-9.85 123.29-11.15 121.64-12.08 119.99-13 117.99-13.8L117.99-13.8Q116.79-14.3 115.69-14.85 114.59-15.4 113.89-16.1 113.19-16.8 113.19-17.7L113.19-17.7Q113.19-18.85 114.09-19.4 114.99-19.95 116.24-19.95L116.24-19.95Q118.04-19.95 119.47-19.1 120.89-18.25 121.84-16.95L121.84-16.95 125.04-19Q124.34-20.3 123.09-21.3 121.84-22.3 120.22-22.9 118.59-23.5 116.74-23.5L116.74-23.5Q114.89-23.5 113.17-22.85 111.44-22.2 110.37-20.85 109.29-19.5 109.29-17.45L109.29-17.45Q109.29-15.45 110.31-14.13 111.34-12.8 112.87-11.98 114.39-11.15 115.89-10.55L115.89-10.55Q117.24-10.05 118.44-9.47 119.64-8.9 120.42-8.08 121.19-7.25 121.19-6.05L121.19-6.05Q121.19-4.7 120.22-3.93 119.24-3.15 117.54-3.15L117.54-3.15Q116.14-3.15 114.97-3.68 113.79-4.2 112.89-5.1 111.99-6 111.29-7.05ZM134.49 0L134.49-39 130.49-39 130.49 0 134.49 0ZM145.24-14L145.24-14 145.24 0 149.24 0 149.24-14.5Q149.24-17.5 148.26-19.5 147.29-21.5 145.51-22.5 143.74-23.5 141.34-23.5L141.34-23.5Q138.94-23.5 137.11-22.25 135.29-21 134.24-18.88 133.19-16.75 133.19-14L133.19-14 134.49-14Q134.49-15.65 135.21-16.95 135.94-18.25 137.26-19 138.59-19.75 140.34-19.75L140.34-19.75Q142.79-19.75 144.01-18.3 145.24-16.85 145.24-14ZM156.74-32.5L156.74-32.5Q156.74-31.4 157.56-30.58 158.39-29.75 159.49-29.75L159.49-29.75Q160.64-29.75 161.44-30.58 162.24-31.4 162.24-32.5L162.24-32.5Q162.24-33.65 161.44-34.45 160.64-35.25 159.49-35.25L159.49-35.25Q158.39-35.25 157.56-34.45 156.74-33.65 156.74-32.5ZM161.49-23L157.49-23 157.49 0 161.49 0 161.49-23ZM169.48 11L173.48 11 173.48-23 169.48-23 169.48 11ZM192.73-11.5L192.73-11.5Q192.73-15.25 191.18-17.93 189.63-20.6 187.06-22.05 184.48-23.5 181.33-23.5L181.33-23.5Q178.48-23.5 176.31-22.05 174.13-20.6 172.91-17.93 171.68-15.25 171.68-11.5L171.68-11.5Q171.68-7.8 172.91-5.1 174.13-2.4 176.31-0.95 178.48 0.5 181.33 0.5L181.33 0.5Q184.48 0.5 187.06-0.95 189.63-2.4 191.18-5.1 192.73-7.8 192.73-11.5ZM188.68-11.5L188.68-11.5Q188.68-8.85 187.61-7 186.53-5.15 184.76-4.2 182.98-3.25 180.83-3.25L180.83-3.25Q179.08-3.25 177.38-4.2 175.68-5.15 174.58-7 173.48-8.85 173.48-11.5L173.48-11.5Q173.48-14.15 174.58-16 175.68-17.85 177.38-18.8 179.08-19.75 180.83-19.75L180.83-19.75Q182.98-19.75 184.76-18.8 186.53-17.85 187.61-16 188.68-14.15 188.68-11.5Z" opacity="1" transform="matrix(1,0,0,1,0,0)" fill="#ffffff" class="wordmark-text-0" data-fill-palette-color="quaternary" id="text-0"></path></svg></g></svg></g><g transform="matrix(1,0,0,1,75.54432,145.123881417932)"><svg viewBox="0 0 244.43135999999998 21.563335466578966" height="21.563335466578966" width="244.43135999999998"><g transform="matrix(1,0,0,1,0,0)"><svg width="244.43135999999998" viewBox="2.4999999999999996 -39.45 608.08 53.650000000000006" height="21.563335466578966" data-palette-color="#556970"><path d="M35.75-8.05L31.85-0.65Q26.7 0.7 22.4 0.7L22.4 0.7Q18.05 0.7 14.43-0.63 10.8-1.95 8.13-4.38 5.45-6.8 3.98-10.13 2.5-13.45 2.5-17.5L2.5-17.5Q2.5-21.45 3.98-24.83 5.45-28.2 8.08-30.73 10.7-33.25 14.15-34.65 17.6-36.05 21.55-36.05L21.55-36.05Q25-36.05 27.93-35.48 30.85-34.9 32.6-34.4L32.6-34.4 33.6-27.3 32.1-27Q30.75-30.55 27.78-32.1 24.8-33.65 21.25-33.65L21.25-33.65Q17-33.65 13.85-31.75 10.7-29.85 8.97-26.55 7.25-23.25 7.25-19L7.25-19Q7.25-15.55 8.45-12.45 9.65-9.35 11.78-6.9 13.9-4.45 16.68-3.05 19.45-1.65 22.6-1.65L22.6-1.65Q26.75-1.65 29.4-3.48 32.05-5.3 34.25-8.8L34.25-8.8 35.75-8.05ZM50.3 0.4L50.3 0.4Q47.1 0.4 44.47-1.18 41.85-2.75 40.27-5.4 38.7-8.05 38.7-11.3L38.7-11.3Q38.7-14.55 40.22-17.25 41.75-19.95 44.35-21.58 46.95-23.2 50.15-23.2L50.15-23.2Q53.45-23.2 56.1-21.58 58.75-19.95 60.27-17.3 61.8-14.65 61.8-11.55L61.8-11.55Q61.8-8.3 60.27-5.58 58.75-2.85 56.15-1.23 53.55 0.4 50.3 0.4ZM51.1-1.8L51.1-1.8Q53.1-1.8 54.47-3 55.85-4.2 56.6-6.13 57.35-8.05 57.35-10.2L57.35-10.2Q57.35-12.9 56.3-15.38 55.25-17.85 53.47-19.45 51.7-21.05 49.4-21.05L49.4-21.05Q47.5-21.05 46.07-19.88 44.65-18.7 43.87-16.8 43.1-14.9 43.1-12.7L43.1-12.7Q43.1-10.05 44.15-7.53 45.2-5 47-3.4 48.8-1.8 51.1-1.8ZM76.25 0L64.3 0 64.3-1.5Q64.95-1.5 66.09-1.65 67.25-1.8 68.25-2.3L68.25-2.3 68.25-19.25Q67.59-19.5 66.72-19.53 65.84-19.55 65.15-19.45L65.15-19.45 64.7-20.75 71.3-23.5 72.3-22.8 72.3-19.45Q73.4-20.3 74.77-21.15 76.15-22 77.62-22.6 79.09-23.2 80.5-23.2L80.5-23.2Q81.4-23.2 82.57-22.9 83.75-22.6 84.9-21.55L84.9-21.55Q85.8-20.75 86.37-19.35 86.95-17.95 86.95-15.7L86.95-15.7 86.95-2.3Q87.95-1.8 89.09-1.65 90.25-1.5 90.9-1.5L90.9-1.5 90.9 0 79.34 0 79.34-1.5Q79.9-1.5 80.95-1.65 82-1.8 82.9-2.3L82.9-2.3 82.9-14.45Q82.9-15.7 82.8-16.6 82.7-17.5 82.2-18.3L82.2-18.3Q81.65-19.2 80.72-19.65 79.8-20.1 78.65-20.1L78.65-20.1Q76.7-20.1 75.07-19.15 73.45-18.2 72.3-17.3L72.3-17.3 72.3-2.3Q73.3-1.8 74.45-1.65 75.59-1.5 76.25-1.5L76.25-1.5 76.25 0ZM105.24 0L93.29 0 93.29-1.5Q93.94-1.5 95.09-1.65 96.24-1.8 97.24-2.3L97.24-2.3 97.24-19.25Q96.59-19.5 95.72-19.53 94.84-19.55 94.14-19.45L94.14-19.45 93.69-20.75 100.29-23.5 101.29-22.8 101.29-19.45Q102.39-20.3 103.77-21.15 105.14-22 106.62-22.6 108.09-23.2 109.49-23.2L109.49-23.2Q110.39-23.2 111.57-22.9 112.74-22.6 113.89-21.55L113.89-21.55Q114.79-20.75 115.37-19.35 115.94-17.95 115.94-15.7L115.94-15.7 115.94-2.3Q116.94-1.8 118.09-1.65 119.24-1.5 119.89-1.5L119.89-1.5 119.89 0 108.34 0 108.34-1.5Q108.89-1.5 109.94-1.65 110.99-1.8 111.89-2.3L111.89-2.3 111.89-14.45Q111.89-15.7 111.79-16.6 111.69-17.5 111.19-18.3L111.19-18.3Q110.64-19.2 109.72-19.65 108.79-20.1 107.64-20.1L107.64-20.1Q105.69-20.1 104.07-19.15 102.44-18.2 101.29-17.3L101.29-17.3 101.29-2.3Q102.29-1.8 103.44-1.65 104.59-1.5 105.24-1.5L105.24-1.5 105.24 0ZM122.69-10.75L122.69-10.75Q122.69-14.4 124.14-17.23 125.59-20.05 128.02-21.65 130.44-23.25 133.39-23.2L133.39-23.2Q135.89-23.2 137.79-21.95 139.69-20.7 140.67-18.57 141.64-16.45 141.34-13.9L141.34-13.9 126.34-13.1 126.34-12.95Q126.34-10.35 127.39-8.13 128.44-5.9 130.29-4.58 132.14-3.25 134.49-3.25L134.49-3.25Q136.19-3.25 137.59-3.93 138.99-4.6 139.94-5.45L139.94-5.45 140.99-4.55Q140.24-3.45 138.92-2.3 137.59-1.15 135.89-0.38 134.19 0.4 132.24 0.4L132.24 0.4Q129.44 0.4 127.29-1.15 125.14-2.7 123.92-5.25 122.69-7.8 122.69-10.75ZM132.19-20.6L132.19-20.6Q130.04-20.6 128.56-19 127.09-17.4 126.59-15.1L126.59-15.1 136.89-15.9Q136.89-17.8 135.49-19.2 134.09-20.6 132.19-20.6ZM154.24 0.4L154.24 0.4Q151.29 0.4 149.01-1.18 146.74-2.75 145.46-5.35 144.19-7.95 144.19-11.1L144.19-11.1Q144.19-14.5 145.66-17.23 147.14-19.95 149.69-21.58 152.24-23.2 155.34-23.2L155.34-23.2Q157.69-23.2 159.24-22.65 160.79-22.1 161.71-21.3 162.64-20.5 163.09-19.8L163.09-19.8 159.99-16.85Q158.89-18.55 157.29-19.58 155.69-20.6 153.94-20.6L153.94-20.6Q152.09-20.6 150.74-19.55 149.39-18.5 148.69-16.8 147.99-15.1 147.99-13.1L147.99-13.1Q147.99-10.15 149.19-7.85 150.39-5.55 152.46-4.28 154.54-3 157.24-3L157.24-3Q158.54-3 159.71-3.45 160.89-3.9 161.69-4.65L161.69-4.65 162.74-3.7Q161.64-2.1 159.29-0.85 156.94 0.4 154.24 0.4ZM172.38 0.4L172.38 0.4Q171.28 0.4 170.24-0.1 169.19-0.6 168.63-1.45L168.63-1.45Q168.19-2.15 168.01-3.2 167.84-4.25 167.84-6.1L167.84-6.1 167.84-20 165.19-20 165.19-21.55Q166.19-22.15 167.24-23.1 168.28-24.05 169.24-25.15 170.19-26.25 170.88-27.1L170.88-27.1 171.88-26.65 171.88-22.8 178.84-22.8 178.84-20 171.88-20 171.88-6.35Q171.88-4.8 172.06-4.03 172.24-3.25 172.94-2.8L172.94-2.8Q173.59-2.4 174.66-2.45 175.74-2.5 176.76-2.78 177.78-3.05 178.24-3.3L178.24-3.3 178.94-2.05Q177.69-1.05 176.11-0.33 174.53 0.4 172.38 0.4ZM192.98 0L181.03 0 181.03-1.5Q181.68-1.5 182.83-1.65 183.98-1.8 184.98-2.3L184.98-2.3 184.98-19.25Q184.33-19.5 183.46-19.53 182.58-19.55 181.88-19.45L181.88-19.45 181.43-20.75 188.03-23.5 189.03-22.8 189.03-2.3Q190.03-1.8 191.18-1.65 192.33-1.5 192.98-1.5L192.98-1.5 192.98 0ZM186.93-28.25L186.93-28.25Q185.73-28.25 184.96-29.03 184.18-29.8 184.18-31L184.18-31Q184.18-32.1 184.96-32.95 185.73-33.8 186.93-33.8L186.93-33.8Q188.13-33.8 188.93-33 189.73-32.2 189.73-31.05L189.73-31.05Q189.73-29.95 188.93-29.1 188.13-28.25 186.93-28.25ZM207.33 0L195.38 0 195.38-1.5Q196.03-1.5 197.18-1.65 198.33-1.8 199.33-2.3L199.33-2.3 199.33-19.25Q198.68-19.5 197.8-19.53 196.93-19.55 196.23-19.45L196.23-19.45 195.78-20.75 202.38-23.5 203.38-22.8 203.38-19.45Q204.48-20.3 205.85-21.15 207.23-22 208.7-22.6 210.18-23.2 211.58-23.2L211.58-23.2Q212.48-23.2 213.65-22.9 214.83-22.6 215.98-21.55L215.98-21.55Q216.88-20.75 217.45-19.35 218.03-17.95 218.03-15.7L218.03-15.7 218.03-2.3Q219.03-1.8 220.18-1.65 221.33-1.5 221.98-1.5L221.98-1.5 221.98 0 210.43 0 210.43-1.5Q210.98-1.5 212.03-1.65 213.08-1.8 213.98-2.3L213.98-2.3 213.98-14.45Q213.98-15.7 213.88-16.6 213.78-17.5 213.28-18.3L213.28-18.3Q212.73-19.2 211.8-19.65 210.88-20.1 209.73-20.1L209.73-20.1Q207.78-20.1 206.15-19.15 204.53-18.2 203.38-17.3L203.38-17.3 203.38-2.3Q204.38-1.8 205.53-1.65 206.68-1.5 207.33-1.5L207.33-1.5 207.33 0ZM233.98-5.8L233.98-5.8Q232.23-5.8 230.68-6.5L230.68-6.5Q230.08-6 229.73-5.48 229.38-4.95 229.38-4.35L229.38-4.35Q229.38-3.45 230.53-3.03 231.68-2.6 233.63-2.4 235.58-2.2 238.03-1.85L238.03-1.85Q240.18-1.55 242.13-0.93 244.08-0.3 245.3 1.03 246.53 2.35 246.53 4.7L246.53 4.7Q246.53 7.45 244.85 9.6 243.18 11.75 240.5 12.98 237.83 14.2 234.78 14.2L234.78 14.2Q232.13 14.2 229.78 13.5 227.43 12.8 225.95 11.33 224.48 9.85 224.48 7.55L224.48 7.55Q224.48 6 225.3 4.75 226.13 3.5 227.38 2.5 228.63 1.5 229.93 0.65L229.93 0.65Q228.13 0.2 226.93-0.7 225.73-1.6 225.73-3L225.73-3Q225.73-4.25 226.85-5.33 227.98-6.4 229.28-7.25L229.28-7.25Q227.58-8.4 226.53-10.3 225.48-12.2 225.48-14.4L225.48-14.4Q225.48-16.8 226.58-18.8 227.68-20.8 229.58-22 231.48-23.2 233.88-23.2L233.88-23.2Q235.93-23.2 237.65-22.33 239.38-21.45 240.53-20.05L240.53-20.05 246.88-20.75 246.48-17.55 241.93-17.6Q242.48-16.15 242.48-14.6L242.48-14.6Q242.48-12.15 241.3-10.15 240.13-8.15 238.2-6.98 236.28-5.8 233.98-5.8ZM238.58-13.8L238.58-13.8Q238.58-15.55 237.88-17.15 237.18-18.75 236.05-19.78 234.93-20.8 233.53-20.8L233.53-20.8Q231.53-20.8 230.45-19.03 229.38-17.25 229.38-15L229.38-15Q229.38-13.25 230.08-11.68 230.78-10.1 231.95-9.1 233.13-8.1 234.48-8.1L234.48-8.1Q235.78-8.1 236.7-8.93 237.63-9.75 238.1-11.08 238.58-12.4 238.58-13.8ZM228.43 6.9L228.43 6.9Q228.43 8.55 229.48 9.73 230.53 10.9 232.13 11.5 233.73 12.1 235.33 12.1L235.33 12.1Q238.43 12.1 240.55 10.43 242.68 8.75 242.68 6L242.68 6Q242.68 4.5 241.9 3.68 241.13 2.85 239.9 2.45 238.68 2.05 237.33 1.85L237.33 1.85Q236.08 1.65 234.75 1.48 233.43 1.3 231.83 1.05L231.83 1.05Q229.93 2.5 229.18 3.98 228.43 5.45 228.43 6.9ZM258.62-20L259.17-22.8 261.87-22.8Q261.87-25.05 262.1-27.43 262.32-29.8 263.2-32.02 264.07-34.25 265.97-36.1L265.97-36.1Q267.87-37.9 269.97-38.68 272.07-39.45 274.07-39.45L274.07-39.45Q275.97-39.45 277.6-38.85 279.22-38.25 280.22-37.25L280.22-37.25 276.92-34.05Q275.97-35.1 274.65-35.8 273.32-36.5 272.02-36.5L272.02-36.5Q270.87-36.5 269.75-36.05 268.62-35.6 267.77-34.6L267.77-34.6Q266.47-33.15 266.2-30.73 265.92-28.3 265.92-24.05L265.92-24.05 265.92-22.8 273.22-22.8 273.22-20 265.92-20 265.92-2.3Q267.12-1.8 268.52-1.65 269.92-1.5 270.67-1.5L270.67-1.5 270.67 0 257.92 0 257.92-1.5Q258.57-1.5 259.72-1.65 260.87-1.8 261.87-2.3L261.87-2.3 261.87-20 258.62-20ZM287.97 0L276.02 0 276.02-1.5Q276.57-1.5 277.62-1.65 278.67-1.8 279.57-2.3L279.57-2.3 279.57-19.25Q278.92-19.5 278.04-19.53 277.17-19.55 276.47-19.45L276.47-19.45 276.02-20.75 282.62-23.5 283.62-22.8 283.62-18Q284.82-19.85 286.27-21.4 287.72-22.95 289.52-23.15L289.52-23.15Q291.77-23.4 293.22-22.5L293.22-22.5 291.02-17.95Q290.62-18.35 289.92-18.7 289.22-19.05 288.32-19.05L288.32-19.05Q286.52-19.05 285.47-17.82 284.42-16.6 283.62-15.15L283.62-15.15 283.62-2.3Q284.77-1.8 286.02-1.65 287.27-1.5 287.97-1.5L287.97-1.5 287.97 0ZM306.87 0L294.92 0 294.92-1.5Q295.57-1.5 296.72-1.65 297.87-1.8 298.87-2.3L298.87-2.3 298.87-19.25Q298.22-19.5 297.34-19.53 296.47-19.55 295.77-19.45L295.77-19.45 295.32-20.75 301.92-23.5 302.92-22.8 302.92-2.3Q303.92-1.8 305.07-1.65 306.22-1.5 306.87-1.5L306.87-1.5 306.87 0ZM300.82-28.25L300.82-28.25Q299.62-28.25 298.84-29.03 298.07-29.8 298.07-31L298.07-31Q298.07-32.1 298.84-32.95 299.62-33.8 300.82-33.8L300.82-33.8Q302.02-33.8 302.82-33 303.62-32.2 303.62-31.05L303.62-31.05Q303.62-29.95 302.82-29.1 302.02-28.25 300.82-28.25ZM309.66-10.75L309.66-10.75Q309.66-14.4 311.11-17.23 312.56-20.05 314.99-21.65 317.41-23.25 320.36-23.2L320.36-23.2Q322.86-23.2 324.76-21.95 326.66-20.7 327.64-18.57 328.61-16.45 328.31-13.9L328.31-13.9 313.31-13.1 313.31-12.95Q313.31-10.35 314.36-8.13 315.41-5.9 317.26-4.58 319.11-3.25 321.46-3.25L321.46-3.25Q323.16-3.25 324.56-3.93 325.96-4.6 326.91-5.45L326.91-5.45 327.96-4.55Q327.21-3.45 325.89-2.3 324.56-1.15 322.86-0.38 321.16 0.4 319.21 0.4L319.21 0.4Q316.41 0.4 314.26-1.15 312.11-2.7 310.89-5.25 309.66-7.8 309.66-10.75ZM319.16-20.6L319.16-20.6Q317.01-20.6 315.54-19 314.06-17.4 313.56-15.1L313.56-15.1 323.86-15.9Q323.86-17.8 322.46-19.2 321.06-20.6 319.16-20.6ZM342.71 0L330.76 0 330.76-1.5Q331.41-1.5 332.56-1.65 333.71-1.8 334.71-2.3L334.71-2.3 334.71-19.25Q334.06-19.5 333.19-19.53 332.31-19.55 331.61-19.45L331.61-19.45 331.16-20.75 337.76-23.5 338.76-22.8 338.76-19.45Q339.86-20.3 341.24-21.15 342.61-22 344.09-22.6 345.56-23.2 346.96-23.2L346.96-23.2Q347.86-23.2 349.04-22.9 350.21-22.6 351.36-21.55L351.36-21.55Q352.26-20.75 352.84-19.35 353.41-17.95 353.41-15.7L353.41-15.7 353.41-2.3Q354.41-1.8 355.56-1.65 356.71-1.5 357.36-1.5L357.36-1.5 357.36 0 345.81 0 345.81-1.5Q346.36-1.5 347.41-1.65 348.46-1.8 349.36-2.3L349.36-2.3 349.36-14.45Q349.36-15.7 349.26-16.6 349.16-17.5 348.66-18.3L348.66-18.3Q348.11-19.2 347.19-19.65 346.26-20.1 345.11-20.1L345.11-20.1Q343.16-20.1 341.54-19.15 339.91-18.2 338.76-17.3L338.76-17.3 338.76-2.3Q339.76-1.8 340.91-1.65 342.06-1.5 342.71-1.5L342.71-1.5 342.71 0ZM369.31 0.4L369.31 0.4Q366.61 0.4 364.56-0.98 362.51-2.35 361.33-4.73 360.16-7.1 360.16-10.1L360.16-10.1Q360.16-12.65 361.11-15.03 362.06-17.4 363.73-19.23 365.41-21.05 367.58-22.13 369.76-23.2 372.21-23.2L372.21-23.2Q374.26-23.2 376.41-22.35L376.41-22.35 376.41-35.2Q375.76-35.45 374.88-35.48 374.01-35.5 373.31-35.4L373.31-35.4 372.86-36.7 379.46-39.45 380.46-38.75 380.46-3.3Q381.51-3.2 382.53-3.45 383.56-3.7 384.31-3.95L384.31-3.95 384.91-2.6 378.76 0.4Q377.66 0 377.16-0.65 376.66-1.3 376.53-2.05 376.41-2.8 376.41-3.35L376.41-3.35 376.41-3.55Q374.81-1.7 373.23-0.65 371.66 0.4 369.31 0.4ZM363.81-12.45L363.81-12.45Q363.81-9.95 364.81-7.83 365.81-5.7 367.56-4.4 369.31-3.1 371.61-3.1L371.61-3.1Q372.86-3.1 374.08-3.65 375.31-4.2 376.41-5.6L376.41-5.6 376.41-17.95Q374.41-20.6 371.16-20.6L371.16-20.6Q367.86-20.6 365.83-18.38 363.81-16.15 363.81-12.45ZM395.21 0.4L395.21 0.4Q393.51 0.4 391.61 0.03 389.71-0.35 388.76-0.9L388.76-0.9 387.71-7.4 389.36-7.7Q389.81-5.25 391.18-3.53 392.56-1.8 394.86-1.8L394.86-1.8Q396.61-1.8 397.81-2.65 399.01-3.5 399.01-5.15L399.01-5.15Q399.01-6.35 398.01-7.33 397.01-8.3 395.56-9.22 394.11-10.15 392.63-11.2 391.16-12.25 390.16-13.58 389.16-14.9 389.16-16.75L389.16-16.75Q389.16-19.8 391.38-21.5 393.61-23.2 396.91-23.2L396.91-23.2Q398.56-23.2 399.86-22.93 401.16-22.65 401.61-22.55L401.61-22.55 402.36-16.85 400.86-16.6Q400.61-18.65 399.48-19.8 398.36-20.95 396.66-20.95L396.66-20.95Q395.01-20.95 393.91-20.13 392.81-19.3 392.81-17.7L392.81-17.7Q392.81-16.25 393.83-15.25 394.86-14.25 396.36-13.4 397.86-12.55 399.33-11.6 400.81-10.65 401.83-9.25 402.86-7.85 402.86-5.75L402.86-5.75Q402.86-3 400.73-1.3 398.61 0.4 395.21 0.4ZM426.6 0.4L426.6 0.4Q423.4 0.4 420.78-1.18 418.15-2.75 416.58-5.4 415-8.05 415-11.3L415-11.3Q415-14.55 416.53-17.25 418.05-19.95 420.65-21.58 423.25-23.2 426.45-23.2L426.45-23.2Q429.75-23.2 432.4-21.58 435.05-19.95 436.58-17.3 438.1-14.65 438.1-11.55L438.1-11.55Q438.1-8.3 436.58-5.58 435.05-2.85 432.45-1.23 429.85 0.4 426.6 0.4ZM427.4-1.8L427.4-1.8Q429.4-1.8 430.78-3 432.15-4.2 432.9-6.13 433.65-8.05 433.65-10.2L433.65-10.2Q433.65-12.9 432.6-15.38 431.55-17.85 429.78-19.45 428-21.05 425.7-21.05L425.7-21.05Q423.8-21.05 422.38-19.88 420.95-18.7 420.18-16.8 419.4-14.9 419.4-12.7L419.4-12.7Q419.4-10.05 420.45-7.53 421.5-5 423.3-3.4 425.1-1.8 427.4-1.8ZM452.75 0.7L451.05 0.7 442.85-20.55Q442.05-21 441.18-21.15 440.3-21.3 439.8-21.3L439.8-21.3 439.8-22.8 450.6-22.8 450.6-21.3Q450.05-21.3 449.03-21.15 448-21 447.1-20.5L447.1-20.5 452.7-5.75 458.7-20.5Q457.8-21 456.75-21.15 455.7-21.3 455.15-21.3L455.15-21.3 455.15-22.8 464.4-22.8 464.4-21.3Q463.9-21.3 463.05-21.15 462.2-21 461.35-20.55L461.35-20.55 452.75 0.7ZM466.6-10.75L466.6-10.75Q466.6-14.4 468.05-17.23 469.5-20.05 471.92-21.65 474.35-23.25 477.3-23.2L477.3-23.2Q479.8-23.2 481.7-21.95 483.6-20.7 484.57-18.57 485.55-16.45 485.25-13.9L485.25-13.9 470.25-13.1 470.25-12.95Q470.25-10.35 471.3-8.13 472.35-5.9 474.2-4.58 476.05-3.25 478.4-3.25L478.4-3.25Q480.1-3.25 481.5-3.93 482.9-4.6 483.85-5.45L483.85-5.45 484.9-4.55Q484.15-3.45 482.82-2.3 481.5-1.15 479.8-0.38 478.1 0.4 476.15 0.4L476.15 0.4Q473.35 0.4 471.2-1.15 469.05-2.7 467.82-5.25 466.6-7.8 466.6-10.75ZM476.1-20.6L476.1-20.6Q473.95-20.6 472.47-19 471-17.4 470.5-15.1L470.5-15.1 480.8-15.9Q480.8-17.8 479.4-19.2 478-20.6 476.1-20.6ZM499.65 0L487.7 0 487.7-1.5Q488.25-1.5 489.3-1.65 490.35-1.8 491.25-2.3L491.25-2.3 491.25-19.25Q490.6-19.5 489.72-19.53 488.85-19.55 488.15-19.45L488.15-19.45 487.7-20.75 494.3-23.5 495.3-22.8 495.3-18Q496.5-19.85 497.95-21.4 499.4-22.95 501.2-23.15L501.2-23.15Q503.45-23.4 504.9-22.5L504.9-22.5 502.7-17.95Q502.3-18.35 501.6-18.7 500.9-19.05 500-19.05L500-19.05Q498.2-19.05 497.15-17.82 496.1-16.6 495.3-15.15L495.3-15.15 495.3-2.3Q496.45-1.8 497.7-1.65 498.95-1.5 499.65-1.5L499.65-1.5 499.65 0ZM516.04-20L516.59-22.8 519.29-22.8Q519.29-25.05 519.52-27.43 519.74-29.8 520.62-32.02 521.49-34.25 523.39-36.1L523.39-36.1Q525.29-37.9 527.39-38.68 529.49-39.45 531.49-39.45L531.49-39.45Q533.39-39.45 535.02-38.85 536.64-38.25 537.64-37.25L537.64-37.25 534.34-34.05Q533.39-35.1 532.07-35.8 530.74-36.5 529.44-36.5L529.44-36.5Q528.29-36.5 527.17-36.05 526.04-35.6 525.19-34.6L525.19-34.6Q523.89-33.15 523.62-30.73 523.34-28.3 523.34-24.05L523.34-24.05 523.34-22.8 530.64-22.8 530.64-20 523.34-20 523.34-2.3Q524.54-1.8 525.94-1.65 527.34-1.5 528.09-1.5L528.09-1.5 528.09 0 515.34 0 515.34-1.5Q515.99-1.5 517.14-1.65 518.29-1.8 519.29-2.3L519.29-2.3 519.29-20 516.04-20ZM545.44 0.4L545.44 0.4Q542.24 0.4 539.61-1.18 536.99-2.75 535.41-5.4 533.84-8.05 533.84-11.3L533.84-11.3Q533.84-14.55 535.36-17.25 536.89-19.95 539.49-21.58 542.09-23.2 545.29-23.2L545.29-23.2Q548.59-23.2 551.24-21.58 553.89-19.95 555.41-17.3 556.94-14.65 556.94-11.55L556.94-11.55Q556.94-8.3 555.41-5.58 553.89-2.85 551.29-1.23 548.69 0.4 545.44 0.4ZM546.24-1.8L546.24-1.8Q548.24-1.8 549.61-3 550.99-4.2 551.74-6.13 552.49-8.05 552.49-10.2L552.49-10.2Q552.49-12.9 551.44-15.38 550.39-17.85 548.61-19.45 546.84-21.05 544.54-21.05L544.54-21.05Q542.64-21.05 541.21-19.88 539.79-18.7 539.01-16.8 538.24-14.9 538.24-12.7L538.24-12.7Q538.24-10.05 539.29-7.53 540.34-5 542.14-3.4 543.94-1.8 546.24-1.8ZM571.43 0.4L571.43 0.4Q568.24 0.4 565.61-1.18 562.99-2.75 561.41-5.4 559.84-8.05 559.84-11.3L559.84-11.3Q559.84-14.55 561.36-17.25 562.88-19.95 565.49-21.58 568.09-23.2 571.28-23.2L571.28-23.2Q574.59-23.2 577.24-21.58 579.88-19.95 581.41-17.3 582.93-14.65 582.93-11.55L582.93-11.55Q582.93-8.3 581.41-5.58 579.88-2.85 577.28-1.23 574.68 0.4 571.43 0.4ZM572.24-1.8L572.24-1.8Q574.24-1.8 575.61-3 576.99-4.2 577.74-6.13 578.49-8.05 578.49-10.2L578.49-10.2Q578.49-12.9 577.43-15.38 576.38-17.85 574.61-19.45 572.84-21.05 570.53-21.05L570.53-21.05Q568.63-21.05 567.21-19.88 565.78-18.7 565.01-16.8 564.24-14.9 564.24-12.7L564.24-12.7Q564.24-10.05 565.28-7.53 566.34-5 568.13-3.4 569.93-1.8 572.24-1.8ZM594.98 0.4L594.98 0.4Q592.28 0.4 590.23-0.98 588.18-2.35 587.01-4.73 585.83-7.1 585.83-10.1L585.83-10.1Q585.83-12.65 586.78-15.03 587.73-17.4 589.41-19.23 591.08-21.05 593.26-22.13 595.43-23.2 597.88-23.2L597.88-23.2Q599.93-23.2 602.08-22.35L602.08-22.35 602.08-35.2Q601.43-35.45 600.56-35.48 599.68-35.5 598.98-35.4L598.98-35.4 598.53-36.7 605.13-39.45 606.13-38.75 606.13-3.3Q607.18-3.2 608.21-3.45 609.23-3.7 609.98-3.95L609.98-3.95 610.58-2.6 604.43 0.4Q603.33 0 602.83-0.65 602.33-1.3 602.21-2.05 602.08-2.8 602.08-3.35L602.08-3.35 602.08-3.55Q600.48-1.7 598.91-0.65 597.33 0.4 594.98 0.4ZM589.48-12.45L589.48-12.45Q589.48-9.95 590.48-7.83 591.48-5.7 593.23-4.4 594.98-3.1 597.28-3.1L597.28-3.1Q598.53-3.1 599.76-3.65 600.98-4.2 602.08-5.6L602.08-5.6 602.08-17.95Q600.08-20.6 596.83-20.6L596.83-20.6Q593.53-20.6 591.51-18.38 589.48-16.15 589.48-12.45Z" opacity="1" transform="matrix(1,0,0,1,0,0)" fill="#556970" class="slogan-text-1" data-fill-palette-color="secondary" id="text-1"></path></svg></g></svg></g></svg></g></svg></g><g transform="matrix(1,0,0,1,0,6.556363864124094)"><svg viewBox="0 0 163.73487354660122 153.57448915626279" height="153.57448915626279" width="163.73487354660122"><g><svg xmlns="http://www.w3.org/2000/svg" xmlns:xlink="http://www.w3.org/1999/xlink" version="1.1" x="0" y="0" viewBox="0.0006249959620103773 0 99.99937500403799 93.79402566808575" enable-background="new 0 0 100 100" xml:space="preserve" height="153.57448915626279" width="163.73487354660122" class="icon-icon-0" data-fill-palette-color="accent" id="icon-0"><path fill="#aba944" d="M100 29.775C100 21.822 96.903 14.344 91.28 8.72 85.656 3.097 78.18 0 70.227 0 62.614 0 55.442 2.844 49.909 8.02 44.399 2.945 37.296 0.161 29.761 0.161 21.808 0.161 14.331 3.258 8.707 8.882-2.902 20.49-2.901 39.381 8.707 50.991L16.288 58.574A6.8 6.8 0 0 0 15.122 62.391C15.122 64.214 15.831 65.928 17.121 67.216A6.78 6.78 0 0 0 23.5 69.031 6.77 6.77 0 0 0 25.316 75.409 6.77 6.77 0 0 0 31.7 77.223 6.82 6.82 0 0 0 33.509 83.605 6.78 6.78 0 0 0 39.892 85.416 6.81 6.81 0 0 0 41.703 91.795 6.78 6.78 0 0 0 46.529 93.794 6.76 6.76 0 0 0 50.451 92.549 6.77 6.77 0 0 0 54.2 93.67 6.78 6.78 0 0 0 59.027 91.674 6.82 6.82 0 0 0 60.993 86.216C61.853 86.601 62.796 86.801 63.767 86.801 65.59 86.801 67.306 86.091 68.594 84.803A6.83 6.83 0 0 0 70.413 78.434 7 7 0 0 0 71.961 78.609C73.782 78.609 75.496 77.899 76.787 76.612A6.8 6.8 0 0 0 78.785 71.785C78.785 70.824 78.589 69.895 78.215 69.042A6.87 6.87 0 0 0 83.632 67.068 6.8 6.8 0 0 0 85.63 62.242C85.63 60.672 85.101 59.184 84.132 57.978L91.282 50.829C96.903 45.206 100 37.729 100 29.775M25.014 65.461A4.3 4.3 0 0 1 23.936 66.227 4.3 4.3 0 0 1 21.944 66.733 4.3 4.3 0 0 1 18.876 65.462 4.3 4.3 0 0 1 17.604 62.392C17.604 61.684 17.791 61.009 18.11 60.398 18.313 60.009 18.556 59.642 18.876 59.324L19.711 58.488 26.388 51.81C27.207 50.991 28.297 50.539 29.456 50.539S31.706 50.991 32.526 51.81A4.347 4.347 0 0 1 32.528 57.949L25.849 64.629zM33.208 73.655A4.4 4.4 0 0 1 32.128 74.423 4.3 4.3 0 0 1 30.137 74.926C28.977 74.926 27.887 74.475 27.069 73.655 25.699 72.285 25.458 70.229 26.303 68.594 26.502 68.207 26.744 67.837 27.069 67.514L27.902 66.681 37.269 57.315A4.3 4.3 0 0 1 40.339 56.042C41.498 56.042 42.588 56.494 43.407 57.315A4.3 4.3 0 0 1 44.678 60.383C44.678 61.542 44.226 62.633 43.407 63.453L34.04 72.821zM41.402 81.847A4.3 4.3 0 0 1 40.319 82.617 4.3 4.3 0 0 1 38.332 83.121C37.172 83.121 36.082 82.67 35.262 81.85 33.894 80.483 33.653 78.427 34.496 76.791 34.695 76.404 34.938 76.033 35.262 75.71L36.095 74.877 42.232 68.742 44.312 66.662 44.68 66.295A4.3 4.3 0 0 1 47.748 65.024C48.908 65.024 49.998 65.475 50.817 66.294A4.35 4.35 0 0 1 50.818 72.434L50.449 72.8 48.369 74.88 42.232 81.019zM50.423 89.212L49.594 90.041A4.4 4.4 0 0 1 48.511 90.812 4.3 4.3 0 0 1 46.526 91.312 4.3 4.3 0 0 1 43.456 90.041C42.088 88.673 41.845 86.62 42.688 84.986 42.887 84.597 43.13 84.225 43.456 83.902L44.286 83.072 50.424 76.935 50.556 76.803A4.27 4.27 0 0 1 53.221 75.571C53.357 75.557 53.489 75.532 53.624 75.532 54.784 75.532 55.875 75.983 56.696 76.802 57.644 77.751 58.04 79.031 57.925 80.275A4.3 4.3 0 0 1 56.696 82.942L56.562 83.075zM57.268 89.919A4.31 4.31 0 0 1 52.376 90.774L58.122 85.028C58.864 86.631 58.589 88.596 57.268 89.919M81.874 65.312A4.32 4.32 0 0 1 78.804 66.583 4.3 4.3 0 0 1 75.736 65.312L59.235 48.812A1.24 1.24 0 0 0 57.48 48.81L57.181 49.107A1.25 1.25 0 0 0 57.179 50.865L75.03 68.714A4.32 4.32 0 0 1 76.301 71.784C76.301 72.944 75.849 74.035 75.03 74.854A4.32 4.32 0 0 1 71.96 76.125 4.3 4.3 0 0 1 68.892 74.854L51.04 56.684C50.806 56.451 50.491 56 50.161 56H50.159C49.83 56 49.513 56.453 49.281 56.688L48.984 57.147C48.502 57.632 48.503 58.497 48.986 58.98L66.835 76.87C68.526 78.56 68.526 81.336 66.835 83.029A4.33 4.33 0 0 1 63.765 84.309 4.3 4.3 0 0 1 60.699 83.042L59.984 82.328C60.924 79.889 60.417 77.012 58.451 75.045A6.78 6.78 0 0 0 53.624 73.046C53.578 73.046 53.531 73.052 53.485 73.054 55.183 70.413 54.881 66.847 52.572 64.536A6.78 6.78 0 0 0 47.748 62.538C47.423 62.538 47.101 62.568 46.783 62.613 47.029 61.904 47.163 61.156 47.163 60.383A6.78 6.78 0 0 0 45.164 55.558 6.78 6.78 0 0 0 40.339 53.559 6.76 6.76 0 0 0 36.277 54.908 6.8 6.8 0 0 0 34.283 50.052 6.8 6.8 0 0 0 29.457 48.054C27.635 48.054 25.92 48.764 24.632 50.052L17.955 56.729 10.463 49.234C-0.179 38.593-0.179 21.278 10.461 10.638 15.617 5.483 22.47 2.644 29.759 2.644A27.1 27.1 0 0 1 48.129 9.764L25.833 32.063C23.172 34.724 23.163 39.045 25.813 41.694L26.995 42.875A6.74 6.74 0 0 0 31.796 44.849C33.619 44.849 35.333 44.139 36.62 42.851L51.087 28.386 81.874 59.174A4.3 4.3 0 0 1 83.145 62.242 4.3 4.3 0 0 1 81.874 65.312M82.521 56.076L52.064 25.651A1.2 1.2 0 0 0 51.575 25.363 1.2 1.2 0 0 0 51.186 25.287C50.869 25.287 50.551 25.409 50.308 25.65L49.33 26.629 34.864 41.095A4.3 4.3 0 0 1 31.796 42.366C30.619 42.366 29.567 41.935 28.751 41.119L27.57 39.938C25.888 38.257 25.898 35.512 27.591 33.819L48.695 12.71 50.929 10.476C51.009 10.395 51.094 10.32 51.175 10.241 56.302 5.238 63.05 2.482 70.227 2.482 77.516 2.482 84.371 5.321 89.524 10.476 94.679 15.631 97.517 22.484 97.517 29.774S94.679 43.917 89.524 49.072z" data-fill-palette-color="accent"></path></svg></g></svg></g></svg></g></svg></g><defs></defs></svg><rect width="395.52" height="114.25736493005319" fill="none" stroke="none" visibility="hidden"></rect></g></svg></g></svg>