<svg version="1.1" id="Layer_1" xmlns="http://www.w3.org/2000/svg" xmlns:xlink="http://www.w3.org/1999/xlink" x="0px" y="0px"
	 width="100%" viewBox="0 0 1198 310" enable-background="new 0 0 1198 310" xml:space="preserve">
<path fill="#E7E1DB" opacity="1.000000" stroke="none" 
	d="
M339.000000,311.000000 
	C226.383148,311.000000 113.766312,311.000000 1.074733,311.000000 
	C1.074733,207.762238 1.074733,104.524391 1.074733,1.000000 
	C113.354607,1.000000 225.709457,1.000000 338.584412,1.458850 
	C339.109924,103.948479 339.115601,205.979263 339.115570,308.010040 
	C339.115570,309.006683 339.040192,310.003357 339.000000,311.000000 
M197.776077,288.999023 
	C198.190048,286.612518 198.604004,284.226044 199.049911,281.655334 
	C207.533890,283.990875 215.097183,283.305206 221.614655,277.735809 
	C228.092316,272.200470 229.943527,264.825012 228.744720,256.548126 
	C237.246506,257.797089 244.014328,255.663055 249.446762,249.981781 
	C255.770630,243.368301 256.590424,235.412338 254.097031,226.957489 
	C275.554382,222.983978 282.317841,209.916641 272.843903,190.463318 
	C280.170197,183.234848 287.727783,175.985275 295.056702,168.511444 
	C327.510559,135.415817 332.519135,88.170975 307.808746,49.039570 
	C283.284119,10.202302 230.008224,-5.361365 188.662109,14.658953 
	C179.507584,19.091690 171.134430,25.138151 162.123306,30.610508 
	C161.940781,30.466003 161.159088,29.856087 160.386826,29.234457 
	C131.085281,5.647766 98.519035,0.175141 63.469265,13.298138 
	C4.062804,35.540531 -16.068745,112.189842 24.535446,161.059372 
	C33.009956,171.258942 42.898178,180.294861 52.286686,189.715775 
	C54.436363,191.872879 55.047581,193.379791 53.618057,196.458344 
	C48.686462,207.078781 53.479156,219.913971 64.228912,224.590759 
	C68.334076,226.376740 73.071968,226.708405 78.003067,227.810455 
	C77.088814,234.693115 79.086014,241.372040 84.441559,246.755997 
	C89.834404,252.177444 96.749863,253.511337 104.067833,253.095642 
	C104.707947,271.707153 110.900169,277.745514 130.582504,279.287842 
	C128.293259,300.414734 148.112686,310.736847 163.118317,302.570709 
	C164.230728,301.965302 166.255951,302.462341 167.633759,303.009033 
	C180.444626,308.092255 192.685837,302.715210 197.776077,288.999023 
z"/>
<path fill="#202542" opacity="1.000000" stroke="none" 
	d="
M339.461243,311.000000 
	C339.040192,310.003357 339.115570,309.006683 339.115570,308.010040 
	C339.115601,205.979263 339.109924,103.948479 339.052277,1.458850 
	C625.606995,1.000000 912.213928,1.000000 1198.910400,1.000000 
	C1198.910400,104.252045 1198.910400,207.504196 1198.910400,311.000000 
	C912.640869,311.000000 626.281677,311.000000 339.461243,311.000000 
M1192.788452,76.500061 
	C1192.788452,53.727291 1192.788452,30.954523 1192.788452,8.005681 
	C910.596558,8.005681 629.040833,8.005681 347.365997,8.005681 
	C347.365997,106.565941 347.365997,204.909546 347.365997,303.221436 
	C629.279785,303.221436 910.826538,303.221436 1192.788452,303.221436 
	C1192.788452,227.747467 1192.788452,152.623764 1192.788452,76.500061 
z"/>
<path fill="#222744" opacity="1.000000" stroke="none" 
	d="
M197.650055,289.381958 
	C192.685837,302.715210 180.444626,308.092255 167.633759,303.009033 
	C166.255951,302.462341 164.230728,301.965302 163.118317,302.570709 
	C148.112686,310.736847 128.293259,300.414734 130.582504,279.287842 
	C110.900169,277.745514 104.707947,271.707153 104.067833,253.095642 
	C96.749863,253.511337 89.834404,252.177444 84.441559,246.755997 
	C79.086014,241.372040 77.088814,234.693115 78.003067,227.810455 
	C73.071968,226.708405 68.334076,226.376740 64.228912,224.590759 
	C53.479156,219.913971 48.686462,207.078781 53.618057,196.458344 
	C55.047581,193.379791 54.436363,191.872879 52.286686,189.715775 
	C42.898178,180.294861 33.009956,171.258942 24.535446,161.059372 
	C-16.068745,112.189842 4.062804,35.540531 63.469265,13.298138 
	C98.519035,0.175141 131.085281,5.647766 160.386826,29.234457 
	C161.159088,29.856087 161.940781,30.466003 162.123306,30.610508 
	C171.134430,25.138151 179.507584,19.091690 188.662109,14.658953 
	C230.008224,-5.361365 283.284119,10.202302 307.808746,49.039570 
	C332.519135,88.170975 327.510559,135.415817 295.056702,168.511444 
	C287.727783,175.985275 280.170197,183.234848 272.843903,190.463318 
	C282.317841,209.916641 275.554382,222.983978 254.097031,226.957489 
	C256.590424,235.412338 255.770630,243.368301 249.446762,249.981781 
	C244.014328,255.663055 237.246506,257.797089 228.744720,256.548126 
	C229.943527,264.825012 228.092316,272.200470 221.614655,277.735809 
	C215.097183,283.305206 207.533890,283.990875 199.049911,281.655334 
	C198.604004,284.226044 198.190048,286.612518 197.650055,289.381958 
M155.211945,205.691177 
	C173.788834,206.819366 181.578018,219.578186 175.282700,238.839188 
	C176.124557,238.957596 176.933151,239.072601 177.742096,239.184891 
	C189.147446,240.768158 199.296753,251.853058 196.171387,265.797211 
	C195.805603,267.429230 196.804901,269.990967 198.053040,271.242157 
	C201.570618,274.768311 206.069183,275.843781 210.944153,274.494843 
	C221.422241,271.595490 224.623688,258.978333 216.747131,251.029434 
	C198.928421,233.047119 180.975296,215.198013 163.085602,197.286011 
	C161.910370,196.109283 160.601288,194.992599 159.714462,193.616043 
	C157.535538,190.233826 159.954208,187.799942 162.165756,185.977859 
	C162.913162,185.362106 165.756592,186.261642 166.870468,187.298035 
	C171.622314,191.719360 176.094070,196.442490 180.652145,201.071152 
	C194.555801,215.190140 208.455414,229.313110 222.349182,243.441864 
	C226.284561,247.443802 230.790665,250.126999 236.600647,248.582275 
	C247.768509,245.612991 250.967636,232.975647 242.657974,224.645081 
	C224.885635,206.828049 207.032761,189.091293 189.217697,171.316833 
	C188.157303,170.258865 186.595764,169.311630 186.236938,168.039398 
	C185.769302,166.381470 185.578247,163.722931 186.528442,162.817444 
	C187.760910,161.642960 190.319717,161.228363 192.145737,161.515549 
	C193.520065,161.731705 194.688309,163.517944 195.865509,164.688522 
	C212.161926,180.893295 228.367157,197.191254 244.816025,213.239548 
	C247.169357,215.535583 250.510559,217.412506 253.698914,218.128937 
	C259.375763,219.404480 265.216827,215.984222 267.806488,210.941360 
	C270.670532,205.364197 269.501404,199.061859 264.513062,194.084641 
	C232.800705,162.443130 201.066559,130.823471 169.327682,99.208565 
	C168.527893,98.411896 167.591080,97.752792 166.674026,96.992935 
	C165.879395,97.684380 165.223480,98.191185 164.640778,98.771515 
	C150.239532,113.113838 135.832321,127.450241 121.460007,141.821518 
	C117.444763,145.836487 112.823456,148.363159 107.070190,149.040405 
	C95.339447,150.421280 85.771782,140.979065 81.674545,132.854935 
	C77.135834,123.855461 79.473228,114.923141 87.671715,106.678368 
	C110.676254,83.543968 133.664368,60.393242 156.861847,37.044750 
	C155.974442,36.218922 154.963486,35.136127 153.813843,34.229122 
	C128.616409,14.349808 100.527092,9.490053 70.216324,19.281170 
	C24.063198,34.189747 -0.302528,86.653389 16.721983,132.049591 
	C25.441462,155.300262 44.399380,169.690735 61.058372,187.371872 
	C67.803917,180.407898 74.132797,173.813782 80.529770,167.286407 
	C87.356468,160.320557 95.269135,157.161285 104.929352,160.734421 
	C114.020081,164.096909 118.567017,170.858810 119.421463,180.548508 
	C120.849579,179.979431 122.234070,179.462662 123.590851,178.881210 
	C130.684235,175.841370 137.628677,176.224106 144.090149,180.366867 
	C153.059219,186.117355 155.266800,194.752640 153.380966,205.017227 
	C153.750977,205.202972 154.121002,205.388733 155.211945,205.691177 
M275.957367,176.459854 
	C280.428558,171.994034 284.975952,167.601608 289.358002,163.049973 
	C310.958221,140.613754 319.803040,113.976219 313.339783,83.415352 
	C306.412628,50.661003 286.237823,28.412434 254.503891,18.221907 
	C223.108002,8.139942 193.724152,14.284898 169.571960,36.737156 
	C142.776489,61.646671 117.428551,88.118484 91.659462,114.117325 
	C89.547073,116.248550 88.282265,119.887550 87.943977,122.970825 
	C87.235390,129.429276 92.815018,137.375931 99.560066,140.004211 
	C105.973381,142.503250 111.444290,140.703568 116.300369,135.801773 
	C131.413055,120.546783 146.684418,105.448936 161.899124,90.295059 
	C166.643402,85.569756 167.628693,85.573090 172.414352,90.335464 
	C198.720123,116.513260 225.046341,142.670624 251.304581,168.896042 
	C256.584625,174.169479 261.601257,179.706711 267.707733,186.143036 
	C270.741089,182.548065 273.098083,179.754669 275.957367,176.459854 
M116.031708,234.533035 
	C124.633347,225.941299 133.278137,217.392212 141.821457,208.742859 
	C147.541412,202.951904 147.668671,194.497543 142.286667,189.063797 
	C136.820404,183.544983 128.546890,183.450745 122.557190,189.023651 
	C118.778168,192.539719 115.222961,196.296173 111.563301,199.940720 
	C104.605438,206.869934 97.575874,213.728836 90.705353,220.743561 
	C84.454010,227.126129 84.315704,235.510757 90.158661,241.178528 
	C95.865257,246.714050 103.964958,246.378387 110.219582,240.322586 
	C112.014565,238.584641 113.753525,236.788849 116.031708,234.533035 
M153.893585,213.868790 
	C151.164688,215.302124 147.935959,216.212006 145.792679,218.258621 
	C136.053818,227.558197 126.564491,237.122421 117.097519,246.702225 
	C110.822395,253.052139 110.553246,261.543488 116.215561,267.155670 
	C121.949463,272.838806 130.268234,272.590240 136.672607,266.296844 
	C146.155502,256.978271 155.516922,247.535751 164.897369,238.113419 
	C169.312088,233.678970 171.590759,228.648590 168.939789,222.365646 
	C166.279449,216.060410 161.405762,213.401657 153.893585,213.868790 
M77.802147,181.301743 
	C73.213135,185.883408 68.536224,190.381073 64.057220,195.067856 
	C58.384186,201.004089 58.300327,209.265518 63.666847,214.739944 
	C69.198441,220.382751 77.649010,220.364960 83.709549,214.460556 
	C91.685425,206.690201 99.589333,198.841843 107.366882,190.873489 
	C112.649612,185.461151 112.598129,176.613617 107.549309,171.510345 
	C102.158501,166.061401 94.179176,165.780487 88.288635,171.046768 
	C84.822891,174.145248 81.622627,177.540680 77.802147,181.301743 
M146.308762,269.818451 
	C145.365326,270.758331 144.402802,271.679932 143.481537,272.641052 
	C137.023758,279.378265 136.672745,287.660980 142.589355,293.448853 
	C148.135300,298.874084 156.739227,298.434479 163.085617,292.229156 
	C170.105621,285.365173 177.071182,278.442230 183.929565,271.417206 
	C190.287140,264.905121 190.461304,256.802094 184.586060,251.033829 
	C178.870880,245.422699 170.562073,245.793503 164.148056,252.066315 
	C158.319809,257.766235 152.593201,263.570099 146.308762,269.818451 
M188.807449,278.211090 
	C183.235184,284.256348 177.662918,290.301605 172.274490,296.147400 
	C176.987701,297.923828 182.143158,297.267883 186.381668,292.928497 
	C190.369247,288.846039 191.883804,283.991150 188.807449,278.211090 
z"/>
<path fill="#E3DDD7" opacity="1.000000" stroke="none" 
	d="
M1192.788452,77.000061 
	C1192.788452,152.623764 1192.788452,227.747467 1192.788452,303.221436 
	C910.826538,303.221436 629.279785,303.221436 347.365997,303.221436 
	C347.365997,204.909546 347.365997,106.565941 347.365997,8.005681 
	C629.040833,8.005681 910.596558,8.005681 1192.788452,8.005681 
	C1192.788452,30.954523 1192.788452,53.727291 1192.788452,77.000061 
M363.012817,248.500000 
	C363.012817,261.580048 363.012817,274.660126 363.012817,287.595825 
	C634.689880,287.595825 905.579346,287.595825 1176.573364,287.595825 
	C1176.573364,199.518723 1176.573364,111.788025 1176.573364,23.910355 
	C905.352783,23.910355 634.448975,23.910355 363.012817,23.910355 
	C363.012817,98.610550 363.012817,173.055267 363.012817,248.500000 
z"/>
<path fill="#E7E1DA" opacity="1.000000" stroke="none" 
	d="
M153.754272,204.761612 
	C155.266800,194.752640 153.059219,186.117355 144.090149,180.366867 
	C137.628677,176.224106 130.684235,175.841370 123.590851,178.881210 
	C122.234070,179.462662 120.849579,179.979431 119.421463,180.548508 
	C118.567017,170.858810 114.020081,164.096909 104.929352,160.734421 
	C95.269135,157.161285 87.356468,160.320557 80.529770,167.286407 
	C74.132797,173.813782 67.803917,180.407898 61.058372,187.371872 
	C44.399380,169.690735 25.441462,155.300262 16.721983,132.049591 
	C-0.302528,86.653389 24.063198,34.189747 70.216324,19.281170 
	C100.527092,9.490053 128.616409,14.349808 153.813843,34.229122 
	C154.963486,35.136127 155.974442,36.218922 156.861847,37.044750 
	C133.664368,60.393242 110.676254,83.543968 87.671715,106.678368 
	C79.473228,114.923141 77.135834,123.855461 81.674545,132.854935 
	C85.771782,140.979065 95.339447,150.421280 107.070190,149.040405 
	C112.823456,148.363159 117.444763,145.836487 121.460007,141.821518 
	C135.832321,127.450241 150.239532,113.113838 164.640778,98.771515 
	C165.223480,98.191185 165.879395,97.684380 166.674026,96.992935 
	C167.591080,97.752792 168.527893,98.411896 169.327682,99.208565 
	C201.066559,130.823471 232.800705,162.443130 264.513062,194.084641 
	C269.501404,199.061859 270.670532,205.364197 267.806488,210.941360 
	C265.216827,215.984222 259.375763,219.404480 253.698914,218.128937 
	C250.510559,217.412506 247.169357,215.535583 244.816025,213.239548 
	C228.367157,197.191254 212.161926,180.893295 195.865509,164.688522 
	C194.688309,163.517944 193.520065,161.731705 192.145737,161.515549 
	C190.319717,161.228363 187.760910,161.642960 186.528442,162.817444 
	C185.578247,163.722931 185.769302,166.381470 186.236938,168.039398 
	C186.595764,169.311630 188.157303,170.258865 189.217697,171.316833 
	C207.032761,189.091293 224.885635,206.828049 242.657974,224.645081 
	C250.967636,232.975647 247.768509,245.612991 236.600647,248.582275 
	C230.790665,250.126999 226.284561,247.443802 222.349182,243.441864 
	C208.455414,229.313110 194.555801,215.190140 180.652145,201.071152 
	C176.094070,196.442490 171.622314,191.719360 166.870468,187.298035 
	C165.756592,186.261642 162.913162,185.362106 162.165756,185.977859 
	C159.954208,187.799942 157.535538,190.233826 159.714462,193.616043 
	C160.601288,194.992599 161.910370,196.109283 163.085602,197.286011 
	C180.975296,215.198013 198.928421,233.047119 216.747131,251.029434 
	C224.623688,258.978333 221.422241,271.595490 210.944153,274.494843 
	C206.069183,275.843781 201.570618,274.768311 198.053040,271.242157 
	C196.804901,269.990967 195.805603,267.429230 196.171387,265.797211 
	C199.296753,251.853058 189.147446,240.768158 177.742096,239.184891 
	C176.933151,239.072601 176.124557,238.957596 175.282700,238.839188 
	C181.578018,219.578186 173.788834,206.819366 154.674011,205.423538 
	C154.008789,205.024475 153.881531,204.893036 153.754272,204.761612 
z"/>
<path fill="#E7E1DA" opacity="1.000000" stroke="none" 
	d="
M275.706238,176.710571 
	C273.098083,179.754669 270.741089,182.548065 267.707733,186.143036 
	C261.601257,179.706711 256.584625,174.169479 251.304581,168.896042 
	C225.046341,142.670624 198.720123,116.513260 172.414352,90.335464 
	C167.628693,85.573090 166.643402,85.569756 161.899124,90.295059 
	C146.684418,105.448936 131.413055,120.546783 116.300369,135.801773 
	C111.444290,140.703568 105.973381,142.503250 99.560066,140.004211 
	C92.815018,137.375931 87.235390,129.429276 87.943977,122.970825 
	C88.282265,119.887550 89.547073,116.248550 91.659462,114.117325 
	C117.428551,88.118484 142.776489,61.646671 169.571960,36.737156 
	C193.724152,14.284898 223.108002,8.139942 254.503891,18.221907 
	C286.237823,28.412434 306.412628,50.661003 313.339783,83.415352 
	C319.803040,113.976219 310.958221,140.613754 289.358002,163.049973 
	C284.975952,167.601608 280.428558,171.994034 275.706238,176.710571 
z"/>
<path fill="#E6E0D9" opacity="1.000000" stroke="none" 
	d="
M115.774948,234.776306 
	C113.753525,236.788849 112.014565,238.584641 110.219582,240.322586 
	C103.964958,246.378387 95.865257,246.714050 90.158661,241.178528 
	C84.315704,235.510757 84.454010,227.126129 90.705353,220.743561 
	C97.575874,213.728836 104.605438,206.869934 111.563301,199.940720 
	C115.222961,196.296173 118.778168,192.539719 122.557190,189.023651 
	C128.546890,183.450745 136.820404,183.544983 142.286667,189.063797 
	C147.668671,194.497543 147.541412,202.951904 141.821457,208.742859 
	C133.278137,217.392212 124.633347,225.941299 115.774948,234.776306 
z"/>
<path fill="#E5DFD9" opacity="1.000000" stroke="none" 
	d="
M154.312027,213.771729 
	C161.405762,213.401657 166.279449,216.060410 168.939789,222.365646 
	C171.590759,228.648590 169.312088,233.678970 164.897369,238.113419 
	C155.516922,247.535751 146.155502,256.978271 136.672607,266.296844 
	C130.268234,272.590240 121.949463,272.838806 116.215561,267.155670 
	C110.553246,261.543488 110.822395,253.052139 117.097519,246.702225 
	C126.564491,237.122421 136.053818,227.558197 145.792679,218.258621 
	C147.935959,216.212006 151.164688,215.302124 154.312027,213.771729 
z"/>
<path fill="#E6E0D9" opacity="1.000000" stroke="none" 
	d="
M78.052551,181.052155 
	C81.622627,177.540680 84.822891,174.145248 88.288635,171.046768 
	C94.179176,165.780487 102.158501,166.061401 107.549309,171.510345 
	C112.598129,176.613617 112.649612,185.461151 107.366882,190.873489 
	C99.589333,198.841843 91.685425,206.690201 83.709549,214.460556 
	C77.649010,220.364960 69.198441,220.382751 63.666847,214.739944 
	C58.300327,209.265518 58.384186,201.004089 64.057220,195.067856 
	C68.536224,190.381073 73.213135,185.883408 78.052551,181.052155 
z"/>
<path fill="#E6E0D9" opacity="1.000000" stroke="none" 
	d="
M146.565277,269.573303 
	C152.593201,263.570099 158.319809,257.766235 164.148056,252.066315 
	C170.562073,245.793503 178.870880,245.422699 184.586060,251.033829 
	C190.461304,256.802094 190.287140,264.905121 183.929565,271.417206 
	C177.071182,278.442230 170.105621,285.365173 163.085617,292.229156 
	C156.739227,298.434479 148.135300,298.874084 142.589355,293.448853 
	C136.672745,287.660980 137.023758,279.378265 143.481537,272.641052 
	C144.402802,271.679932 145.365326,270.758331 146.565277,269.573303 
z"/>
<path fill="#DDD8D2" opacity="1.000000" stroke="none" 
	d="
M189.159363,278.315063 
	C191.883804,283.991150 190.369247,288.846039 186.381668,292.928497 
	C182.143158,297.267883 176.987701,297.923828 172.274490,296.147400 
	C177.662918,290.301605 183.235184,284.256348 189.159363,278.315063 
z"/>
<path fill="#E7E1DA" opacity="1.000000" stroke="none" 
	d="
M154.313538,205.365204 
	C154.121002,205.388733 153.750977,205.202972 153.567627,204.889420 
	C153.881531,204.893036 154.008789,205.024475 154.313538,205.365204 
z"/>
<path fill="#1D2240" opacity="1.000000" stroke="none" 
	d="
M363.012817,248.000000 
	C363.012817,173.055267 363.012817,98.610550 363.012817,23.910355 
	C634.448975,23.910355 905.352783,23.910355 1176.573364,23.910355 
	C1176.573364,111.788025 1176.573364,199.518723 1176.573364,287.595825 
	C905.579346,287.595825 634.689880,287.595825 363.012817,287.595825 
	C363.012817,274.660126 363.012817,261.580048 363.012817,248.000000 
M480.126801,101.408249 
	C480.126801,122.489532 480.126801,143.570816 480.126801,164.684875 
	C487.465302,164.684875 494.069641,164.684875 500.928772,164.684875 
	C500.928772,129.880051 500.928772,95.310905 500.928772,60.209686 
	C493.597107,60.209686 486.471771,60.073212 479.362579,60.350719 
	C478.242706,60.394432 476.758728,62.115871 476.185455,63.394436 
	C472.110687,72.482719 468.215424,81.651764 464.288940,90.806221 
	C457.707245,106.151199 451.144897,121.504471 444.228333,137.662704 
	C443.156830,135.434296 442.410980,134.019974 441.782379,132.555344 
	C431.894043,109.516052 422.054413,86.455688 412.059448,63.462814 
	C411.469147,62.104927 409.695465,60.406551 408.406952,60.349613 
	C401.459808,60.042629 394.491943,60.204300 387.363159,60.204300 
	C387.363159,95.330276 387.363159,130.017822 387.363159,164.687195 
	C394.333954,164.687195 400.936859,164.687195 407.960571,164.687195 
	C407.960571,142.751068 407.960571,121.042374 407.960571,99.333679 
	C408.250397,99.272453 408.540222,99.211220 408.830048,99.149994 
	C417.920624,120.997047 427.011200,142.844101 436.197083,164.920135 
	C440.434998,164.920135 444.612030,165.226624 448.703857,164.770020 
	C450.351685,164.586121 452.592377,163.067612 453.236053,161.581619 
	C458.514648,149.395294 463.469574,137.069016 468.544342,124.794121 
	C472.106323,116.178375 475.702026,107.576584 479.700836,97.963295 
	C479.971954,99.685707 480.047119,100.163292 480.126801,101.408249 
M1039.996704,159.566238 
	C1041.885132,157.829742 1043.773682,156.093246 1046.384155,153.692764 
	C1046.384155,157.914597 1046.384155,161.163345 1046.384155,164.661819 
	C1053.737183,164.661819 1060.629761,164.661819 1067.717773,164.661819 
	C1067.717773,127.786102 1067.717773,91.105934 1067.717773,54.374470 
	C1060.541016,54.374470 1053.653687,54.374470 1046.107666,54.374470 
	C1046.107666,66.986435 1046.107666,79.292862 1046.107666,92.237137 
	C1028.812866,74.963219 1003.257141,78.320457 991.028748,93.406113 
	C981.687012,104.930702 979.882629,118.311920 981.945740,132.508728 
	C986.072510,160.906052 1015.784485,175.101532 1039.996704,159.566238 
M832.455261,80.665237 
	C822.519897,80.282028 813.223206,82.330154 805.177551,88.412231 
	C790.245483,99.700043 785.033875,122.605515 792.561462,141.416229 
	C803.620239,169.051117 837.411743,170.776245 853.587646,160.083176 
	C861.329285,154.965591 866.921509,148.362320 869.715210,138.742096 
	C863.500977,138.742096 857.861938,138.903625 852.238159,138.680359 
	C848.964539,138.550385 846.864258,139.443466 844.822144,142.270264 
	C840.344849,148.467758 831.474792,150.423630 823.557983,147.623077 
	C815.993286,144.947083 811.183594,138.191116 811.180664,129.743225 
	C812.967468,129.743225 814.768066,129.743225 816.568604,129.743210 
	C833.399719,129.743134 850.231995,129.638809 867.061035,129.824356 
	C870.761963,129.865143 871.820007,128.743317 872.041199,125.067230 
	C873.570435,99.653564 857.296021,81.208679 832.455261,80.665237 
M579.843445,133.322418 
	C586.930359,116.384903 594.017273,99.447380 601.362244,81.893265 
	C594.580566,81.893265 588.465332,82.014267 582.358826,81.836601 
	C579.738586,81.760368 578.600098,82.672493 577.786987,85.168472 
	C576.039246,90.533043 573.867432,95.759338 571.873596,101.043884 
	C567.165283,113.523056 562.459595,126.003212 557.300781,139.681458 
	C549.889221,119.726227 542.914856,100.948036 535.937622,82.162231 
	C528.192932,82.162231 520.632996,82.162231 512.597778,82.162231 
	C513.376160,84.227203 513.966064,85.919884 514.645752,87.575706 
	C522.838257,107.532059 530.464111,127.749985 539.478577,147.328354 
	C544.357666,157.925201 546.248657,167.390610 539.152161,177.369034 
	C538.401245,178.424911 538.098022,179.797119 537.574402,181.017120 
	C534.347656,188.534851 531.117310,196.051010 527.673584,204.067154 
	C534.726013,204.067154 540.888489,204.260437 547.022095,203.925156 
	C548.473877,203.845795 550.528992,202.292252 551.123413,200.908539 
	C560.685425,178.650696 570.055786,156.310516 579.843445,133.322418 
M887.196411,104.500031 
	C887.196411,124.566902 887.196411,144.633774 887.196411,164.682251 
	C894.587891,164.682251 901.196228,164.682251 908.338684,164.682251 
	C908.338684,162.332443 908.316650,160.217346 908.342224,158.102829 
	C908.519043,143.466476 908.193359,128.799667 909.064026,114.204376 
	C909.676086,103.944443 916.974121,98.403023 927.357361,98.492699 
	C937.426147,98.579659 944.317566,104.039734 944.954041,114.363991 
	C945.863770,129.121872 945.590637,143.952835 945.813538,158.752716 
	C945.842651,160.685577 945.817566,162.619263 945.817566,164.525146 
	C953.147766,164.525146 959.850220,164.525146 966.704712,164.525146 
	C966.704712,147.328842 967.080017,130.519592 966.586304,113.735886 
	C966.189575,100.250267 961.042236,88.697357 947.683838,83.458549 
	C933.799011,78.013283 920.607849,79.783089 909.423462,90.599945 
	C909.314453,90.705353 908.871521,90.465408 908.486816,90.359886 
	C908.363892,87.655479 908.239563,84.919701 908.118103,82.247238 
	C900.962463,82.247238 894.240967,82.247238 887.196533,82.247238 
	C887.196533,89.565971 887.196533,96.533043 887.196411,104.500031 
M1087.129639,97.984016 
	C1083.451416,111.510254 1088.111450,121.278633 1101.286499,126.207321 
	C1109.657837,129.339005 1118.364014,131.569839 1126.891235,134.294296 
	C1130.285522,135.378754 1132.957764,137.361938 1132.766602,141.371765 
	C1132.561279,145.678009 1129.633423,147.834763 1125.861938,148.883347 
	C1116.134888,151.587769 1109.103149,148.248627 1104.763550,139.081879 
	C1097.859985,139.081879 1090.999634,139.081879 1083.980713,139.081879 
	C1084.768433,147.080627 1088.282471,153.141769 1094.183105,157.697266 
	C1106.069824,166.874176 1119.612549,168.075134 1133.496460,164.224319 
	C1146.208862,160.698441 1152.958008,152.091187 1153.032471,141.385529 
	C1153.107544,130.592285 1147.087036,123.322708 1133.963257,118.851166 
	C1126.744995,116.391739 1119.360107,114.425179 1112.113037,112.045151 
	C1108.547119,110.874039 1105.757324,108.480835 1106.259399,104.385582 
	C1106.765747,100.256905 1109.867920,98.280640 1113.792236,97.497490 
	C1123.317505,95.596603 1128.529663,98.394020 1132.586914,107.556656 
	C1139.027588,107.556656 1145.420654,107.556656 1152.050659,107.556656 
	C1151.368652,97.688072 1147.046265,90.441261 1139.007690,85.446762 
	C1130.623413,80.237503 1121.298340,80.048683 1111.949463,81.039139 
	C1101.093140,82.189316 1092.226807,86.749550 1087.129639,97.984016 
M612.954590,137.500000 
	C612.954590,146.578461 612.954590,155.656921 612.954590,164.610535 
	C620.302612,164.610535 626.886658,164.610535 633.950684,164.610535 
	C633.950684,149.900116 633.950684,135.494614 633.950684,120.615189 
	C645.180115,120.615189 655.930176,120.615189 666.869995,120.615189 
	C666.869995,114.893341 666.869995,109.659737 666.869995,103.963234 
	C655.861694,103.963234 645.117188,103.963234 634.229309,103.963234 
	C634.229309,94.801987 634.229309,86.109207 634.229309,77.069359 
	C648.703186,77.069359 662.813293,77.069359 677.077271,77.069359 
	C677.077271,71.300255 677.077271,65.888634 677.077271,60.442848 
	C655.638550,60.442848 634.543274,60.442848 612.954590,60.442848 
	C612.954590,85.958336 612.954590,111.229172 612.954590,137.500000 
M692.166626,105.500008 
	C692.166626,125.227989 692.166626,144.955978 692.166626,164.641266 
	C699.523193,164.641266 706.110535,164.641266 713.066528,164.641266 
	C713.066528,159.569412 712.986084,154.772003 713.082764,149.978165 
	C713.303955,139.012192 713.133728,128.008545 714.033447,117.095306 
	C714.771545,108.142296 720.195984,103.672081 729.237732,103.013939 
	C732.337219,102.788322 735.466980,102.978096 738.730835,102.978096 
	C738.730835,95.237045 738.730835,88.171036 738.730835,80.959198 
	C727.758118,80.256096 720.103027,85.800797 712.931885,94.335274 
	C712.931885,89.497284 712.931885,85.900887 712.931885,82.250900 
	C705.882751,82.250900 699.183289,82.250900 692.166626,82.250900 
	C692.166626,89.904518 692.166626,97.202278 692.166626,105.500008 
M773.998352,125.500000 
	C773.998352,111.087883 773.998352,96.675758 773.998352,82.185669 
	C766.762329,82.185669 760.049805,82.185669 753.266357,82.185669 
	C753.266357,109.818336 753.266357,137.164413 753.266357,164.619858 
	C760.245483,164.619858 766.957214,164.619858 773.998352,164.619858 
	C773.998352,151.717743 773.998352,139.108871 773.998352,125.500000 
M750.855835,61.190712 
	C752.507141,68.014687 756.758057,71.726906 763.212402,71.981384 
	C768.886292,72.205078 774.381348,68.591240 775.972229,63.469185 
	C777.496765,58.560768 776.372498,54.198036 772.615051,50.744129 
	C768.370117,46.842018 763.228149,46.505211 758.173401,48.531258 
	C753.074585,50.574959 750.525146,54.706047 750.855835,61.190712 
M678.149414,259.126404 
	C681.645203,264.332855 690.037476,266.002319 695.665527,261.920563 
	C697.731018,260.422546 699.438171,257.192810 699.616333,254.635101 
	C699.853333,251.232819 696.707764,249.836197 693.484192,249.338226 
	C691.517273,249.034393 689.579468,248.542068 687.628601,248.134384 
	C687.593018,247.602051 687.557373,247.069717 687.521790,246.537384 
	C690.777710,245.610062 694.756348,245.526962 697.093384,243.526276 
	C699.607239,241.374191 700.580994,237.423264 702.226746,234.257187 
	C701.913086,234.120209 701.599365,233.983231 701.285706,233.846252 
	C702.601746,232.962448 703.917786,232.078644 705.233887,231.194839 
	C701.936523,229.934143 698.993713,229.977966 696.145752,229.479843 
	C691.800110,228.719742 688.154053,229.660202 685.601196,233.295547 
	C683.146790,236.790619 683.332031,240.424362 686.013306,243.735886 
	C683.289307,248.544601 680.645081,253.208679 678.013184,257.879700 
	C677.942261,258.005646 678.004822,258.206818 678.149414,259.126404 
M1036.390259,253.344330 
	C1039.487671,252.951202 1042.585083,252.558075 1046.058716,252.117203 
	C1046.546997,252.339783 1047.699463,253.280014 1048.791870,253.214783 
	C1049.499268,253.172562 1050.509766,251.745880 1050.717651,250.793976 
	C1052.906738,240.767014 1054.961304,230.710678 1057.122925,220.327423 
	C1055.255249,220.327423 1053.844482,220.327423 1052.282715,220.327423 
	C1051.358765,224.212814 1050.466675,227.963638 1049.551880,231.810043 
	C1044.231201,228.437393 1040.043701,228.860275 1036.552246,232.906006 
	C1031.826294,238.382294 1031.408081,248.168930 1036.390259,253.344330 
M830.797424,244.274918 
	C832.429932,236.386185 834.062439,228.497452 835.757874,220.304855 
	C833.890808,220.304855 832.461975,220.304855 830.875793,220.304855 
	C830.410156,222.370667 829.987610,224.304840 829.535889,226.232162 
	C829.100647,228.089432 828.635254,229.939606 828.147827,231.937622 
	C822.588928,228.143921 817.598816,228.436813 814.832581,233.877930 
	C812.646606,238.177750 811.640259,243.576340 811.800537,248.431168 
	C811.964294,253.390457 817.030945,255.243042 821.504761,252.859680 
	C822.583679,252.284897 823.496338,251.397934 823.927856,251.073608 
	C825.169800,252.053406 825.976196,253.155090 826.889771,253.252609 
	C827.538818,253.321884 828.686584,252.166077 828.991028,251.330795 
	C829.723816,249.320419 830.091919,247.177109 830.797424,244.274918 
M978.852966,233.420197 
	C979.906372,232.661575 980.959839,231.902939 982.905457,230.501831 
	C980.070923,229.946945 978.693604,229.677292 977.701416,229.483063 
	C975.417908,222.331863 985.001526,226.264542 984.931946,221.178040 
	C978.264832,218.682007 975.212524,220.130188 972.740540,226.144363 
	C971.973389,228.010757 969.986206,229.375458 968.558594,230.970718 
	C968.147217,231.430328 967.739136,231.892868 967.081299,232.633575 
	C968.559875,233.195984 969.708130,233.632736 970.858704,234.070374 
	C969.476990,240.976013 968.423584,247.707092 966.651855,254.243469 
	C966.085754,256.331757 963.613953,257.902313 962.017944,259.713165 
	C961.381348,260.435425 960.136719,261.319550 960.269653,261.858490 
	C960.468140,262.663147 961.553711,263.645020 962.413086,263.823303 
	C966.480896,264.667206 969.987305,261.892426 971.147766,256.868011 
	C972.641418,250.401123 973.849304,243.866913 975.421753,237.420624 
	C975.776306,235.967255 977.127380,234.756989 978.852966,233.420197 
M729.486877,229.845459 
	C728.744141,229.268509 728.001404,228.691559 727.258667,228.114639 
	C728.521729,226.788269 729.658997,225.301025 731.086243,224.184601 
	C732.306396,223.230225 733.859314,222.701294 735.265015,221.984146 
	C727.308167,218.907211 725.004456,220.206924 722.462097,226.996597 
	C721.915283,228.456955 720.295776,229.527115 719.131531,230.739685 
	C718.589478,231.304153 717.954346,231.779236 717.074890,232.544006 
	C718.576599,233.172073 719.717224,233.649124 720.974854,234.175125 
	C719.622986,240.389557 718.101257,246.347382 717.089233,252.390579 
	C716.379089,256.630615 715.262146,260.096954 709.750916,260.808380 
	C710.722290,262.281677 711.692871,263.696106 712.797302,263.809814 
	C717.408020,264.284576 719.941895,261.544434 720.946167,257.394958 
	C722.469604,251.100342 723.787048,244.754654 725.117249,238.414993 
	C725.659180,235.832336 725.588196,232.870026 729.601440,233.240631 
	C729.712585,233.250885 730.028442,231.044769 729.486877,229.845459 
M1026.800049,232.825317 
	C1025.339844,231.830963 1024.010010,230.435028 1022.397034,229.911316 
	C1015.184204,227.569458 1009.027222,232.593918 1007.383240,242.100784 
	C1006.621643,246.505157 1007.521912,250.603088 1011.775696,252.753677 
	C1015.975952,254.877197 1020.369141,254.314331 1023.707825,250.880463 
	C1028.510498,245.940948 1029.626099,240.004593 1026.800049,232.825317 
M577.782227,251.934555 
	C578.735596,246.713516 580.002441,241.525528 580.557434,236.262482 
	C581.156433,230.581833 576.580017,227.630768 571.434387,230.084747 
	C569.989258,230.773926 568.715332,231.822098 567.877258,232.369629 
	C566.847839,231.374420 566.013733,229.968430 565.293091,230.024353 
	C564.408020,230.093033 563.090637,231.254959 562.870178,232.164810 
	C561.201294,239.052475 559.755676,245.994217 558.237610,252.931198 
	C561.980164,254.170319 563.489014,253.190384 564.197266,249.358292 
	C565.026123,244.873703 566.603088,240.428574 568.572021,236.308762 
	C569.233032,234.925766 572.090881,234.592712 573.944580,233.779755 
	C574.355286,235.515793 575.301941,237.325714 575.074768,238.973816 
	C574.428833,243.659409 573.303955,248.279007 572.222290,253.645477 
	C574.384094,253.230850 575.923889,252.935516 577.782227,251.934555 
M800.418274,242.652191 
	C799.791321,246.050873 799.164368,249.449554 798.537415,252.848236 
	C798.830811,253.216583 799.124268,253.584930 799.417725,253.953262 
	C800.908203,253.030304 803.352905,252.386841 803.719727,251.134735 
	C805.114136,246.374359 806.173035,241.449402 806.645325,236.517822 
	C806.833740,234.550598 805.724060,231.521591 804.207520,230.575684 
	C802.474121,229.494507 799.586487,229.899078 797.285095,230.235992 
	C795.992310,230.425232 794.870361,231.781677 794.200317,232.245834 
	C792.896362,231.292923 791.992981,230.258881 790.908630,230.008194 
	C790.414429,229.893951 789.141663,231.226486 788.939331,232.074036 
	C787.295166,238.961853 785.821045,245.890259 784.296204,252.801743 
	C787.744751,254.049545 789.385803,253.450684 790.067200,250.035690 
	C790.905334,245.834732 791.852539,241.515305 793.713989,237.718445 
	C794.631287,235.847443 797.711060,235.036636 799.812317,233.746078 
	C800.247070,235.789536 800.738892,237.823486 801.081787,239.882233 
	C801.184387,240.498718 800.871277,241.184418 800.418274,242.652191 
M539.192139,243.975967 
	C540.400757,241.264755 541.251038,238.292114 542.961609,235.947006 
	C543.886902,234.678467 546.280762,234.481186 548.012207,233.800598 
	C548.432800,235.415161 549.382812,237.101486 549.175476,238.630936 
	C548.533447,243.367722 547.451111,248.044815 546.536072,252.763519 
	C549.813293,253.982834 551.577759,253.667816 552.106750,250.057632 
	C552.754822,245.634689 554.335632,241.322311 554.700195,236.895187 
	C554.875793,234.764069 553.782227,231.631210 552.174927,230.503647 
	C550.578125,229.383499 547.570435,229.927017 545.269409,230.293289 
	C543.961731,230.501450 542.830261,231.816635 542.110168,232.302322 
	C540.906250,231.358337 540.038452,230.301315 538.959961,230.001144 
	C538.466797,229.863876 537.098328,231.109619 536.911011,231.911362 
	C535.294373,238.830383 533.856750,245.791245 532.361694,252.758377 
	C535.587524,254.044434 537.563904,253.631500 538.083679,250.169724 
	C538.354675,248.364838 538.753479,246.579163 539.192139,243.975967 
M665.109985,237.737015 
	C665.383118,237.319611 665.560181,236.709518 665.945618,236.517349 
	C667.873718,235.556046 669.856445,234.704285 671.819885,233.813995 
	C672.170105,235.772614 673.030151,237.803162 672.766052,239.675095 
	C672.188965,243.765778 671.025085,247.772507 670.150513,251.824234 
	C670.063477,252.227402 670.317444,252.704178 670.415527,253.157532 
	C671.981506,253.157532 673.406982,253.157532 675.179321,253.157532 
	C676.209473,247.261627 677.589111,241.588531 678.093628,235.838623 
	C678.575562,230.345032 674.086487,227.689423 669.128174,230.109955 
	C667.811401,230.752823 666.651611,231.717407 665.928772,232.196732 
	C664.697021,231.285782 663.800537,230.188721 662.744019,230.003281 
	C662.104553,229.891037 660.708496,231.072754 660.520874,231.875992 
	C658.884583,238.881927 657.444519,245.933716 655.969421,252.862778 
	C659.659729,254.238663 661.047424,253.014984 661.700623,249.932587 
	C662.520203,246.064972 663.749084,242.284103 665.109985,237.737015 
M508.021729,242.721588 
	C507.621735,247.235565 508.695526,251.222687 513.209106,253.031952 
	C517.582825,254.785187 522.358948,254.270309 524.883850,250.218857 
	C527.116577,246.636230 528.519409,242.089325 528.829590,237.861099 
	C529.286438,231.633453 523.797791,228.113373 517.661682,229.725494 
	C511.352905,231.382965 509.339447,236.309738 508.021729,242.721588 
M497.196472,249.192642 
	C493.940247,249.507690 490.625580,249.631149 489.041260,246.024475 
	C486.677948,240.644485 488.107422,235.545456 491.070709,230.896286 
	C493.797607,226.618057 497.894287,225.159241 502.782776,226.709412 
	C505.769989,227.656708 507.175903,226.612961 507.550507,223.687073 
	C494.922546,218.070053 483.289764,225.780426 482.831207,240.036865 
	C482.488617,250.688080 488.106842,255.444031 498.425079,253.493530 
	C501.640594,252.885651 502.727142,251.557617 501.541229,248.447983 
	C500.267029,248.674896 499.150909,248.873672 497.196472,249.192642 
M877.441406,229.815689 
	C871.070374,232.300552 867.911682,237.219986 868.012085,244.501221 
	C868.101501,250.988144 872.841553,254.818314 879.241638,253.575287 
	C885.172546,252.423386 888.940491,246.929916 889.025024,239.311584 
	C889.105896,232.021515 885.572876,228.853653 877.441406,229.815689 
M997.286560,251.959076 
	C1002.200867,248.260864 1003.370544,243.104324 1003.042175,237.329910 
	C1002.785828,232.821182 1000.261719,230.212158 996.026062,229.497528 
	C991.075195,228.662247 987.265381,230.810242 984.652344,234.997925 
	C981.231934,240.479645 980.974426,247.496567 984.264771,250.919250 
	C987.896057,254.696609 992.201477,254.534470 997.286560,251.959076 
M767.357849,244.386322 
	C770.074951,243.818436 772.847961,243.436737 775.497070,242.642242 
	C780.344299,241.188492 782.979553,237.088898 781.722473,233.364716 
	C780.505371,229.759048 775.701355,228.226501 771.080811,229.969910 
	C765.298401,232.151688 761.194092,238.788010 762.359375,245.731277 
	C762.808716,248.408218 765.024292,252.059418 767.283203,252.853134 
	C770.385742,253.943268 774.313782,252.875046 777.837585,252.375031 
	C778.383728,252.297516 778.660339,250.320374 779.203674,248.832718 
	C774.325073,248.857559 768.866455,252.633743 767.357849,244.386322 
M595.531006,249.790634 
	C591.662842,249.938293 590.272156,247.854706 590.289551,244.149734 
	C593.564514,243.452194 596.708374,243.087036 599.633667,242.084335 
	C603.507385,240.756546 605.749878,237.927109 604.735291,233.612244 
	C603.937195,230.218124 599.375061,228.411591 595.169922,229.523010 
	C588.255920,231.350357 583.319336,240.371216 585.356506,247.455490 
	C587.030212,253.276184 595.639526,256.221649 600.514099,252.508667 
	C601.294250,251.914413 601.413635,250.452759 602.141174,248.636597 
	C599.520874,249.146317 597.927734,249.456223 595.531006,249.790634 
M934.048401,237.605331 
	C934.425171,230.568192 930.450439,227.515045 923.843689,229.877426 
	C917.974976,231.975952 915.475464,236.582382 914.926758,242.471848 
	C914.079956,251.561493 919.535583,256.066650 928.142639,253.169357 
	C929.548523,252.696136 930.477417,250.806076 931.626770,249.570877 
	C921.712952,250.708359 920.116394,250.001480 920.226990,245.572128 
	C925.203064,242.913361 929.516907,240.608444 934.048401,237.605331 
M900.064453,253.421921 
	C900.950562,253.078659 902.296570,252.991577 902.652344,252.352890 
	C906.669739,245.139557 910.535400,237.841644 914.526245,230.408981 
	C908.239441,228.193115 907.872253,233.437027 906.053162,236.446030 
	C904.057312,239.747391 902.436707,243.275635 900.023804,247.913788 
	C899.393982,241.020691 898.899963,235.614212 898.397827,230.119049 
	C896.627808,230.119049 895.215149,230.119049 893.436157,230.119049 
	C894.267944,237.136398 894.926208,243.874512 895.996521,250.546509 
	C896.174255,251.654114 898.150635,252.473145 900.064453,253.421921 
M841.591125,249.875473 
	C839.525818,249.465607 837.460510,249.055756 834.599548,248.488007 
	C835.236816,250.210968 835.339600,252.132904 836.320618,252.844955 
	C839.795654,255.367325 848.293762,253.665375 850.488586,250.320404 
	C852.969604,246.539261 851.503601,243.071106 846.303894,239.289703 
	C844.944885,238.301361 844.259705,236.386429 843.265076,234.897049 
	C845.201355,234.511322 847.127625,234.052246 849.080078,233.784164 
	C849.673096,233.702744 850.374512,234.382202 850.961243,234.291565 
	C851.637146,234.187119 852.519043,233.758698 852.801514,233.208923 
	C853.114319,232.600327 853.010986,231.065125 852.812866,231.014526 
	C850.142395,230.332565 847.197998,228.940857 844.779541,229.548447 
	C842.290039,230.173874 839.379883,232.397430 838.400696,234.673294 
	C837.683289,236.340668 839.609619,239.313416 840.724609,241.518829 
	C841.172424,242.404739 842.783264,242.627563 843.540283,243.450592 
	C844.576965,244.577454 846.081726,246.090378 845.930298,247.247299 
	C845.797913,248.259094 843.653931,249.007629 841.591125,249.875473 
M608.924377,239.664658 
	C608.711914,240.464417 608.442505,241.253891 608.295776,242.065552 
	C606.715820,250.803024 612.778137,256.148346 621.110596,253.174362 
	C622.344421,252.733978 623.096375,250.943298 624.071289,249.777313 
	C621.353821,249.110382 619.644531,249.823120 618.140747,249.519211 
	C616.574890,249.202713 614.509827,248.253464 613.872192,246.976913 
	C610.871338,240.969284 616.365845,233.336304 622.960388,233.707642 
	C624.248596,233.780167 625.618713,232.398376 626.951111,231.687378 
	C617.533569,227.641144 612.773132,229.987915 608.924377,239.664658 
M639.151306,229.765671 
	C638.778076,228.057816 638.404846,226.349976 638.066895,224.803452 
	C635.897400,228.064926 633.658264,231.431030 631.419128,234.797134 
	C629.924805,234.250458 628.430420,233.703781 626.936096,233.157120 
	C633.705383,232.785095 631.513000,235.750061 631.056824,238.086487 
	C630.390747,241.498978 629.462463,244.892136 629.172119,248.337860 
	C628.827637,252.425522 631.539185,253.892975 635.190430,253.805237 
	C637.644958,253.746231 640.520325,253.814819 638.987610,250.313095 
	C637.109924,249.247101 634.442627,247.755920 634.553589,246.512711 
	C634.943726,242.142715 636.288757,237.857941 637.022156,234.635849 
	C639.964355,233.302231 641.974731,232.390991 643.985046,231.479752 
	C643.774231,230.929688 643.563354,230.379639 643.352539,229.829590 
	C642.209961,229.829590 641.067444,229.829590 639.151306,229.765671 
M937.693420,248.992645 
	C937.440857,250.340424 937.188232,251.688202 936.857117,253.455307 
	C938.974426,253.324127 940.386108,253.236679 941.769958,253.150955 
	C942.635803,249.266327 943.308716,245.680252 944.250916,242.166367 
	C945.370422,237.991455 947.152954,234.491135 952.273438,233.871017 
	C953.435242,233.730331 954.354614,231.588058 955.385620,230.367096 
	C954.973938,229.846664 954.562195,229.326218 954.150513,228.805786 
	C951.527710,229.792679 948.904907,230.779587 946.584778,231.652603 
	C945.524902,231.073517 944.186401,229.771515 943.378601,230.043793 
	C942.345459,230.392014 941.311279,231.906448 941.025208,233.097794 
	C939.826538,238.090118 938.907166,243.149506 937.693420,248.992645 
M734.135010,238.615128 
	C733.196228,243.385529 732.257507,248.155945 731.310913,252.966309 
	C736.255371,253.410294 736.286255,253.416931 737.126648,249.502823 
	C737.508301,247.725189 737.547485,245.856171 738.077332,244.131638 
	C739.528625,239.407852 740.577087,234.362213 747.115601,233.842255 
	C748.052979,233.767715 748.801758,231.321640 749.637878,229.973099 
	C749.167053,229.536072 748.696289,229.099045 748.225464,228.662018 
	C745.514893,229.894882 742.804382,231.127747 740.748474,232.062851 
	C739.661011,231.272629 738.699524,230.053177 737.716492,230.035568 
	C737.015747,230.022995 736.004517,231.522736 735.632629,232.532120 
	C735.011841,234.216934 734.791748,236.049377 734.135010,238.615128 
M649.712402,229.911331 
	C647.625854,237.538788 645.539307,245.166245 643.396057,253.001053 
	C648.726135,253.308044 648.878540,253.341812 649.656982,249.828171 
	C651.084106,243.387039 652.311768,236.901703 653.689392,230.104858 
	C652.441223,230.006699 651.484253,229.931427 649.712402,229.911331 
M758.798706,231.433395 
	C755.941772,228.925034 754.416626,229.109802 753.630249,232.388748 
	C752.010559,239.141861 750.647461,245.956482 749.098694,253.116058 
	C750.949402,253.116058 752.367310,253.116058 754.217896,253.116058 
	C755.674377,246.180420 757.135803,239.221237 758.798706,231.433395 
M654.554443,221.059143 
	C652.086121,220.363159 650.051941,220.714111 650.117310,223.762833 
	C650.135010,224.587723 651.662720,226.085602 652.461243,226.061813 
	C655.362244,225.975388 655.976013,224.114410 654.554443,221.059143 
M760.855896,222.908463 
	C759.800293,220.183136 757.910217,219.905807 756.082886,221.813461 
	C755.445679,222.478638 755.482788,224.973312 756.111023,225.451767 
	C758.256165,227.085297 760.005920,226.198792 760.855896,222.908463 
z"/>
<path fill="#E6E0D9" opacity="1.000000" stroke="none" 
	d="
M480.124542,101.024567 
	C480.047119,100.163292 479.971954,99.685707 479.700836,97.963295 
	C475.702026,107.576584 472.106323,116.178375 468.544342,124.794121 
	C463.469574,137.069016 458.514648,149.395294 453.236053,161.581619 
	C452.592377,163.067612 450.351685,164.586121 448.703857,164.770020 
	C444.612030,165.226624 440.434998,164.920135 436.197083,164.920135 
	C427.011200,142.844101 417.920624,120.997047 408.830048,99.149994 
	C408.540222,99.211220 408.250397,99.272453 407.960571,99.333679 
	C407.960571,121.042374 407.960571,142.751068 407.960571,164.687195 
	C400.936859,164.687195 394.333954,164.687195 387.363159,164.687195 
	C387.363159,130.017822 387.363159,95.330276 387.363159,60.204300 
	C394.491943,60.204300 401.459808,60.042629 408.406952,60.349613 
	C409.695465,60.406551 411.469147,62.104927 412.059448,63.462814 
	C422.054413,86.455688 431.894043,109.516052 441.782379,132.555344 
	C442.410980,134.019974 443.156830,135.434296 444.228333,137.662704 
	C451.144897,121.504471 457.707245,106.151199 464.288940,90.806221 
	C468.215424,81.651764 472.110687,72.482719 476.185455,63.394436 
	C476.758728,62.115871 478.242706,60.394432 479.362579,60.350719 
	C486.471771,60.073212 493.597107,60.209686 500.928772,60.209686 
	C500.928772,95.310905 500.928772,129.880051 500.928772,164.684875 
	C494.069641,164.684875 487.465302,164.684875 480.126801,164.684875 
	C480.126801,143.570816 480.126801,122.489532 480.124542,101.024567 
z"/>
<path fill="#E5DFD9" opacity="1.000000" stroke="none" 
	d="
M1039.709717,159.786591 
	C1015.784485,175.101532 986.072510,160.906052 981.945740,132.508728 
	C979.882629,118.311920 981.687012,104.930702 991.028748,93.406113 
	C1003.257141,78.320457 1028.812866,74.963219 1046.107666,92.237137 
	C1046.107666,79.292862 1046.107666,66.986435 1046.107666,54.374470 
	C1053.653687,54.374470 1060.541016,54.374470 1067.717773,54.374470 
	C1067.717773,91.105934 1067.717773,127.786102 1067.717773,164.661819 
	C1060.629761,164.661819 1053.737183,164.661819 1046.384155,164.661819 
	C1046.384155,161.163345 1046.384155,157.914597 1046.384155,153.692764 
	C1043.773682,156.093246 1041.885132,157.829742 1039.709717,159.786591 
M1041.833496,139.245697 
	C1043.436890,134.428024 1045.945312,129.707642 1046.475464,124.774628 
	C1048.135864,109.326569 1036.725464,97.726257 1021.973755,99.129311 
	C1010.025818,100.265686 1002.029480,111.000137 1002.806824,125.121895 
	C1003.345276,134.905182 1007.813293,142.324173 1017.015686,146.186172 
	C1025.571411,149.776840 1034.232910,147.323227 1041.833496,139.245697 
z"/>
<path fill="#E5DFD8" opacity="1.000000" stroke="none" 
	d="
M832.939758,80.671104 
	C857.296021,81.208679 873.570435,99.653564 872.041199,125.067230 
	C871.820007,128.743317 870.761963,129.865143 867.061035,129.824356 
	C850.231995,129.638809 833.399719,129.743134 816.568604,129.743210 
	C814.768066,129.743225 812.967468,129.743225 811.180664,129.743225 
	C811.183594,138.191116 815.993286,144.947083 823.557983,147.623077 
	C831.474792,150.423630 840.344849,148.467758 844.822144,142.270264 
	C846.864258,139.443466 848.964539,138.550385 852.238159,138.680359 
	C857.861938,138.903625 863.500977,138.742096 869.715210,138.742096 
	C866.921509,148.362320 861.329285,154.965591 853.587646,160.083176 
	C837.411743,170.776245 803.620239,169.051117 792.561462,141.416229 
	C785.033875,122.605515 790.245483,99.700043 805.177551,88.412231 
	C813.223206,82.330154 822.519897,80.282028 832.939758,80.671104 
M819.597778,115.638084 
	C829.657104,115.638084 839.716492,115.638084 849.751221,115.638084 
	C849.899841,105.418549 842.365967,98.169640 831.861572,97.741432 
	C820.268127,97.268822 811.909973,104.341141 811.297180,115.637955 
	C813.750366,115.637955 816.193787,115.637955 819.597778,115.638084 
z"/>
<path fill="#E5DFD9" opacity="1.000000" stroke="none" 
	d="
M579.656555,133.655731 
	C570.055786,156.310516 560.685425,178.650696 551.123413,200.908539 
	C550.528992,202.292252 548.473877,203.845795 547.022095,203.925156 
	C540.888489,204.260437 534.726013,204.067154 527.673584,204.067154 
	C531.117310,196.051010 534.347656,188.534851 537.574402,181.017120 
	C538.098022,179.797119 538.401245,178.424911 539.152161,177.369034 
	C546.248657,167.390610 544.357666,157.925201 539.478577,147.328354 
	C530.464111,127.749985 522.838257,107.532059 514.645752,87.575706 
	C513.966064,85.919884 513.376160,84.227203 512.597778,82.162231 
	C520.632996,82.162231 528.192932,82.162231 535.937622,82.162231 
	C542.914856,100.948036 549.889221,119.726227 557.300781,139.681458 
	C562.459595,126.003212 567.165283,113.523056 571.873596,101.043884 
	C573.867432,95.759338 576.039246,90.533043 577.786987,85.168472 
	C578.600098,82.672493 579.738586,81.760368 582.358826,81.836601 
	C588.465332,82.014267 594.580566,81.893265 601.362244,81.893265 
	C594.017273,99.447380 586.930359,116.384903 579.656555,133.655731 
z"/>
<path fill="#E5DFD9" opacity="1.000000" stroke="none" 
	d="
M887.196472,104.000076 
	C887.196533,96.533043 887.196533,89.565971 887.196533,82.247238 
	C894.240967,82.247238 900.962463,82.247238 908.118103,82.247238 
	C908.239563,84.919701 908.363892,87.655479 908.486816,90.359886 
	C908.871521,90.465408 909.314453,90.705353 909.423462,90.599945 
	C920.607849,79.783089 933.799011,78.013283 947.683838,83.458549 
	C961.042236,88.697357 966.189575,100.250267 966.586304,113.735886 
	C967.080017,130.519592 966.704712,147.328842 966.704712,164.525146 
	C959.850220,164.525146 953.147766,164.525146 945.817566,164.525146 
	C945.817566,162.619263 945.842651,160.685577 945.813538,158.752716 
	C945.590637,143.952835 945.863770,129.121872 944.954041,114.363991 
	C944.317566,104.039734 937.426147,98.579659 927.357361,98.492699 
	C916.974121,98.403023 909.676086,103.944443 909.064026,114.204376 
	C908.193359,128.799667 908.519043,143.466476 908.342224,158.102829 
	C908.316650,160.217346 908.338684,162.332443 908.338684,164.682251 
	C901.196228,164.682251 894.587891,164.682251 887.196411,164.682251 
	C887.196411,144.633774 887.196411,124.566902 887.196472,104.000076 
z"/>
<path fill="#E5DFD9" opacity="1.000000" stroke="none" 
	d="
M1087.266602,97.609604 
	C1092.226807,86.749550 1101.093140,82.189316 1111.949463,81.039139 
	C1121.298340,80.048683 1130.623413,80.237503 1139.007690,85.446762 
	C1147.046265,90.441261 1151.368652,97.688072 1152.050659,107.556656 
	C1145.420654,107.556656 1139.027588,107.556656 1132.586914,107.556656 
	C1128.529663,98.394020 1123.317505,95.596603 1113.792236,97.497490 
	C1109.867920,98.280640 1106.765747,100.256905 1106.259399,104.385582 
	C1105.757324,108.480835 1108.547119,110.874039 1112.113037,112.045151 
	C1119.360107,114.425179 1126.744995,116.391739 1133.963257,118.851166 
	C1147.087036,123.322708 1153.107544,130.592285 1153.032471,141.385529 
	C1152.958008,152.091187 1146.208862,160.698441 1133.496460,164.224319 
	C1119.612549,168.075134 1106.069824,166.874176 1094.183105,157.697266 
	C1088.282471,153.141769 1084.768433,147.080627 1083.980713,139.081879 
	C1090.999634,139.081879 1097.859985,139.081879 1104.763550,139.081879 
	C1109.103149,148.248627 1116.134888,151.587769 1125.861938,148.883347 
	C1129.633423,147.834763 1132.561279,145.678009 1132.766602,141.371765 
	C1132.957764,137.361938 1130.285522,135.378754 1126.891235,134.294296 
	C1118.364014,131.569839 1109.657837,129.339005 1101.286499,126.207321 
	C1088.111450,121.278633 1083.451416,111.510254 1087.266602,97.609604 
z"/>
<path fill="#E5DFD9" opacity="1.000000" stroke="none" 
	d="
M612.954590,137.000000 
	C612.954590,111.229172 612.954590,85.958336 612.954590,60.442848 
	C634.543274,60.442848 655.638550,60.442848 677.077271,60.442848 
	C677.077271,65.888634 677.077271,71.300255 677.077271,77.069359 
	C662.813293,77.069359 648.703186,77.069359 634.229309,77.069359 
	C634.229309,86.109207 634.229309,94.801987 634.229309,103.963234 
	C645.117188,103.963234 655.861694,103.963234 666.869995,103.963234 
	C666.869995,109.659737 666.869995,114.893341 666.869995,120.615189 
	C655.930176,120.615189 645.180115,120.615189 633.950684,120.615189 
	C633.950684,135.494614 633.950684,149.900116 633.950684,164.610535 
	C626.886658,164.610535 620.302612,164.610535 612.954590,164.610535 
	C612.954590,155.656921 612.954590,146.578461 612.954590,137.000000 
z"/>
<path fill="#E5DFD9" opacity="1.000000" stroke="none" 
	d="
M692.166626,105.000015 
	C692.166626,97.202278 692.166626,89.904518 692.166626,82.250900 
	C699.183289,82.250900 705.882751,82.250900 712.931885,82.250900 
	C712.931885,85.900887 712.931885,89.497284 712.931885,94.335274 
	C720.103027,85.800797 727.758118,80.256096 738.730835,80.959198 
	C738.730835,88.171036 738.730835,95.237045 738.730835,102.978096 
	C735.466980,102.978096 732.337219,102.788322 729.237732,103.013939 
	C720.195984,103.672081 714.771545,108.142296 714.033447,117.095306 
	C713.133728,128.008545 713.303955,139.012192 713.082764,149.978165 
	C712.986084,154.772003 713.066528,159.569412 713.066528,164.641266 
	C706.110535,164.641266 699.523193,164.641266 692.166626,164.641266 
	C692.166626,144.955978 692.166626,125.227989 692.166626,105.000015 
z"/>
<path fill="#E8E2DB" opacity="1.000000" stroke="none" 
	d="
M773.998352,126.000000 
	C773.998352,139.108871 773.998352,151.717743 773.998352,164.619858 
	C766.957214,164.619858 760.245483,164.619858 753.266357,164.619858 
	C753.266357,137.164413 753.266357,109.818336 753.266357,82.185669 
	C760.049805,82.185669 766.762329,82.185669 773.998352,82.185669 
	C773.998352,96.675758 773.998352,111.087883 773.998352,126.000000 
z"/>
<path fill="#E3DDD7" opacity="1.000000" stroke="none" 
	d="
M750.819946,60.769630 
	C750.525146,54.706047 753.074585,50.574959 758.173401,48.531258 
	C763.228149,46.505211 768.370117,46.842018 772.615051,50.744129 
	C776.372498,54.198036 777.496765,58.560768 775.972229,63.469185 
	C774.381348,68.591240 768.886292,72.205078 763.212402,71.981384 
	C756.758057,71.726906 752.507141,68.014687 750.819946,60.769630 
z"/>
<path fill="#DCD6D1" opacity="1.000000" stroke="none" 
	d="
M678.077271,258.749634 
	C678.004822,258.206818 677.942261,258.005646 678.013184,257.879700 
	C680.645081,253.208679 683.289307,248.544601 686.013306,243.735886 
	C683.332031,240.424362 683.146790,236.790619 685.601196,233.295547 
	C688.154053,229.660202 691.800110,228.719742 696.145752,229.479843 
	C698.993713,229.977966 701.936523,229.934143 705.233887,231.194839 
	C703.917786,232.078644 702.601746,232.962448 701.285706,233.846252 
	C701.599365,233.983231 701.913086,234.120209 702.226746,234.257187 
	C700.580994,237.423264 699.607239,241.374191 697.093384,243.526276 
	C694.756348,245.526962 690.777710,245.610062 687.521790,246.537384 
	C687.557373,247.069717 687.593018,247.602051 687.628601,248.134384 
	C689.579468,248.542068 691.517273,249.034393 693.484192,249.338226 
	C696.707764,249.836197 699.853333,251.232819 699.616333,254.635101 
	C699.438171,257.192810 697.731018,260.422546 695.665527,261.920563 
	C690.037476,266.002319 681.645203,264.332855 678.077271,258.749634 
M683.562195,259.087341 
	C686.431030,259.251251 689.382080,259.853760 692.123901,259.339874 
	C693.076721,259.161285 693.511536,256.219330 694.182983,254.539444 
	C691.473328,254.191559 688.665466,253.285934 686.096802,253.738434 
	C684.869995,253.954559 684.097412,256.748871 683.562195,259.087341 
M695.809509,233.895309 
	C692.249756,231.379349 690.130859,233.322098 689.388489,236.577835 
	C689.032654,238.138199 690.160095,241.440628 691.110657,241.644302 
	C694.631836,242.398727 695.870361,239.771973 696.113892,236.649429 
	C696.164246,236.003326 696.085571,235.347137 695.809509,233.895309 
z"/>
<path fill="#DAD5D1" opacity="1.000000" stroke="none" 
	d="
M1036.041748,253.176666 
	C1031.408081,248.168930 1031.826294,238.382294 1036.552246,232.906006 
	C1040.043701,228.860275 1044.231201,228.437393 1049.551880,231.810043 
	C1050.466675,227.963638 1051.358765,224.212814 1052.282715,220.327423 
	C1053.844482,220.327423 1055.255249,220.327423 1057.122925,220.327423 
	C1054.961304,230.710678 1052.906738,240.767014 1050.717651,250.793976 
	C1050.509766,251.745880 1049.499268,253.172562 1048.791870,253.214783 
	C1047.699463,253.280014 1046.546997,252.339783 1046.058716,252.117203 
	C1042.585083,252.558075 1039.487671,252.951202 1036.041748,253.176666 
M1038.270264,240.302551 
	C1038.093140,241.779434 1037.588867,243.311234 1037.824951,244.718811 
	C1038.097534,246.343292 1038.844971,249.036102 1039.703613,249.165909 
	C1041.299194,249.407181 1043.903198,248.619476 1044.691895,247.375427 
	C1046.306030,244.829544 1047.403442,241.765518 1047.897827,238.779755 
	C1048.150146,237.256256 1046.637573,235.440552 1045.922729,233.756958 
	C1043.974487,234.636276 1041.895020,235.317444 1040.136108,236.482605 
	C1039.318237,237.024384 1039.122925,238.505905 1038.270264,240.302551 
z"/>
<path fill="#DDD8D2" opacity="1.000000" stroke="none" 
	d="
M830.702271,244.681152 
	C830.091919,247.177109 829.723816,249.320419 828.991028,251.330795 
	C828.686584,252.166077 827.538818,253.321884 826.889771,253.252609 
	C825.976196,253.155090 825.169800,252.053406 823.927856,251.073608 
	C823.496338,251.397934 822.583679,252.284897 821.504761,252.859680 
	C817.030945,255.243042 811.964294,253.390457 811.800537,248.431168 
	C811.640259,243.576340 812.646606,238.177750 814.832581,233.877930 
	C817.598816,228.436813 822.588928,228.143921 828.147827,231.937622 
	C828.635254,229.939606 829.100647,228.089432 829.535889,226.232162 
	C829.987610,224.304840 830.410156,222.370667 830.875793,220.304855 
	C832.461975,220.304855 833.890808,220.304855 835.757874,220.304855 
	C834.062439,228.497452 832.429932,236.386185 830.702271,244.681152 
M816.512146,247.607101 
	C818.504944,250.797470 821.270691,250.300964 822.911011,247.910461 
	C824.777466,245.190582 825.973816,241.823990 826.661011,238.569473 
	C826.956482,237.170273 825.397095,234.119171 824.396423,233.988205 
	C822.699951,233.766144 819.751770,234.802628 819.153259,236.131409 
	C817.652161,239.464172 817.171631,243.256546 816.512146,247.607101 
z"/>
<path fill="#DCD7D2" opacity="1.000000" stroke="none" 
	d="
M978.436340,233.427505 
	C977.127380,234.756989 975.776306,235.967255 975.421753,237.420624 
	C973.849304,243.866913 972.641418,250.401123 971.147766,256.868011 
	C969.987305,261.892426 966.480896,264.667206 962.413086,263.823303 
	C961.553711,263.645020 960.468140,262.663147 960.269653,261.858490 
	C960.136719,261.319550 961.381348,260.435425 962.017944,259.713165 
	C963.613953,257.902313 966.085754,256.331757 966.651855,254.243469 
	C968.423584,247.707092 969.476990,240.976013 970.858704,234.070374 
	C969.708130,233.632736 968.559875,233.195984 967.081299,232.633575 
	C967.739136,231.892868 968.147217,231.430328 968.558594,230.970718 
	C969.986206,229.375458 971.973389,228.010757 972.740540,226.144363 
	C975.212524,220.130188 978.264832,218.682007 984.931946,221.178040 
	C985.001526,226.264542 975.417908,222.331863 977.701416,229.483063 
	C978.693604,229.677292 980.070923,229.946945 982.905457,230.501831 
	C980.959839,231.902939 979.906372,232.661575 978.436340,233.427505 
z"/>
<path fill="#DDD8D2" opacity="1.000000" stroke="none" 
	d="
M729.867859,229.858795 
	C730.028442,231.044769 729.712585,233.250885 729.601440,233.240631 
	C725.588196,232.870026 725.659180,235.832336 725.117249,238.414993 
	C723.787048,244.754654 722.469604,251.100342 720.946167,257.394958 
	C719.941895,261.544434 717.408020,264.284576 712.797302,263.809814 
	C711.692871,263.696106 710.722290,262.281677 709.750916,260.808380 
	C715.262146,260.096954 716.379089,256.630615 717.089233,252.390579 
	C718.101257,246.347382 719.622986,240.389557 720.974854,234.175125 
	C719.717224,233.649124 718.576599,233.172073 717.074890,232.544006 
	C717.954346,231.779236 718.589478,231.304153 719.131531,230.739685 
	C720.295776,229.527115 721.915283,228.456955 722.462097,226.996597 
	C725.004456,220.206924 727.308167,218.907211 735.265015,221.984146 
	C733.859314,222.701294 732.306396,223.230225 731.086243,224.184601 
	C729.658997,225.301025 728.521729,226.788269 727.258667,228.114624 
	C728.001404,228.691559 728.744141,229.268509 729.867859,229.858795 
z"/>
<path fill="#DAD5D1" opacity="1.000000" stroke="none" 
	d="
M1026.992554,233.155762 
	C1029.626099,240.004593 1028.510498,245.940948 1023.707825,250.880463 
	C1020.369141,254.314331 1015.975952,254.877197 1011.775696,252.753677 
	C1007.521912,250.603088 1006.621643,246.505157 1007.383240,242.100784 
	C1009.027222,232.593918 1015.184204,227.569458 1022.397034,229.911316 
	C1024.010010,230.435028 1025.339844,231.830963 1026.992554,233.155762 
M1012.768188,241.858124 
	C1012.780640,244.837448 1011.343323,248.714081 1015.969849,249.388763 
	C1020.454590,250.042770 1022.136292,246.398666 1022.713379,242.995590 
	C1023.240173,239.889328 1024.905518,235.815079 1020.501709,233.850510 
	C1017.441711,232.485367 1014.614319,235.275070 1012.768188,241.858124 
z"/>
<path fill="#DCD7D2" opacity="1.000000" stroke="none" 
	d="
M577.622986,252.287354 
	C575.923889,252.935516 574.384094,253.230850 572.222290,253.645477 
	C573.303955,248.279007 574.428833,243.659409 575.074768,238.973816 
	C575.301941,237.325714 574.355286,235.515793 573.944580,233.779755 
	C572.090881,234.592712 569.233032,234.925766 568.572021,236.308762 
	C566.603088,240.428574 565.026123,244.873703 564.197266,249.358292 
	C563.489014,253.190384 561.980164,254.170319 558.237610,252.931198 
	C559.755676,245.994217 561.201294,239.052475 562.870178,232.164810 
	C563.090637,231.254959 564.408020,230.093033 565.293091,230.024353 
	C566.013733,229.968430 566.847839,231.374420 567.877258,232.369629 
	C568.715332,231.822098 569.989258,230.773926 571.434387,230.084747 
	C576.580017,227.630768 581.156433,230.581833 580.557434,236.262482 
	C580.002441,241.525528 578.735596,246.713516 577.622986,252.287354 
z"/>
<path fill="#DAD5D1" opacity="1.000000" stroke="none" 
	d="
M800.583435,242.245300 
	C800.871277,241.184418 801.184387,240.498718 801.081787,239.882233 
	C800.738892,237.823486 800.247070,235.789536 799.812317,233.746078 
	C797.711060,235.036636 794.631287,235.847443 793.713989,237.718445 
	C791.852539,241.515305 790.905334,245.834732 790.067200,250.035690 
	C789.385803,253.450684 787.744751,254.049545 784.296204,252.801743 
	C785.821045,245.890259 787.295166,238.961853 788.939331,232.074036 
	C789.141663,231.226486 790.414429,229.893951 790.908630,230.008194 
	C791.992981,230.258881 792.896362,231.292923 794.200317,232.245834 
	C794.870361,231.781677 795.992310,230.425232 797.285095,230.235992 
	C799.586487,229.899078 802.474121,229.494507 804.207520,230.575684 
	C805.724060,231.521591 806.833740,234.550598 806.645325,236.517822 
	C806.173035,241.449402 805.114136,246.374359 803.719727,251.134735 
	C803.352905,252.386841 800.908203,253.030304 799.417725,253.953262 
	C799.124268,253.584930 798.830811,253.216583 798.537415,252.848236 
	C799.164368,249.449554 799.791321,246.050873 800.583435,242.245300 
z"/>
<path fill="#DCD6D1" opacity="1.000000" stroke="none" 
	d="
M539.143433,244.380402 
	C538.753479,246.579163 538.354675,248.364838 538.083679,250.169724 
	C537.563904,253.631500 535.587524,254.044434 532.361694,252.758377 
	C533.856750,245.791245 535.294373,238.830383 536.911011,231.911362 
	C537.098328,231.109619 538.466797,229.863876 538.959961,230.001144 
	C540.038452,230.301315 540.906250,231.358337 542.110168,232.302322 
	C542.830261,231.816635 543.961731,230.501450 545.269409,230.293289 
	C547.570435,229.927017 550.578125,229.383499 552.174927,230.503647 
	C553.782227,231.631210 554.875793,234.764069 554.700195,236.895187 
	C554.335632,241.322311 552.754822,245.634689 552.106750,250.057632 
	C551.577759,253.667816 549.813293,253.982834 546.536072,252.763519 
	C547.451111,248.044815 548.533447,243.367722 549.175476,238.630936 
	C549.382812,237.101486 548.432800,235.415161 548.012207,233.800598 
	C546.280762,234.481186 543.886902,234.678467 542.961609,235.947006 
	C541.251038,238.292114 540.400757,241.264755 539.143433,244.380402 
z"/>
<path fill="#DCD6D1" opacity="1.000000" stroke="none" 
	d="
M664.955688,238.101410 
	C663.749084,242.284103 662.520203,246.064972 661.700623,249.932587 
	C661.047424,253.014984 659.659729,254.238663 655.969421,252.862778 
	C657.444519,245.933716 658.884583,238.881927 660.520874,231.875992 
	C660.708496,231.072754 662.104553,229.891037 662.744019,230.003281 
	C663.800537,230.188721 664.697021,231.285782 665.928772,232.196732 
	C666.651611,231.717407 667.811401,230.752823 669.128174,230.109955 
	C674.086487,227.689423 678.575562,230.345032 678.093628,235.838623 
	C677.589111,241.588531 676.209473,247.261627 675.179321,253.157532 
	C673.406982,253.157532 671.981506,253.157532 670.415527,253.157532 
	C670.317444,252.704178 670.063477,252.227402 670.150513,251.824234 
	C671.025085,247.772507 672.188965,243.765778 672.766052,239.675095 
	C673.030151,237.803162 672.170105,235.772614 671.819946,233.813995 
	C669.856445,234.704285 667.873718,235.556046 665.945618,236.517349 
	C665.560181,236.709518 665.383118,237.319611 664.955688,238.101410 
z"/>
<path fill="#DCD7D2" opacity="1.000000" stroke="none" 
	d="
M508.053040,242.304550 
	C509.339447,236.309738 511.352905,231.382965 517.661682,229.725494 
	C523.797791,228.113373 529.286438,231.633453 528.829590,237.861099 
	C528.519409,242.089325 527.116577,246.636230 524.883850,250.218857 
	C522.358948,254.270309 517.582825,254.785187 513.209106,253.031952 
	C508.695526,251.222687 507.621735,247.235565 508.053040,242.304550 
M519.674377,233.662964 
	C514.973450,235.557785 511.596039,242.126755 513.601318,246.542831 
	C514.237244,247.943207 517.964783,249.558609 518.254639,249.239319 
	C520.440918,246.830719 522.775269,244.180435 523.770569,241.177170 
	C524.685120,238.417587 525.040649,234.645630 519.674377,233.662964 
z"/>
<path fill="#DCD6D1" opacity="1.000000" stroke="none" 
	d="
M497.615662,249.132538 
	C499.150909,248.873672 500.267029,248.674896 501.541229,248.447983 
	C502.727142,251.557617 501.640594,252.885651 498.425079,253.493530 
	C488.106842,255.444031 482.488617,250.688080 482.831207,240.036865 
	C483.289764,225.780426 494.922546,218.070053 507.550507,223.687073 
	C507.175903,226.612961 505.769989,227.656708 502.782776,226.709412 
	C497.894287,225.159241 493.797607,226.618057 491.070709,230.896286 
	C488.107422,235.545456 486.677948,240.644485 489.041260,246.024475 
	C490.625580,249.631149 493.940247,249.507690 497.615662,249.132538 
z"/>
<path fill="#DCD7D2" opacity="1.000000" stroke="none" 
	d="
M877.808472,229.699539 
	C885.572876,228.853653 889.105896,232.021515 889.025024,239.311584 
	C888.940491,246.929916 885.172546,252.423386 879.241638,253.575287 
	C872.841553,254.818314 868.101501,250.988144 868.012085,244.501221 
	C867.911682,237.219986 871.070374,232.300552 877.808472,229.699539 
M875.201904,249.090652 
	C880.955017,249.810043 884.276978,246.256439 883.936340,239.096451 
	C883.851318,237.309677 882.358704,234.294693 881.218323,234.148819 
	C879.386047,233.914429 876.479248,235.063660 875.499146,236.580048 
	C873.141541,240.227966 871.814575,244.439316 875.201904,249.090652 
z"/>
<path fill="#DDD8D2" opacity="1.000000" stroke="none" 
	d="
M996.960693,252.154541 
	C992.201477,254.534470 987.896057,254.696609 984.264771,250.919250 
	C980.974426,247.496567 981.231934,240.479645 984.652344,234.997925 
	C987.265381,230.810242 991.075195,228.662247 996.026062,229.497528 
	C1000.261719,230.212158 1002.785828,232.821182 1003.042175,237.329910 
	C1003.370544,243.104324 1002.200867,248.260864 996.960693,252.154541 
M993.607971,249.114914 
	C997.478333,246.418671 998.379639,242.403610 997.955200,238.134933 
	C997.804138,236.615646 996.559448,234.428360 995.316467,234.004333 
	C993.969482,233.544815 991.203918,234.280746 990.535950,235.387726 
	C988.967224,237.987549 987.767273,241.051224 987.368103,244.053497 
	C986.883972,247.694260 988.467834,250.303940 993.607971,249.114914 
z"/>
<path fill="#DAD5D1" opacity="1.000000" stroke="none" 
	d="
M767.306885,244.780853 
	C768.866455,252.633743 774.325073,248.857559 779.203674,248.832718 
	C778.660339,250.320374 778.383728,252.297516 777.837585,252.375031 
	C774.313782,252.875046 770.385742,253.943268 767.283203,252.853134 
	C765.024292,252.059418 762.808716,248.408218 762.359375,245.731277 
	C761.194092,238.788010 765.298401,232.151688 771.080811,229.969910 
	C775.701355,228.226501 780.505371,229.759048 781.722473,233.364716 
	C782.979553,237.088898 780.344299,241.188492 775.497070,242.642242 
	C772.847961,243.436737 770.074951,243.818436 767.306885,244.780853 
M774.266479,238.932190 
	C775.125366,237.529449 775.984192,236.126724 776.843018,234.723953 
	C775.921570,234.202560 774.534607,233.007858 774.155029,233.270279 
	C771.884155,234.840179 769.845276,236.745621 767.728577,238.538544 
	C768.077759,239.026962 768.426941,239.515381 768.776062,240.003815 
	C770.357910,239.711166 771.939697,239.418533 774.266479,238.932190 
z"/>
<path fill="#DCD6D1" opacity="1.000000" stroke="none" 
	d="
M595.932739,249.778381 
	C597.927734,249.456223 599.520874,249.146317 602.141174,248.636597 
	C601.413635,250.452759 601.294250,251.914413 600.514099,252.508667 
	C595.639526,256.221649 587.030212,253.276184 585.356506,247.455490 
	C583.319336,240.371216 588.255920,231.350357 595.169922,229.523010 
	C599.375061,228.411591 603.937195,230.218124 604.735291,233.612244 
	C605.749878,237.927109 603.507385,240.756546 599.633667,242.084335 
	C596.708374,243.087036 593.564514,243.452194 590.289551,244.149734 
	C590.272156,247.854706 591.662842,249.938293 595.932739,249.778381 
M596.005371,233.312561 
	C594.216858,235.165359 592.428345,237.018173 590.639832,238.870987 
	C590.928345,239.255646 591.216858,239.640305 591.505371,240.024963 
	C593.537354,239.605713 595.711548,239.495316 597.547363,238.650024 
	C598.627686,238.152573 599.170715,236.488281 599.955383,235.348785 
	C598.885193,234.618851 597.814941,233.888931 596.005371,233.312561 
z"/>
<path fill="#DAD5D1" opacity="1.000000" stroke="none" 
	d="
M933.939575,237.954437 
	C929.516907,240.608444 925.203064,242.913361 920.226990,245.572128 
	C920.116394,250.001480 921.712952,250.708359 931.626770,249.570877 
	C930.477417,250.806076 929.548523,252.696136 928.142639,253.169357 
	C919.535583,256.066650 914.079956,251.561493 914.926758,242.471848 
	C915.475464,236.582382 917.974976,231.975952 923.843689,229.877426 
	C930.450439,227.515045 934.425171,230.568192 933.939575,237.954437 
M927.953918,233.323059 
	C923.578186,233.140045 921.632446,235.510620 920.997498,239.627197 
	C928.381165,239.421768 929.799561,238.259888 927.953918,233.323059 
z"/>
<path fill="#DCD6D1" opacity="1.000000" stroke="none" 
	d="
M899.680176,253.423737 
	C898.150635,252.473145 896.174255,251.654114 895.996521,250.546509 
	C894.926208,243.874512 894.267944,237.136398 893.436157,230.119049 
	C895.215149,230.119049 896.627808,230.119049 898.397827,230.119049 
	C898.899963,235.614212 899.393982,241.020691 900.023804,247.913788 
	C902.436707,243.275635 904.057312,239.747391 906.053162,236.446030 
	C907.872253,233.437027 908.239441,228.193115 914.526245,230.408981 
	C910.535400,237.841644 906.669739,245.139557 902.652344,252.352890 
	C902.296570,252.991577 900.950562,253.078659 899.680176,253.423737 
z"/>
<path fill="#DAD5D1" opacity="1.000000" stroke="none" 
	d="
M841.994873,249.873962 
	C843.653931,249.007629 845.797913,248.259094 845.930298,247.247299 
	C846.081726,246.090378 844.576965,244.577454 843.540283,243.450592 
	C842.783264,242.627563 841.172424,242.404739 840.724609,241.518829 
	C839.609619,239.313416 837.683289,236.340668 838.400696,234.673294 
	C839.379883,232.397430 842.290039,230.173874 844.779541,229.548447 
	C847.197998,228.940857 850.142395,230.332565 852.812866,231.014526 
	C853.010986,231.065125 853.114319,232.600327 852.801514,233.208923 
	C852.519043,233.758698 851.637146,234.187119 850.961243,234.291565 
	C850.374512,234.382202 849.673096,233.702744 849.080078,233.784164 
	C847.127625,234.052246 845.201355,234.511322 843.265015,234.897064 
	C844.259705,236.386429 844.944885,238.301361 846.303894,239.289703 
	C851.503601,243.071106 852.969604,246.539261 850.488586,250.320404 
	C848.293762,253.665375 839.795654,255.367325 836.320618,252.844955 
	C835.339600,252.132904 835.236816,250.210968 834.599548,248.488007 
	C837.460510,249.055756 839.525818,249.465607 841.994873,249.873962 
z"/>
<path fill="#DAD5D1" opacity="1.000000" stroke="none" 
	d="
M608.986816,239.267334 
	C612.773132,229.987915 617.533569,227.641144 626.951111,231.687378 
	C625.618713,232.398376 624.248596,233.780167 622.960388,233.707642 
	C616.365845,233.336304 610.871338,240.969284 613.872192,246.976913 
	C614.509827,248.253464 616.574890,249.202713 618.140747,249.519211 
	C619.644531,249.823120 621.353821,249.110382 624.071289,249.777313 
	C623.096375,250.943298 622.344421,252.733978 621.110596,253.174362 
	C612.778137,256.148346 606.715820,250.803024 608.295776,242.065552 
	C608.442505,241.253891 608.711914,240.464417 608.986816,239.267334 
z"/>
<path fill="#DCD6D1" opacity="1.000000" stroke="none" 
	d="
M639.538086,229.797638 
	C641.067444,229.829590 642.209961,229.829590 643.352539,229.829590 
	C643.563354,230.379639 643.774231,230.929688 643.985046,231.479752 
	C641.974731,232.390991 639.964355,233.302231 637.022156,234.635849 
	C636.288757,237.857941 634.943726,242.142715 634.553589,246.512711 
	C634.442627,247.755920 637.109924,249.247101 638.987610,250.313095 
	C640.520325,253.814819 637.644958,253.746231 635.190430,253.805237 
	C631.539185,253.892975 628.827637,252.425522 629.172119,248.337860 
	C629.462463,244.892136 630.390747,241.498978 631.056824,238.086487 
	C631.513000,235.750061 633.705383,232.785095 626.936096,233.157120 
	C628.430420,233.703781 629.924805,234.250458 631.419128,234.797134 
	C633.658264,231.431030 635.897400,228.064926 638.066895,224.803452 
	C638.404846,226.349976 638.778076,228.057816 639.538086,229.797638 
z"/>
<path fill="#DCD6D1" opacity="1.000000" stroke="none" 
	d="
M937.789429,248.588501 
	C938.907166,243.149506 939.826538,238.090118 941.025208,233.097794 
	C941.311279,231.906448 942.345459,230.392014 943.378601,230.043793 
	C944.186401,229.771515 945.524902,231.073517 946.584778,231.652603 
	C948.904907,230.779587 951.527710,229.792679 954.150513,228.805786 
	C954.562195,229.326218 954.973938,229.846664 955.385620,230.367096 
	C954.354614,231.588058 953.435242,233.730331 952.273438,233.871017 
	C947.152954,234.491135 945.370422,237.991455 944.250916,242.166367 
	C943.308716,245.680252 942.635803,249.266327 941.769958,253.150955 
	C940.386108,253.236679 938.974426,253.324127 936.857117,253.455307 
	C937.188232,251.688202 937.440857,250.340424 937.789429,248.588501 
z"/>
<path fill="#DCD7D2" opacity="1.000000" stroke="none" 
	d="
M734.269043,238.217407 
	C734.791748,236.049377 735.011841,234.216934 735.632629,232.532120 
	C736.004517,231.522736 737.015747,230.022995 737.716492,230.035568 
	C738.699524,230.053177 739.661011,231.272629 740.748474,232.062851 
	C742.804382,231.127747 745.514893,229.894882 748.225464,228.662018 
	C748.696289,229.099045 749.167053,229.536072 749.637878,229.973099 
	C748.801758,231.321640 748.052979,233.767715 747.115601,233.842255 
	C740.577087,234.362213 739.528625,239.407852 738.077332,244.131638 
	C737.547485,245.856171 737.508301,247.725189 737.126648,249.502823 
	C736.286255,253.416931 736.255371,253.410294 731.310913,252.966309 
	C732.257507,248.155945 733.196228,243.385529 734.269043,238.217407 
z"/>
<path fill="#DDD8D2" opacity="1.000000" stroke="none" 
	d="
M650.119873,229.883743 
	C651.484253,229.931427 652.441223,230.006699 653.689392,230.104858 
	C652.311768,236.901703 651.084106,243.387039 649.656982,249.828171 
	C648.878540,253.341812 648.726135,253.308044 643.396057,253.001053 
	C645.539307,245.166245 647.625854,237.538788 650.119873,229.883743 
z"/>
<path fill="#DCD7D2" opacity="1.000000" stroke="none" 
	d="
M758.697998,231.847717 
	C757.135803,239.221237 755.674377,246.180420 754.217896,253.116058 
	C752.367310,253.116058 750.949402,253.116058 749.098694,253.116058 
	C750.647461,245.956482 752.010559,239.141861 753.630249,232.388748 
	C754.416626,229.109802 755.941772,228.925034 758.697998,231.847717 
z"/>
<path fill="#DAD5D1" opacity="1.000000" stroke="none" 
	d="
M654.788879,221.317322 
	C655.976013,224.114410 655.362244,225.975388 652.461243,226.061813 
	C651.662720,226.085602 650.135010,224.587723 650.117310,223.762833 
	C650.051941,220.714111 652.086121,220.363159 654.788879,221.317322 
z"/>
<path fill="#DAD5D1" opacity="1.000000" stroke="none" 
	d="
M760.857178,223.276917 
	C760.005920,226.198792 758.256165,227.085297 756.111023,225.451767 
	C755.482788,224.973312 755.445679,222.478638 756.082886,221.813461 
	C757.910217,219.905807 759.800293,220.183136 760.857178,223.276917 
z"/>
<path fill="#1E2341" opacity="1.000000" stroke="none" 
	d="
M1041.614136,139.536850 
	C1034.232910,147.323227 1025.571411,149.776840 1017.015686,146.186172 
	C1007.813293,142.324173 1003.345276,134.905182 1002.806824,125.121895 
	C1002.029480,111.000137 1010.025818,100.265686 1021.973755,99.129311 
	C1036.725464,97.726257 1048.135864,109.326569 1046.475464,124.774628 
	C1045.945312,129.707642 1043.436890,134.428024 1041.614136,139.536850 
z"/>
<path fill="#242945" opacity="1.000000" stroke="none" 
	d="
M819.117493,115.638016 
	C816.193787,115.637955 813.750366,115.637955 811.297180,115.637955 
	C811.909973,104.341141 820.268127,97.268822 831.861572,97.741432 
	C842.365967,98.169640 849.899841,105.418549 849.751221,115.638084 
	C839.716492,115.638084 829.657104,115.638084 819.117493,115.638016 
z"/>
<path fill="#282D48" opacity="1.000000" stroke="none" 
	d="
M683.340637,258.731384 
	C684.097412,256.748871 684.869995,253.954559 686.096802,253.738434 
	C688.665466,253.285934 691.473328,254.191559 694.182983,254.539459 
	C693.511536,256.219330 693.076721,259.161285 692.123901,259.339874 
	C689.382080,259.853760 686.431030,259.251251 683.340637,258.731384 
z"/>
<path fill="#282D48" opacity="1.000000" stroke="none" 
	d="
M695.937927,234.295456 
	C696.085571,235.347137 696.164246,236.003326 696.113892,236.649429 
	C695.870361,239.771973 694.631836,242.398727 691.110657,241.644302 
	C690.160095,241.440628 689.032654,238.138199 689.388489,236.577835 
	C690.130859,233.322098 692.249756,231.379349 695.937927,234.295456 
z"/>
<path fill="#242945" opacity="1.000000" stroke="none" 
	d="
M1038.457764,239.931976 
	C1039.122925,238.505905 1039.318237,237.024384 1040.136108,236.482605 
	C1041.895020,235.317444 1043.974487,234.636276 1045.922729,233.756958 
	C1046.637573,235.440552 1048.150146,237.256256 1047.897827,238.779755 
	C1047.403442,241.765518 1046.306030,244.829544 1044.691895,247.375427 
	C1043.903198,248.619476 1041.299194,249.407181 1039.703613,249.165909 
	C1038.844971,249.036102 1038.097534,246.343292 1037.824951,244.718811 
	C1037.588867,243.311234 1038.093140,241.779434 1038.457764,239.931976 
z"/>
<path fill="#282D48" opacity="1.000000" stroke="none" 
	d="
M816.396973,247.235840 
	C817.171631,243.256546 817.652161,239.464172 819.153259,236.131409 
	C819.751770,234.802628 822.699951,233.766144 824.396423,233.988205 
	C825.397095,234.119171 826.956482,237.170273 826.661011,238.569473 
	C825.973816,241.823990 824.777466,245.190582 822.911011,247.910461 
	C821.270691,250.300964 818.504944,250.797470 816.396973,247.235840 
z"/>
<path fill="#222744" opacity="1.000000" stroke="none" 
	d="
M1012.814941,241.424667 
	C1014.614319,235.275070 1017.441711,232.485367 1020.501709,233.850510 
	C1024.905518,235.815079 1023.240173,239.889328 1022.713379,242.995590 
	C1022.136292,246.398666 1020.454590,250.042770 1015.969849,249.388763 
	C1011.343323,248.714081 1012.780640,244.837448 1012.814941,241.424667 
z"/>
<path fill="#242945" opacity="1.000000" stroke="none" 
	d="
M520.094238,233.655991 
	C525.040649,234.645630 524.685120,238.417587 523.770569,241.177170 
	C522.775269,244.180435 520.440918,246.830719 518.254639,249.239319 
	C517.964783,249.558609 514.237244,247.943207 513.601318,246.542831 
	C511.596039,242.126755 514.973450,235.557785 520.094238,233.655991 
z"/>
<path fill="#242945" opacity="1.000000" stroke="none" 
	d="
M874.874268,248.900986 
	C871.814575,244.439316 873.141541,240.227966 875.499146,236.580048 
	C876.479248,235.063660 879.386047,233.914429 881.218323,234.148819 
	C882.358704,234.294693 883.851318,237.309677 883.936340,239.096451 
	C884.276978,246.256439 880.955017,249.810043 874.874268,248.900986 
z"/>
<path fill="#282D48" opacity="1.000000" stroke="none" 
	d="
M993.258789,249.239166 
	C988.467834,250.303940 986.883972,247.694260 987.368103,244.053497 
	C987.767273,241.051224 988.967224,237.987549 990.535950,235.387726 
	C991.203918,234.280746 993.969482,233.544815 995.316467,234.004333 
	C996.559448,234.428360 997.804138,236.615646 997.955200,238.134933 
	C998.379639,242.403610 997.478333,246.418671 993.258789,249.239166 
z"/>
<path fill="#282D48" opacity="1.000000" stroke="none" 
	d="
M773.894043,239.029053 
	C771.939697,239.418533 770.357910,239.711166 768.776062,240.003815 
	C768.426941,239.515381 768.077759,239.026962 767.728577,238.538544 
	C769.845276,236.745621 771.884155,234.840179 774.155029,233.270279 
	C774.534607,233.007858 775.921570,234.202560 776.843018,234.723969 
	C775.984192,236.126724 775.125366,237.529449 773.894043,239.029053 
z"/>
<path fill="#282D48" opacity="1.000000" stroke="none" 
	d="
M596.375000,233.235779 
	C597.814941,233.888931 598.885193,234.618851 599.955383,235.348801 
	C599.170715,236.488281 598.627686,238.152573 597.547363,238.650024 
	C595.711548,239.495316 593.537354,239.605713 591.505371,240.024963 
	C591.216858,239.640305 590.928345,239.255646 590.639832,238.870987 
	C592.428345,237.018173 594.216858,235.165359 596.375000,233.235779 
z"/>
<path fill="#282D48" opacity="1.000000" stroke="none" 
	d="
M928.266235,233.505325 
	C929.799561,238.259888 928.381165,239.421768 920.997498,239.627197 
	C921.632446,235.510620 923.578186,233.140045 928.266235,233.505325 
z"/>
</svg>