<svg xmlns="http://www.w3.org/2000/svg" version="1.1" xmlns:xlink="http://www.w3.org/1999/xlink" xmlns:svgjs="http://svgjs.dev/svgjs" width="1500" height="614" viewBox="0 0 1500 614"><g transform="matrix(1,0,0,1,-1.8351063829786654,-1.679749303896017)"><svg viewBox="0 0 376 154" data-background-color="#e9e2da" preserveAspectRatio="xMidYMid meet" height="614" width="1500" xmlns="http://www.w3.org/2000/svg" xmlns:xlink="http://www.w3.org/1999/xlink"><g id="tight-bounds" transform="matrix(1,0,0,1,0.46023999999999887,0.42140520000000947)"><svg viewBox="0 0 375.07953 153.1572896" height="153.1572896" width="375.07953"><g><svg></svg></g><g><svg viewBox="0 0 375.07953 153.1572896" height="153.1572896" width="375.07953"><g transform="matrix(1,0,0,1,-10.22024,-50.417100000000005)"><path d="M10.22 196.783v-146.366h375.08v146.366h-55.532l0-4.784 50.748 0v-136.798h-365.512v136.798l50.748 0 0 4.784z" fill="#6f605b" fill-rule="nonzero" stroke="none" stroke-width="1" stroke-linecap="butt" stroke-linejoin="miter" stroke-miterlimit="10" stroke-dasharray="" stroke-dashoffset="0" font-family="none" font-weight="none" font-size="none" text-anchor="none" style="mix-blend-mode: normal" data-fill-palette-color="tertiary"></path><g><path transform="translate(78.91629,199.25127) scale(0.35996,0.35996)" d="M22.56-31.2v0c-2.507 0-4.747 0.723-6.72 2.17-1.967 1.447-3.54 3.56-4.72 6.34-1.18 2.773-1.77 5.82-1.77 9.14v0c0 2.927 0.67 5.17 2.01 6.73 1.347 1.553 3.33 2.33 5.95 2.33v0c2.293 0 4.97-0.553 8.03-1.66v0 5c-2.927 1.093-5.97 1.64-9.13 1.64v0c-4.033 0-7.193-1.21-9.48-3.63-2.287-2.413-3.43-5.803-3.43-10.17v0c0-4.227 0.857-8.157 2.57-11.79 1.72-3.627 4.01-6.383 6.87-8.27 2.867-1.893 6.14-2.84 9.82-2.84v0c3.533 0 6.7 0.75 9.5 2.25v0l-2.3 4.76c-1.027-0.553-2.117-1.027-3.27-1.42-1.153-0.387-2.463-0.58-3.93-0.58zM50.46-17.14v0c0-1.74-0.397-3.103-1.19-4.09-0.8-0.987-1.94-1.48-3.42-1.48v0c-1.513 0-2.87 0.583-4.07 1.75-1.193 1.167-2.12 2.747-2.78 4.74-0.66 1.993-0.99 4.12-0.99 6.38v0c0 1.807 0.403 3.19 1.21 4.15 0.807 0.96 2 1.44 3.58 1.44v0c1.467 0 2.783-0.553 3.95-1.66 1.173-1.107 2.087-2.657 2.74-4.65 0.647-1.993 0.97-4.187 0.97-6.58zM56.25-16.89v0c0 3.287-0.593 6.277-1.78 8.97-1.187 2.693-2.82 4.76-4.9 6.2-2.073 1.44-4.46 2.16-7.16 2.16v0c-3.127 0-5.61-0.933-7.45-2.8-1.84-1.86-2.76-4.393-2.76-7.6v0c0-3.24 0.583-6.21 1.75-8.91 1.16-2.7 2.79-4.803 4.89-6.31 2.1-1.507 4.527-2.26 7.28-2.26v0c3.173 0 5.653 0.943 7.44 2.83 1.793 1.887 2.69 4.46 2.69 7.72zM81.47 0h-5.76l3.46-16.41c0.293-1.46 0.44-2.523 0.44-3.19v0c0-2.133-1.05-3.2-3.15-3.2v0c-1.167 0-2.32 0.463-3.46 1.39-1.14 0.927-2.167 2.263-3.08 4.01-0.913 1.753-1.597 3.737-2.05 5.95v0l-2.39 11.45h-5.76l5.76-27h4.49l-0.51 5h0.22c1.347-1.92 2.737-3.313 4.17-4.18 1.433-0.873 2.99-1.31 4.67-1.31v0c2.18 0 3.867 0.62 5.06 1.86 1.2 1.233 1.8 2.99 1.8 5.27v0c0 1.12-0.19 2.593-0.57 4.42v0zM110.96 0h-5.76l3.47-16.41c0.293-1.46 0.44-2.523 0.44-3.19v0c0-2.133-1.05-3.2-3.15-3.2v0c-1.173 0-2.33 0.463-3.47 1.39-1.14 0.927-2.167 2.263-3.08 4.01-0.907 1.753-1.59 3.737-2.05 5.95v0l-2.39 11.45h-5.76l5.76-27h4.49l-0.51 5h0.22c1.353-1.92 2.743-3.313 4.17-4.18 1.433-0.873 2.99-1.31 4.67-1.31v0c2.18 0 3.867 0.62 5.06 1.86 1.2 1.233 1.8 2.99 1.8 5.27v0c0 1.12-0.187 2.593-0.56 4.42v0zM133.76-23.1v0c-1.56 0-3.027 0.7-4.4 2.1-1.38 1.4-2.37 3.25-2.97 5.55v0h0.71c3.06 0 5.453-0.437 7.18-1.31 1.727-0.873 2.59-2.107 2.59-3.7v0c0-0.827-0.263-1.473-0.79-1.94-0.52-0.467-1.293-0.7-2.32-0.7zM130.05 0.49v0c-3.207 0-5.707-0.903-7.5-2.71-1.8-1.807-2.7-4.33-2.7-7.57v0c0-3.22 0.63-6.22 1.89-9 1.26-2.773 2.97-4.917 5.13-6.43 2.153-1.513 4.567-2.27 7.24-2.27v0c2.62 0 4.657 0.59 6.11 1.77 1.46 1.18 2.19 2.853 2.19 5.02v0c0 2.96-1.357 5.273-4.07 6.94-2.707 1.673-6.567 2.51-11.58 2.51v0h-1.05l-0.05 0.75v0.71c0 1.807 0.46 3.223 1.38 4.25 0.92 1.027 2.29 1.54 4.11 1.54v0c1.173 0 2.337-0.157 3.49-0.47 1.16-0.307 2.53-0.833 4.11-1.58v0 4.56c-1.567 0.713-3.003 1.223-4.31 1.53-1.313 0.3-2.777 0.45-4.39 0.45zM156.15 0.49v0c-3.187 0-5.66-0.863-7.42-2.59-1.76-1.727-2.64-4.193-2.64-7.4v0c0-3.367 0.6-6.43 1.8-9.19 1.193-2.76 2.873-4.917 5.04-6.47 2.167-1.553 4.623-2.33 7.37-2.33v0c2.673 0 5.09 0.497 7.25 1.49v0l-1.71 4.49c-1.98-0.86-3.777-1.29-5.39-1.29v0c-2.44 0-4.473 1.247-6.1 3.74-1.633 2.5-2.45 5.59-2.45 9.27v0c0 1.807 0.457 3.197 1.37 4.17 0.913 0.98 2.177 1.47 3.79 1.47v0c1.2 0 2.327-0.18 3.38-0.54 1.047-0.353 2.1-0.793 3.16-1.32v0 4.76c-2.28 1.16-4.763 1.74-7.45 1.74zM178.2-4.15v0c1.107 0 2.333-0.253 3.68-0.76v0 4.35c-0.567 0.273-1.337 0.517-2.31 0.73-0.98 0.213-1.957 0.32-2.93 0.32v0c-4.46 0-6.69-2.01-6.69-6.03v0c0-0.927 0.13-1.993 0.39-3.2v0l2.95-13.92h-3.95l0.51-2.68 4.64-2 3.15-5.67h3.56l-1.27 6.01h6.81l-0.95 4.34h-6.76l-2.98 13.97c-0.213 0.893-0.32 1.64-0.32 2.24v0c0 0.7 0.203 1.26 0.61 1.68 0.407 0.413 1.027 0.62 1.86 0.62zM193.51-33.64v0c0-1.107 0.317-2.003 0.95-2.69 0.633-0.68 1.527-1.02 2.68-1.02v0c0.867 0 1.567 0.213 2.1 0.64 0.54 0.433 0.81 1.09 0.81 1.97v0c0 1.153-0.327 2.063-0.98 2.73-0.647 0.667-1.5 1-2.56 1v0c-0.867 0-1.583-0.21-2.15-0.63-0.567-0.427-0.85-1.093-0.85-2zM198.1-27l-5.74 27h-5.76l5.76-27zM222.09 0h-5.76l3.47-16.41c0.293-1.46 0.44-2.523 0.44-3.19v0c0-2.133-1.05-3.2-3.15-3.2v0c-1.173 0-2.33 0.463-3.47 1.39-1.14 0.927-2.163 2.263-3.07 4.01-0.913 1.753-1.597 3.737-2.05 5.95v0l-2.4 11.45h-5.76l5.76-27h4.5l-0.52 5h0.22c1.353-1.92 2.747-3.313 4.18-4.18 1.433-0.873 2.987-1.31 4.66-1.31v0c2.18 0 3.87 0.62 5.07 1.86 1.193 1.233 1.79 2.99 1.79 5.27v0c0 1.12-0.187 2.593-0.56 4.42v0zM247.24-27h9.35l-0.76 3.34-4.68 0.81c0.453 0.94 0.68 2.053 0.68 3.34v0c0 3.147-0.967 5.643-2.9 7.49-1.94 1.847-4.537 2.77-7.79 2.77v0c-0.847 0-1.597-0.067-2.25-0.2v0c-1.807 0.653-2.71 1.5-2.71 2.54v0c0 0.62 0.257 1.043 0.77 1.27 0.513 0.227 1.257 0.407 2.23 0.54v0l3.11 0.39c2.86 0.36 4.91 1.07 6.15 2.13 1.233 1.067 1.85 2.593 1.85 4.58v0c0 3.193-1.227 5.66-3.68 7.4-2.46 1.74-5.953 2.61-10.48 2.61v0c-3.3 0-5.86-0.61-7.68-1.83-1.813-1.22-2.72-2.897-2.72-5.03v0c0-1.673 0.567-3.12 1.7-4.34 1.133-1.227 2.953-2.26 5.46-3.1v0c-1.24-0.733-1.86-1.77-1.86-3.11v0c0-1.12 0.38-2.09 1.14-2.91 0.753-0.827 1.943-1.62 3.57-2.38v0c-2.193-1.32-3.29-3.373-3.29-6.16v0c0-3.187 0.997-5.757 2.99-7.71 1.993-1.953 4.623-2.93 7.89-2.93v0c1.307 0 2.61 0.163 3.91 0.49zM239.94-0.1l-3.34-0.34c-1.827 0.293-3.227 0.87-4.2 1.73-0.98 0.867-1.47 1.933-1.47 3.2v0c0 1.06 0.453 1.903 1.36 2.53 0.9 0.627 2.28 0.94 4.14 0.94v0c2.653 0 4.727-0.44 6.22-1.32 1.5-0.88 2.25-2.14 2.25-3.78v0c0-0.833-0.367-1.487-1.1-1.96-0.733-0.467-2.02-0.8-3.86-1zM243.19-23.66v0c-1.06 0-1.987 0.313-2.78 0.94-0.8 0.627-1.42 1.483-1.86 2.57-0.44 1.08-0.66 2.263-0.66 3.55v0c0 1.153 0.29 2.043 0.87 2.67 0.573 0.627 1.4 0.94 2.48 0.94v0c1.053 0 1.967-0.317 2.74-0.95 0.773-0.633 1.377-1.503 1.81-2.61 0.433-1.107 0.65-2.32 0.65-3.64v0c0-2.313-1.083-3.47-3.25-3.47zM265.87 12.01v0c-1.467 0-2.68-0.187-3.64-0.56v0-4.64c1.04 0.327 1.967 0.49 2.78 0.49v0c2.187 0 3.63-1.67 4.33-5.01v0l5.29-24.95h-4.37l0.52-2.58 4.73-1.86 0.52-2.25c0.713-3.22 1.807-5.51 3.28-6.87 1.473-1.36 3.56-2.04 6.26-2.04v0c1.873 0 3.59 0.35 5.15 1.05v0l-1.49 4.3c-1.2-0.453-2.307-0.68-3.32-0.68v0c-1.12 0-2.017 0.35-2.69 1.05-0.68 0.7-1.197 1.847-1.55 3.44v0l-0.44 2.1h5.59l-0.91 4.34h-5.59l-5.44 25.71c-0.653 3.08-1.72 5.343-3.2 6.79-1.48 1.447-3.417 2.17-5.81 2.17zM304.32-27.49v0c1.007 0 1.887 0.097 2.64 0.29v0l-1.25 5.35c-0.88-0.227-1.71-0.34-2.49-0.34v0c-2.047 0-3.877 0.92-5.49 2.76-1.613 1.84-2.737 4.247-3.37 7.22v0l-2.59 12.21h-5.76l5.76-27h4.49l-0.51 5h0.22c1.353-1.953 2.703-3.357 4.05-4.21 1.353-0.853 2.787-1.28 4.3-1.28zM313.33-33.64v0c0-1.107 0.317-2.003 0.95-2.69 0.633-0.68 1.53-1.02 2.69-1.02v0c0.86 0 1.56 0.213 2.1 0.64 0.533 0.433 0.8 1.09 0.8 1.97v0c0 1.153-0.323 2.063-0.97 2.73-0.653 0.667-1.51 1-2.57 1v0c-0.86 0-1.577-0.21-2.15-0.63-0.567-0.427-0.85-1.093-0.85-2zM317.92-27l-5.74 27h-5.76l5.76-27zM335.23-23.1v0c-1.56 0-3.03 0.7-4.41 2.1-1.373 1.4-2.36 3.25-2.96 5.55v0h0.7c3.06 0 5.453-0.437 7.18-1.31 1.727-0.873 2.59-2.107 2.59-3.7v0c0-0.827-0.26-1.473-0.78-1.94-0.52-0.467-1.293-0.7-2.32-0.7zM331.52 0.49v0c-3.207 0-5.71-0.903-7.51-2.71-1.8-1.807-2.7-4.33-2.7-7.57v0c0-3.22 0.633-6.22 1.9-9 1.26-2.773 2.967-4.917 5.12-6.43 2.16-1.513 4.573-2.27 7.24-2.27v0c2.62 0 4.66 0.59 6.12 1.77 1.453 1.18 2.18 2.853 2.18 5.02v0c0 2.96-1.353 5.273-4.06 6.94-2.713 1.673-6.577 2.51-11.59 2.51v0h-1.05l-0.05 0.75v0.71c0 1.807 0.46 3.223 1.38 4.25 0.92 1.027 2.293 1.54 4.12 1.54v0c1.173 0 2.337-0.157 3.49-0.47 1.153-0.307 2.52-0.833 4.1-1.58v0 4.56c-1.56 0.713-2.997 1.223-4.31 1.53-1.307 0.3-2.767 0.45-4.38 0.45zM368.16 0h-5.76l3.47-16.41c0.293-1.46 0.44-2.523 0.44-3.19v0c0-2.133-1.05-3.2-3.15-3.2v0c-1.173 0-2.33 0.463-3.47 1.39-1.14 0.927-2.163 2.263-3.07 4.01-0.913 1.753-1.597 3.737-2.05 5.95v0l-2.4 11.45h-5.76l5.76-27h4.5l-0.52 5h0.22c1.353-1.92 2.747-3.313 4.18-4.18 1.433-0.873 2.987-1.31 4.66-1.31v0c2.18 0 3.87 0.62 5.07 1.86 1.193 1.233 1.79 2.99 1.79 5.27v0c0 1.12-0.187 2.593-0.56 4.42v0zM389.97-27.49v0c2.913 0 5.093 1.45 6.54 4.35v0h0.19c0.213-2.38 0.517-4.417 0.91-6.11v0l1.85-8.74h5.69l-8.06 37.99h-4.49l0.47-4.3h-0.17c-1.433 1.727-2.817 2.957-4.15 3.69-1.34 0.733-2.757 1.1-4.25 1.1v0c-2.327 0-4.15-0.827-5.47-2.48-1.32-1.653-1.98-3.993-1.98-7.02v0c0-3.333 0.583-6.45 1.75-9.35 1.16-2.9 2.717-5.147 4.67-6.74 1.953-1.593 4.12-2.39 6.5-2.39zM386.69-4.15v0c1.34 0 2.663-0.667 3.97-2 1.313-1.333 2.363-3.077 3.15-5.23 0.793-2.147 1.19-4.32 1.19-6.52v0c0-1.48-0.357-2.667-1.07-3.56-0.707-0.893-1.783-1.34-3.23-1.34v0c-1.387 0-2.68 0.627-3.88 1.88-1.207 1.253-2.167 2.97-2.88 5.15-0.72 2.18-1.08 4.4-1.08 6.66v0c0 3.307 1.277 4.96 3.83 4.96zM423.1-8.3v0c0 2.813-0.963 4.983-2.89 6.51-1.92 1.52-4.587 2.28-8 2.28v0c-3.093 0-5.713-0.547-7.86-1.64v0-4.95c2.487 1.46 5.023 2.19 7.61 2.19v0c1.58 0 2.86-0.323 3.84-0.97 0.973-0.653 1.46-1.54 1.46-2.66v0c0-0.833-0.28-1.547-0.84-2.14-0.56-0.593-1.713-1.387-3.46-2.38v0c-2.033-1.093-3.47-2.203-4.31-3.33-0.833-1.133-1.25-2.473-1.25-4.02v0c0-2.52 0.87-4.497 2.61-5.93 1.74-1.433 4.093-2.15 7.06-2.15v0c3.187 0 6 0.683 8.44 2.05v0l-1.85 4.3c-2.28-1.24-4.447-1.86-6.5-1.86v0c-1.187 0-2.15 0.27-2.89 0.81-0.74 0.533-1.11 1.28-1.11 2.24v0c0 0.733 0.267 1.387 0.8 1.96 0.54 0.567 1.64 1.297 3.3 2.19v0c1.707 0.96 2.92 1.783 3.64 2.47 0.713 0.687 1.257 1.43 1.63 2.23 0.38 0.807 0.57 1.74 0.57 2.8zM460.06-17.14v0c0-1.74-0.4-3.103-1.2-4.09-0.793-0.987-1.933-1.48-3.42-1.48v0c-1.513 0-2.867 0.583-4.06 1.75-1.2 1.167-2.127 2.747-2.78 4.74-0.66 1.993-0.99 4.12-0.99 6.38v0c0 1.807 0.403 3.19 1.21 4.15 0.8 0.96 1.99 1.44 3.57 1.44v0c1.467 0 2.787-0.553 3.96-1.66 1.173-1.107 2.083-2.657 2.73-4.65 0.653-1.993 0.98-4.187 0.98-6.58zM465.84-16.89v0c0 3.287-0.593 6.277-1.78 8.97-1.187 2.693-2.817 4.76-4.89 6.2-2.08 1.44-4.47 2.16-7.17 2.16v0c-3.127 0-5.607-0.933-7.44-2.8-1.84-1.86-2.76-4.393-2.76-7.6v0c0-3.24 0.58-6.21 1.74-8.91 1.167-2.7 2.8-4.803 4.9-6.31 2.1-1.507 4.523-2.26 7.27-2.26v0c3.173 0 5.657 0.943 7.45 2.83 1.787 1.887 2.68 4.46 2.68 7.72zM480.52 0h-6.72l-3.19-27h5.66l1.34 14.6c0.227 2.587 0.34 5.003 0.34 7.25v0h0.18c0.453-1.207 1.02-2.55 1.7-4.03 0.687-1.48 1.217-2.553 1.59-3.22v0l7.59-14.6h6.11zM508.72-23.1v0c-1.567 0-3.037 0.7-4.41 2.1-1.373 1.4-2.363 3.25-2.97 5.55v0h0.71c3.06 0 5.453-0.437 7.18-1.31 1.727-0.873 2.59-2.107 2.59-3.7v0c0-0.827-0.26-1.473-0.78-1.94-0.527-0.467-1.3-0.7-2.32-0.7zM505 0.49v0c-3.2 0-5.7-0.903-7.5-2.71-1.8-1.807-2.7-4.33-2.7-7.57v0c0-3.22 0.63-6.22 1.89-9 1.26-2.773 2.97-4.917 5.13-6.43 2.153-1.513 4.567-2.27 7.24-2.27v0c2.62 0 4.657 0.59 6.11 1.77 1.46 1.18 2.19 2.853 2.19 5.02v0c0 2.96-1.357 5.273-4.07 6.94-2.707 1.673-6.567 2.51-11.58 2.51v0h-1.05l-0.05 0.75v0.71c0 1.807 0.46 3.223 1.38 4.25 0.92 1.027 2.29 1.54 4.11 1.54v0c1.173 0 2.337-0.157 3.49-0.47 1.16-0.307 2.53-0.833 4.11-1.58v0 4.56c-1.567 0.713-3.003 1.223-4.31 1.53-1.313 0.3-2.777 0.45-4.39 0.45zM538.21-27.49v0c1.007 0 1.883 0.097 2.63 0.29v0l-1.24 5.35c-0.88-0.227-1.71-0.34-2.49-0.34v0c-2.053 0-3.883 0.92-5.49 2.76-1.613 1.84-2.737 4.247-3.37 7.22v0l-2.59 12.21h-5.76l5.76-27h4.49l-0.51 5h0.22c1.347-1.953 2.697-3.357 4.05-4.21 1.353-0.853 2.787-1.28 4.3-1.28zM550.29 12.01v0c-1.46 0-2.67-0.187-3.63-0.56v0-4.64c1.04 0.327 1.967 0.49 2.78 0.49v0c2.18 0 3.62-1.67 4.32-5.01v0l5.3-24.95h-4.37l0.51-2.58 4.74-1.86 0.51-2.25c0.713-3.22 1.807-5.51 3.28-6.87 1.473-1.36 3.563-2.04 6.27-2.04v0c1.867 0 3.583 0.35 5.15 1.05v0l-1.49 4.3c-1.207-0.453-2.313-0.68-3.32-0.68v0c-1.127 0-2.027 0.35-2.7 1.05-0.673 0.7-1.19 1.847-1.55 3.44v0l-0.44 2.1h5.59l-0.9 4.34h-5.59l-5.45 25.71c-0.647 3.08-1.713 5.343-3.2 6.79-1.48 1.447-3.417 2.17-5.81 2.17zM589.84-17.14v0c0-1.74-0.397-3.103-1.19-4.09-0.8-0.987-1.94-1.48-3.42-1.48v0c-1.513 0-2.87 0.583-4.07 1.75-1.193 1.167-2.12 2.747-2.78 4.74-0.66 1.993-0.99 4.12-0.99 6.38v0c0 1.807 0.403 3.19 1.21 4.15 0.807 0.96 2 1.44 3.58 1.44v0c1.467 0 2.783-0.553 3.95-1.66 1.173-1.107 2.087-2.657 2.74-4.65 0.647-1.993 0.97-4.187 0.97-6.58zM595.63-16.89v0c0 3.287-0.593 6.277-1.78 8.97-1.187 2.693-2.82 4.76-4.9 6.2-2.073 1.44-4.46 2.16-7.16 2.16v0c-3.127 0-5.61-0.933-7.45-2.8-1.84-1.86-2.76-4.393-2.76-7.6v0c0-3.24 0.583-6.21 1.75-8.91 1.16-2.7 2.79-4.803 4.89-6.31 2.1-1.507 4.527-2.26 7.28-2.26v0c3.173 0 5.653 0.943 7.44 2.83 1.793 1.887 2.69 4.46 2.69 7.72zM618.51-17.14v0c0-1.74-0.4-3.103-1.2-4.09-0.8-0.987-1.94-1.48-3.42-1.48v0c-1.513 0-2.867 0.583-4.06 1.75-1.2 1.167-2.13 2.747-2.79 4.74-0.66 1.993-0.99 4.12-0.99 6.38v0c0 1.807 0.403 3.19 1.21 4.15 0.807 0.96 2 1.44 3.58 1.44v0c1.467 0 2.783-0.553 3.95-1.66 1.173-1.107 2.087-2.657 2.74-4.65 0.653-1.993 0.98-4.187 0.98-6.58zM624.29-16.89v0c0 3.287-0.593 6.277-1.78 8.97-1.187 2.693-2.82 4.76-4.9 6.2-2.073 1.44-4.46 2.16-7.16 2.16v0c-3.127 0-5.61-0.933-7.45-2.8-1.84-1.86-2.76-4.393-2.76-7.6v0c0-3.24 0.583-6.21 1.75-8.91 1.167-2.7 2.797-4.803 4.89-6.31 2.1-1.507 4.527-2.26 7.28-2.26v0c3.173 0 5.657 0.943 7.45 2.83 1.787 1.887 2.68 4.46 2.68 7.72zM641.82-27.49v0c2.913 0 5.093 1.45 6.54 4.35v0h0.2c0.213-2.38 0.513-4.417 0.9-6.11v0l1.86-8.74h5.69l-8.06 37.99h-4.49l0.46-4.3h-0.17c-1.433 1.727-2.817 2.957-4.15 3.69-1.333 0.733-2.75 1.1-4.25 1.1v0c-2.327 0-4.15-0.827-5.47-2.48-1.313-1.653-1.97-3.993-1.97-7.02v0c0-3.333 0.58-6.45 1.74-9.35 1.167-2.9 2.727-5.147 4.68-6.74 1.953-1.593 4.117-2.39 6.49-2.39zM638.55-4.15v0c1.333 0 2.657-0.667 3.97-2 1.307-1.333 2.357-3.077 3.15-5.23 0.787-2.147 1.18-4.32 1.18-6.52v0c0-1.48-0.353-2.667-1.06-3.56-0.707-0.893-1.787-1.34-3.24-1.34v0c-1.38 0-2.673 0.627-3.88 1.88-1.2 1.253-2.16 2.97-2.88 5.15-0.713 2.18-1.07 4.4-1.07 6.66v0c0 3.307 1.277 4.96 3.83 4.96z" fill="#556080" fill-rule="nonzero" stroke="none" stroke-width="1" stroke-linecap="butt" stroke-linejoin="miter" stroke-miterlimit="10" stroke-dasharray="" stroke-dashoffset="0" font-family="none" font-weight="none" font-size="none" text-anchor="none" style="mix-blend-mode: normal" data-fill-palette-color="secondary" id="text-1"></path></g></g><g transform="matrix(1,0,0,1,29.33176499999999,49.920500826380405)"><svg viewBox="0 0 316.416 53.3162879472392" height="53.3162879472392" width="316.416"><g><svg viewBox="0 0 435.2572251576042 73.34110647887323" height="53.3162879472392" width="316.416"><g><rect width="6.581071313718085" height="73.34110647887323" x="95.03221846766073" y="0" fill="#000e5b" opacity="1" stroke-width="0" stroke="transparent" fill-opacity="1" class="rect-yte-0" data-fill-palette-color="primary" rx="1%" id="yte-0" data-palette-color="#000e5b"></rect></g><g transform="matrix(1,0,0,1,118.84122515760416,0.18244056338027548)"><svg viewBox="0 0 316.416 72.97622535211268" height="72.97622535211268" width="316.416"><g id="textblocktransform"><svg viewBox="0 0 316.416 72.97622535211268" height="72.97622535211268" width="316.416" id="textblock"><g><svg viewBox="0 0 316.416 72.97622535211268" height="72.97622535211268" width="316.416"><g transform="matrix(1,0,0,1,0,0)"><svg width="316.416" viewBox="3.45 -39.2 227.18 52.400000000000006" height="72.97622535211268" data-palette-color="#000e5b"><path d="M3.45-34.9L25-34.9 25-29.25 10.45-29.25 10.45-20.3 21.6-20.3 21.6-14.75 10.45-14.75 10.45 0 3.45 0 3.45-34.9ZM42.25 0.45Q38.25 0.45 35.05-1.33 31.85-3.1 30.02-6.35 28.2-9.6 28.2-13.85L28.2-13.85Q28.2-18.1 30.07-21.35 31.95-24.6 35.2-26.38 38.45-28.15 42.45-28.15L42.45-28.15Q46.45-28.15 49.7-26.38 52.95-24.6 54.82-21.35 56.7-18.1 56.7-13.85L56.7-13.85Q56.7-9.6 54.77-6.35 52.85-3.1 49.57-1.33 46.3 0.45 42.25 0.45L42.25 0.45ZM42.25-5.65Q44.15-5.65 45.82-6.58 47.5-7.5 48.5-9.35 49.5-11.2 49.5-13.85L49.5-13.85Q49.5-17.8 47.42-19.93 45.35-22.05 42.35-22.05L42.35-22.05Q39.35-22.05 37.32-19.93 35.3-17.8 35.3-13.85L35.3-13.85Q35.3-9.9 37.27-7.78 39.25-5.65 42.25-5.65L42.25-5.65ZM74.15 0.45Q70.15 0.45 66.95-1.33 63.75-3.1 61.92-6.35 60.1-9.6 60.1-13.85L60.1-13.85Q60.1-18.1 61.97-21.35 63.85-24.6 67.09-26.38 70.34-28.15 74.34-28.15L74.34-28.15Q78.34-28.15 81.59-26.38 84.84-24.6 86.72-21.35 88.59-18.1 88.59-13.85L88.59-13.85Q88.59-9.6 86.67-6.35 84.75-3.1 81.47-1.33 78.2 0.45 74.15 0.45L74.15 0.45ZM74.15-5.65Q76.05-5.65 77.72-6.58 79.4-7.5 80.4-9.35 81.4-11.2 81.4-13.85L81.4-13.85Q81.4-17.8 79.32-19.93 77.25-22.05 74.25-22.05L74.25-22.05Q71.25-22.05 69.22-19.93 67.2-17.8 67.2-13.85L67.2-13.85Q67.2-9.9 69.17-7.78 71.15-5.65 74.15-5.65L74.15-5.65ZM91.94-13.95Q91.94-18.15 93.62-21.4 95.29-24.65 98.19-26.4 101.09-28.15 104.64-28.15L104.64-28.15Q107.34-28.15 109.79-26.98 112.24-25.8 113.69-23.85L113.69-23.85 113.69-37 120.79-37 120.79 0 113.69 0 113.69-4.1Q112.39-2.05 110.04-0.8 107.69 0.45 104.59 0.45L104.59 0.45Q101.09 0.45 98.19-1.35 95.29-3.15 93.62-6.43 91.94-9.7 91.94-13.95L91.94-13.95ZM113.74-13.85Q113.74-16.4 112.74-18.23 111.74-20.05 110.04-21.03 108.34-22 106.39-22L106.39-22Q104.44-22 102.79-21.05 101.14-20.1 100.12-18.28 99.09-16.45 99.09-13.95L99.09-13.95Q99.09-11.45 100.12-9.58 101.14-7.7 102.82-6.7 104.49-5.7 106.39-5.7L106.39-5.7Q108.34-5.7 110.04-6.68 111.74-7.65 112.74-9.47 113.74-11.3 113.74-13.85L113.74-13.85ZM138.24 0.45Q134.84 0.45 132.14-0.78 129.44-2 127.86-4.1 126.29-6.2 126.14-8.75L126.14-8.75 133.19-8.75Q133.39-7.15 134.76-6.1 136.14-5.05 138.19-5.05L138.19-5.05Q140.19-5.05 141.31-5.85 142.44-6.65 142.44-7.9L142.44-7.9Q142.44-9.25 141.06-9.93 139.69-10.6 136.69-11.4L136.69-11.4Q133.59-12.15 131.62-12.95 129.64-13.75 128.22-15.4 126.79-17.05 126.79-19.85L126.79-19.85Q126.79-22.15 128.12-24.05 129.44-25.95 131.91-27.05 134.39-28.15 137.74-28.15L137.74-28.15Q142.69-28.15 145.64-25.68 148.59-23.2 148.89-19L148.89-19 142.19-19Q142.04-20.65 140.81-21.63 139.59-22.6 137.54-22.6L137.54-22.6Q135.64-22.6 134.62-21.9 133.59-21.2 133.59-19.95L133.59-19.95Q133.59-18.55 134.99-17.82 136.39-17.1 139.34-16.35L139.34-16.35Q142.34-15.6 144.29-14.8 146.24-14 147.66-12.33 149.09-10.65 149.14-7.9L149.14-7.9Q149.14-5.5 147.81-3.6 146.49-1.7 144.01-0.63 141.54 0.45 138.24 0.45L138.24 0.45ZM170.49-28.1Q173.64-28.1 176.09-26.73 178.54-25.35 179.91-22.68 181.29-20 181.29-16.25L181.29-16.25 181.29 0 174.29 0 174.29-15.3Q174.29-18.6 172.64-20.38 170.99-22.15 168.14-22.15L168.14-22.15Q165.24-22.15 163.56-20.38 161.89-18.6 161.89-15.3L161.89-15.3 161.89 0 154.89 0 154.89-37 161.89-37 161.89-24.25Q163.24-26.05 165.49-27.08 167.74-28.1 170.49-28.1L170.49-28.1ZM191.49-31Q189.64-31 188.41-32.18 187.19-33.35 187.19-35.1L187.19-35.1Q187.19-36.85 188.41-38.02 189.64-39.2 191.49-39.2L191.49-39.2Q193.34-39.2 194.56-38.02 195.79-36.85 195.79-35.1L195.79-35.1Q195.79-33.35 194.56-32.18 193.34-31 191.49-31L191.49-31ZM187.94-27.7L194.94-27.7 194.94 0 187.94 0 187.94-27.7ZM208.83-23.7Q210.18-25.6 212.56-26.88 214.93-28.15 217.98-28.15L217.98-28.15Q221.53-28.15 224.41-26.4 227.28-24.65 228.96-21.43 230.63-18.2 230.63-13.95L230.63-13.95Q230.63-9.7 228.96-6.43 227.28-3.15 224.41-1.35 221.53 0.45 217.98 0.45L217.98 0.45Q214.93 0.45 212.61-0.8 210.28-2.05 208.83-3.95L208.83-3.95 208.83 13.2 201.83 13.2 201.83-27.7 208.83-27.7 208.83-23.7ZM223.48-13.95Q223.48-16.45 222.46-18.28 221.43-20.1 219.76-21.05 218.08-22 216.13-22L216.13-22Q214.23-22 212.56-21.03 210.88-20.05 209.86-18.2 208.83-16.35 208.83-13.85L208.83-13.85Q208.83-11.35 209.86-9.5 210.88-7.65 212.56-6.68 214.23-5.7 216.13-5.7L216.13-5.7Q218.08-5.7 219.76-6.7 221.43-7.7 222.46-9.55 223.48-11.4 223.48-13.95L223.48-13.95Z" opacity="1" transform="matrix(1,0,0,1,0,0)" fill="#000e5b" class="wordmark-text-0" data-fill-palette-color="primary" id="text-0"></path></svg></g></svg></g></svg></g></svg></g><g transform="matrix(1,0,0,1,0,0.18244056338027548)"><svg viewBox="0 0 77.80428309143538 72.97622535211268" height="72.97622535211268" width="77.80428309143538"><g><svg xmlns="http://www.w3.org/2000/svg" xmlns:xlink="http://www.w3.org/1999/xlink" version="1.1" x="0" y="0" viewBox="0.0006249959620103773 0 99.99937500403799 93.79402566808575" enable-background="new 0 0 100 100" xml:space="preserve" height="72.97622535211268" width="77.80428309143538" class="icon-icon-0" data-fill-palette-color="accent" id="icon-0"><path fill="#000e5b" d="M100 29.775C100 21.822 96.903 14.344 91.28 8.72 85.656 3.097 78.18 0 70.227 0 62.614 0 55.442 2.844 49.909 8.02 44.399 2.945 37.296 0.161 29.761 0.161 21.808 0.161 14.331 3.258 8.707 8.882-2.902 20.49-2.901 39.381 8.707 50.991L16.288 58.574A6.8 6.8 0 0 0 15.122 62.391C15.122 64.214 15.831 65.928 17.121 67.216A6.78 6.78 0 0 0 23.5 69.031 6.77 6.77 0 0 0 25.316 75.409 6.77 6.77 0 0 0 31.7 77.223 6.82 6.82 0 0 0 33.509 83.605 6.78 6.78 0 0 0 39.892 85.416 6.81 6.81 0 0 0 41.703 91.795 6.78 6.78 0 0 0 46.529 93.794 6.76 6.76 0 0 0 50.451 92.549 6.77 6.77 0 0 0 54.2 93.67 6.78 6.78 0 0 0 59.027 91.674 6.82 6.82 0 0 0 60.993 86.216C61.853 86.601 62.796 86.801 63.767 86.801 65.59 86.801 67.306 86.091 68.594 84.803A6.83 6.83 0 0 0 70.413 78.434 7 7 0 0 0 71.961 78.609C73.782 78.609 75.496 77.899 76.787 76.612A6.8 6.8 0 0 0 78.785 71.785C78.785 70.824 78.589 69.895 78.215 69.042A6.87 6.87 0 0 0 83.632 67.068 6.8 6.8 0 0 0 85.63 62.242C85.63 60.672 85.101 59.184 84.132 57.978L91.282 50.829C96.903 45.206 100 37.729 100 29.775M25.014 65.461A4.3 4.3 0 0 1 23.936 66.227 4.3 4.3 0 0 1 21.944 66.733 4.3 4.3 0 0 1 18.876 65.462 4.3 4.3 0 0 1 17.604 62.392C17.604 61.684 17.791 61.009 18.11 60.398 18.313 60.009 18.556 59.642 18.876 59.324L19.711 58.488 26.388 51.81C27.207 50.991 28.297 50.539 29.456 50.539S31.706 50.991 32.526 51.81A4.347 4.347 0 0 1 32.528 57.949L25.849 64.629zM33.208 73.655A4.4 4.4 0 0 1 32.128 74.423 4.3 4.3 0 0 1 30.137 74.926C28.977 74.926 27.887 74.475 27.069 73.655 25.699 72.285 25.458 70.229 26.303 68.594 26.502 68.207 26.744 67.837 27.069 67.514L27.902 66.681 37.269 57.315A4.3 4.3 0 0 1 40.339 56.042C41.498 56.042 42.588 56.494 43.407 57.315A4.3 4.3 0 0 1 44.678 60.383C44.678 61.542 44.226 62.633 43.407 63.453L34.04 72.821zM41.402 81.847A4.3 4.3 0 0 1 40.319 82.617 4.3 4.3 0 0 1 38.332 83.121C37.172 83.121 36.082 82.67 35.262 81.85 33.894 80.483 33.653 78.427 34.496 76.791 34.695 76.404 34.938 76.033 35.262 75.71L36.095 74.877 42.232 68.742 44.312 66.662 44.68 66.295A4.3 4.3 0 0 1 47.748 65.024C48.908 65.024 49.998 65.475 50.817 66.294A4.35 4.35 0 0 1 50.818 72.434L50.449 72.8 48.369 74.88 42.232 81.019zM50.423 89.212L49.594 90.041A4.4 4.4 0 0 1 48.511 90.812 4.3 4.3 0 0 1 46.526 91.312 4.3 4.3 0 0 1 43.456 90.041C42.088 88.673 41.845 86.62 42.688 84.986 42.887 84.597 43.13 84.225 43.456 83.902L44.286 83.072 50.424 76.935 50.556 76.803A4.27 4.27 0 0 1 53.221 75.571C53.357 75.557 53.489 75.532 53.624 75.532 54.784 75.532 55.875 75.983 56.696 76.802 57.644 77.751 58.04 79.031 57.925 80.275A4.3 4.3 0 0 1 56.696 82.942L56.562 83.075zM57.268 89.919A4.31 4.31 0 0 1 52.376 90.774L58.122 85.028C58.864 86.631 58.589 88.596 57.268 89.919M81.874 65.312A4.32 4.32 0 0 1 78.804 66.583 4.3 4.3 0 0 1 75.736 65.312L59.235 48.812A1.24 1.24 0 0 0 57.48 48.81L57.181 49.107A1.25 1.25 0 0 0 57.179 50.865L75.03 68.714A4.32 4.32 0 0 1 76.301 71.784C76.301 72.944 75.849 74.035 75.03 74.854A4.32 4.32 0 0 1 71.96 76.125 4.3 4.3 0 0 1 68.892 74.854L51.04 56.684C50.806 56.451 50.491 56 50.161 56H50.159C49.83 56 49.513 56.453 49.281 56.688L48.984 57.147C48.502 57.632 48.503 58.497 48.986 58.98L66.835 76.87C68.526 78.56 68.526 81.336 66.835 83.029A4.33 4.33 0 0 1 63.765 84.309 4.3 4.3 0 0 1 60.699 83.042L59.984 82.328C60.924 79.889 60.417 77.012 58.451 75.045A6.78 6.78 0 0 0 53.624 73.046C53.578 73.046 53.531 73.052 53.485 73.054 55.183 70.413 54.881 66.847 52.572 64.536A6.78 6.78 0 0 0 47.748 62.538C47.423 62.538 47.101 62.568 46.783 62.613 47.029 61.904 47.163 61.156 47.163 60.383A6.78 6.78 0 0 0 45.164 55.558 6.78 6.78 0 0 0 40.339 53.559 6.76 6.76 0 0 0 36.277 54.908 6.8 6.8 0 0 0 34.283 50.052 6.8 6.8 0 0 0 29.457 48.054C27.635 48.054 25.92 48.764 24.632 50.052L17.955 56.729 10.463 49.234C-0.179 38.593-0.179 21.278 10.461 10.638 15.617 5.483 22.47 2.644 29.759 2.644A27.1 27.1 0 0 1 48.129 9.764L25.833 32.063C23.172 34.724 23.163 39.045 25.813 41.694L26.995 42.875A6.74 6.74 0 0 0 31.796 44.849C33.619 44.849 35.333 44.139 36.62 42.851L51.087 28.386 81.874 59.174A4.3 4.3 0 0 1 83.145 62.242 4.3 4.3 0 0 1 81.874 65.312M82.521 56.076L52.064 25.651A1.2 1.2 0 0 0 51.575 25.363 1.2 1.2 0 0 0 51.186 25.287C50.869 25.287 50.551 25.409 50.308 25.65L49.33 26.629 34.864 41.095A4.3 4.3 0 0 1 31.796 42.366C30.619 42.366 29.567 41.935 28.751 41.119L27.57 39.938C25.888 38.257 25.898 35.512 27.591 33.819L48.695 12.71 50.929 10.476C51.009 10.395 51.094 10.32 51.175 10.241 56.302 5.238 63.05 2.482 70.227 2.482 77.516 2.482 84.371 5.321 89.524 10.476 94.679 15.631 97.517 22.484 97.517 29.774S94.679 43.917 89.524 49.072z" data-fill-palette-color="accent"></path></svg></g></svg></g></svg></g></svg></g></svg></g><defs></defs></svg><rect width="375.07953" height="153.1572896" fill="none" stroke="none" visibility="hidden"></rect></g></svg></g></svg>