<svg xmlns="http://www.w3.org/2000/svg" version="1.1" xmlns:xlink="http://www.w3.org/1999/xlink" xmlns:svgjs="http://svgjs.dev/svgjs" width="1500" height="356" viewBox="0 0 1500 356"><g transform="matrix(1,0,0,1,-0.908979666188884,-0.4740601825823205)"><svg viewBox="0 0 396 94" data-background-color="#ffffff" preserveAspectRatio="xMidYMid meet" height="356" width="1500" xmlns="http://www.w3.org/2000/svg" xmlns:xlink="http://www.w3.org/1999/xlink"><g id="tight-bounds" transform="matrix(1,0,0,1,0.23997063187385947,0.12529829202213705)"><svg viewBox="0 0 395.52 93.7494559336717" height="93.7494559336717" width="395.52"><g><svg viewBox="0 0 395.52 93.7494559336717" height="93.7494559336717" width="395.52"><g><svg viewBox="0 0 538.7064857818293 127.68871346578365" height="93.7494559336717" width="395.52"><g transform="matrix(1,0,0,1,143.18648578182936,0)"><svg viewBox="0 0 395.52 127.68871346578365" height="127.68871346578365" width="395.52"><g id="textblocktransform"><svg viewBox="0 0 395.52 127.68871346578365" height="127.68871346578365" width="395.52" id="textblock"><g><svg viewBox="0 0 395.52 127.68871346578365" height="127.68871346578365" width="395.52"><path d="M394.594 27.387C392.735 14.133 387.435 10.448 387.435 10.448 371.165-3.204 350.86-0.261 332.619 1.7 300.414 1.78 268.339 4.696 236.208 6.26 168.767 6.498 100.749 2.575 33.643 12.251 27.339 15.22-6.54 12.834 1.121 29.083 3.129 35.843 10.456 43.345 10.232 49.548 11.236 50.634 12.631 48.143 13.226 49.707 15.309 53.921 18.711 51.933 21.501 54.425 17.614 61.079 20.403 66.619 23.062 72.424 18.377 73.935 12.371 73.219 9.675 78.229 9.396 81.861 7.89 81.172 6.235 81.013 5.026 80.907 2.59 81.304 2.999 82.444 4.394 86.341-1.594 88.594 2.162 92.411-0.422 96.546 3.948 100.125 3.353 104.605 3.278 105.506 3.687 106.275 4.338 106.487 7.22 107.627 3.018 109.853 3.464 112.266 33.029 128.754 65.104 117.355 95.394 124.937 103.259 119.635 97.346 126.819 100.489 125.705 102.943 124.406 104.728 129.788 107.499 126.739 107.927 125.864 107.276 123.797 108.8 124.194 109.6 124.406 110.307 124.353 110.418 123.134 110.586 121.305 109.117 122.445 108.726 121.49 112.947 116.666 111.906 128.144 115.866 127.667 115.68 126.262 114.528 124.247 116.889 124.512 119.232 122.498 119.306 120.828 121.389 125.361 121.463 126.341 121.835 127.031 122.43 127.508 128.938 122.577 135.409 129.257 142.233 127.031 146.417 124.592 150.433 128.356 154.672 127.428 156.16 126.686 157.666 125.361 159.098 127.587 176.632 128.065 195.319 126.076 211.943 127.667 256.364 124.698 303.836 128.886 350.674 124.963 361.719 123.452 373.192 121.305 383.958 119.582 383.958 119.582 392.679 114.863 392.679 93.657S394.538 75.101 394.817 58.216C395.096 41.33 396.398 40.641 394.538 27.387Z" opacity="1" fill="#556970" data-fill-palette-color="tertiary"></path><g transform="matrix(1,0,0,1,55.76832,26.230666666666668)"><svg width="283.98335999999995" viewBox="4 -39 188.73 50" height="75.22738013245032" data-palette-color="#ffffff"><path d="M6.35-35L6.35-31 22-31 22-35 6.35-35ZM6.35-21L6.35-17 21.5-17 21.5-21 6.35-21ZM8.25-35L4-35 4 0 8.25 0 8.25-35ZM25.25-11.5L25.25-11.5Q25.25-8.05 26.82-5.33 28.4-2.6 31.1-1.05 33.8 0.5 37.15 0.5L37.15 0.5Q40.55 0.5 43.22-1.05 45.9-2.6 47.47-5.33 49.05-8.05 49.05-11.5L49.05-11.5Q49.05-15 47.47-17.7 45.9-20.4 43.22-21.95 40.55-23.5 37.15-23.5L37.15-23.5Q33.8-23.5 31.1-21.95 28.4-20.4 26.82-17.7 25.25-15 25.25-11.5ZM29.3-11.5L29.3-11.5Q29.3-13.9 30.32-15.78 31.35-17.65 33.12-18.7 34.9-19.75 37.15-19.75L37.15-19.75Q39.4-19.75 41.17-18.7 42.95-17.65 43.97-15.78 45-13.9 45-11.5L45-11.5Q45-9.1 43.97-7.25 42.95-5.4 41.17-4.33 39.4-3.25 37.15-3.25L37.15-3.25Q34.9-3.25 33.12-4.33 31.35-5.4 30.32-7.25 29.3-9.1 29.3-11.5ZM52.55-11.5L52.55-11.5Q52.55-8.05 54.12-5.33 55.7-2.6 58.4-1.05 61.09 0.5 64.45 0.5L64.45 0.5Q67.84 0.5 70.52-1.05 73.2-2.6 74.77-5.33 76.34-8.05 76.34-11.5L76.34-11.5Q76.34-15 74.77-17.7 73.2-20.4 70.52-21.95 67.84-23.5 64.45-23.5L64.45-23.5Q61.09-23.5 58.4-21.95 55.7-20.4 54.12-17.7 52.55-15 52.55-11.5ZM56.59-11.5L56.59-11.5Q56.59-13.9 57.62-15.78 58.65-17.65 60.42-18.7 62.2-19.75 64.45-19.75L64.45-19.75Q66.7-19.75 68.47-18.7 70.25-17.65 71.27-15.78 72.3-13.9 72.3-11.5L72.3-11.5Q72.3-9.1 71.27-7.25 70.25-5.4 68.47-4.33 66.7-3.25 64.45-3.25L64.45-3.25Q62.2-3.25 60.42-4.33 58.65-5.4 57.62-7.25 56.59-9.1 56.59-11.5ZM103.09-39L99.09-39 99.09 0 103.09 0 103.09-39ZM79.84-11.5L79.84-11.5Q79.84-7.8 81.39-5.1 82.94-2.4 85.54-0.95 88.14 0.5 91.24 0.5L91.24 0.5Q94.14 0.5 96.29-0.95 98.44-2.4 99.67-5.1 100.89-7.8 100.89-11.5L100.89-11.5Q100.89-15.25 99.67-17.93 98.44-20.6 96.29-22.05 94.14-23.5 91.24-23.5L91.24-23.5Q88.14-23.5 85.54-22.05 82.94-20.6 81.39-17.93 79.84-15.25 79.84-11.5ZM83.89-11.5L83.89-11.5Q83.89-14.15 84.97-16 86.04-17.85 87.84-18.8 89.64-19.75 91.74-19.75L91.74-19.75Q93.49-19.75 95.19-18.8 96.89-17.85 97.99-16 99.09-14.15 99.09-11.5L99.09-11.5Q99.09-8.85 97.99-7 96.89-5.15 95.19-4.2 93.49-3.25 91.74-3.25L91.74-3.25Q89.64-3.25 87.84-4.2 86.04-5.15 84.97-7 83.89-8.85 83.89-11.5ZM111.29-7.05L111.29-7.05 108.14-5.1Q108.79-3.75 110.06-2.45 111.34-1.15 113.19-0.33 115.04 0.5 117.34 0.5L117.34 0.5Q120.89 0.5 123.06-1.5 125.24-3.5 125.24-6.5L125.24-6.5Q125.24-8.55 124.27-9.85 123.29-11.15 121.64-12.08 119.99-13 117.99-13.8L117.99-13.8Q116.79-14.3 115.69-14.85 114.59-15.4 113.89-16.1 113.19-16.8 113.19-17.7L113.19-17.7Q113.19-18.85 114.09-19.4 114.99-19.95 116.24-19.95L116.24-19.95Q118.04-19.95 119.47-19.1 120.89-18.25 121.84-16.95L121.84-16.95 125.04-19Q124.34-20.3 123.09-21.3 121.84-22.3 120.22-22.9 118.59-23.5 116.74-23.5L116.74-23.5Q114.89-23.5 113.17-22.85 111.44-22.2 110.37-20.85 109.29-19.5 109.29-17.45L109.29-17.45Q109.29-15.45 110.31-14.13 111.34-12.8 112.87-11.98 114.39-11.15 115.89-10.55L115.89-10.55Q117.24-10.05 118.44-9.47 119.64-8.9 120.42-8.08 121.19-7.25 121.19-6.05L121.19-6.05Q121.19-4.7 120.22-3.93 119.24-3.15 117.54-3.15L117.54-3.15Q116.14-3.15 114.97-3.68 113.79-4.2 112.89-5.1 111.99-6 111.29-7.05ZM134.49 0L134.49-39 130.49-39 130.49 0 134.49 0ZM145.24-14L145.24-14 145.24 0 149.24 0 149.24-14.5Q149.24-17.5 148.26-19.5 147.29-21.5 145.51-22.5 143.74-23.5 141.34-23.5L141.34-23.5Q138.94-23.5 137.11-22.25 135.29-21 134.24-18.88 133.19-16.75 133.19-14L133.19-14 134.49-14Q134.49-15.65 135.21-16.95 135.94-18.25 137.26-19 138.59-19.75 140.34-19.75L140.34-19.75Q142.79-19.75 144.01-18.3 145.24-16.85 145.24-14ZM156.74-32.5L156.74-32.5Q156.74-31.4 157.56-30.58 158.39-29.75 159.49-29.75L159.49-29.75Q160.64-29.75 161.44-30.58 162.24-31.4 162.24-32.5L162.24-32.5Q162.24-33.65 161.44-34.45 160.64-35.25 159.49-35.25L159.49-35.25Q158.39-35.25 157.56-34.45 156.74-33.65 156.74-32.5ZM161.49-23L157.49-23 157.49 0 161.49 0 161.49-23ZM169.48 11L173.48 11 173.48-23 169.48-23 169.48 11ZM192.73-11.5L192.73-11.5Q192.73-15.25 191.18-17.93 189.63-20.6 187.06-22.05 184.48-23.5 181.33-23.5L181.33-23.5Q178.48-23.5 176.31-22.05 174.13-20.6 172.91-17.93 171.68-15.25 171.68-11.5L171.68-11.5Q171.68-7.8 172.91-5.1 174.13-2.4 176.31-0.95 178.48 0.5 181.33 0.5L181.33 0.5Q184.48 0.5 187.06-0.95 189.63-2.4 191.18-5.1 192.73-7.8 192.73-11.5ZM188.68-11.5L188.68-11.5Q188.68-8.85 187.61-7 186.53-5.15 184.76-4.2 182.98-3.25 180.83-3.25L180.83-3.25Q179.08-3.25 177.38-4.2 175.68-5.15 174.58-7 173.48-8.85 173.48-11.5L173.48-11.5Q173.48-14.15 174.58-16 175.68-17.85 177.38-18.8 179.08-19.75 180.83-19.75L180.83-19.75Q182.98-19.75 184.76-18.8 186.53-17.85 187.61-16 188.68-14.15 188.68-11.5Z" opacity="1" transform="matrix(1,0,0,1,0,0)" fill="#ffffff" class="wordmark-text-0" data-fill-palette-color="quaternary" id="text-0"></path></svg></g></svg></g></svg></g></svg></g><g transform="matrix(1,0,0,1,0,5.022422729654153)"><svg viewBox="0 0 125.42710678968102 117.64386800647534" height="117.64386800647534" width="125.42710678968102"><g><svg xmlns="http://www.w3.org/2000/svg" xmlns:xlink="http://www.w3.org/1999/xlink" version="1.1" x="0" y="0" viewBox="0.0006249959620103773 0 99.99937500403799 93.79402566808575" enable-background="new 0 0 100 100" xml:space="preserve" height="117.64386800647534" width="125.42710678968102" class="icon-icon-0" data-fill-palette-color="accent" id="icon-0"><path fill="#aba944" d="M100 29.775C100 21.822 96.903 14.344 91.28 8.72 85.656 3.097 78.18 0 70.227 0 62.614 0 55.442 2.844 49.909 8.02 44.399 2.945 37.296 0.161 29.761 0.161 21.808 0.161 14.331 3.258 8.707 8.882-2.902 20.49-2.901 39.381 8.707 50.991L16.288 58.574A6.8 6.8 0 0 0 15.122 62.391C15.122 64.214 15.831 65.928 17.121 67.216A6.78 6.78 0 0 0 23.5 69.031 6.77 6.77 0 0 0 25.316 75.409 6.77 6.77 0 0 0 31.7 77.223 6.82 6.82 0 0 0 33.509 83.605 6.78 6.78 0 0 0 39.892 85.416 6.81 6.81 0 0 0 41.703 91.795 6.78 6.78 0 0 0 46.529 93.794 6.76 6.76 0 0 0 50.451 92.549 6.77 6.77 0 0 0 54.2 93.67 6.78 6.78 0 0 0 59.027 91.674 6.82 6.82 0 0 0 60.993 86.216C61.853 86.601 62.796 86.801 63.767 86.801 65.59 86.801 67.306 86.091 68.594 84.803A6.83 6.83 0 0 0 70.413 78.434 7 7 0 0 0 71.961 78.609C73.782 78.609 75.496 77.899 76.787 76.612A6.8 6.8 0 0 0 78.785 71.785C78.785 70.824 78.589 69.895 78.215 69.042A6.87 6.87 0 0 0 83.632 67.068 6.8 6.8 0 0 0 85.63 62.242C85.63 60.672 85.101 59.184 84.132 57.978L91.282 50.829C96.903 45.206 100 37.729 100 29.775M25.014 65.461A4.3 4.3 0 0 1 23.936 66.227 4.3 4.3 0 0 1 21.944 66.733 4.3 4.3 0 0 1 18.876 65.462 4.3 4.3 0 0 1 17.604 62.392C17.604 61.684 17.791 61.009 18.11 60.398 18.313 60.009 18.556 59.642 18.876 59.324L19.711 58.488 26.388 51.81C27.207 50.991 28.297 50.539 29.456 50.539S31.706 50.991 32.526 51.81A4.347 4.347 0 0 1 32.528 57.949L25.849 64.629zM33.208 73.655A4.4 4.4 0 0 1 32.128 74.423 4.3 4.3 0 0 1 30.137 74.926C28.977 74.926 27.887 74.475 27.069 73.655 25.699 72.285 25.458 70.229 26.303 68.594 26.502 68.207 26.744 67.837 27.069 67.514L27.902 66.681 37.269 57.315A4.3 4.3 0 0 1 40.339 56.042C41.498 56.042 42.588 56.494 43.407 57.315A4.3 4.3 0 0 1 44.678 60.383C44.678 61.542 44.226 62.633 43.407 63.453L34.04 72.821zM41.402 81.847A4.3 4.3 0 0 1 40.319 82.617 4.3 4.3 0 0 1 38.332 83.121C37.172 83.121 36.082 82.67 35.262 81.85 33.894 80.483 33.653 78.427 34.496 76.791 34.695 76.404 34.938 76.033 35.262 75.71L36.095 74.877 42.232 68.742 44.312 66.662 44.68 66.295A4.3 4.3 0 0 1 47.748 65.024C48.908 65.024 49.998 65.475 50.817 66.294A4.35 4.35 0 0 1 50.818 72.434L50.449 72.8 48.369 74.88 42.232 81.019zM50.423 89.212L49.594 90.041A4.4 4.4 0 0 1 48.511 90.812 4.3 4.3 0 0 1 46.526 91.312 4.3 4.3 0 0 1 43.456 90.041C42.088 88.673 41.845 86.62 42.688 84.986 42.887 84.597 43.13 84.225 43.456 83.902L44.286 83.072 50.424 76.935 50.556 76.803A4.27 4.27 0 0 1 53.221 75.571C53.357 75.557 53.489 75.532 53.624 75.532 54.784 75.532 55.875 75.983 56.696 76.802 57.644 77.751 58.04 79.031 57.925 80.275A4.3 4.3 0 0 1 56.696 82.942L56.562 83.075zM57.268 89.919A4.31 4.31 0 0 1 52.376 90.774L58.122 85.028C58.864 86.631 58.589 88.596 57.268 89.919M81.874 65.312A4.32 4.32 0 0 1 78.804 66.583 4.3 4.3 0 0 1 75.736 65.312L59.235 48.812A1.24 1.24 0 0 0 57.48 48.81L57.181 49.107A1.25 1.25 0 0 0 57.179 50.865L75.03 68.714A4.32 4.32 0 0 1 76.301 71.784C76.301 72.944 75.849 74.035 75.03 74.854A4.32 4.32 0 0 1 71.96 76.125 4.3 4.3 0 0 1 68.892 74.854L51.04 56.684C50.806 56.451 50.491 56 50.161 56H50.159C49.83 56 49.513 56.453 49.281 56.688L48.984 57.147C48.502 57.632 48.503 58.497 48.986 58.98L66.835 76.87C68.526 78.56 68.526 81.336 66.835 83.029A4.33 4.33 0 0 1 63.765 84.309 4.3 4.3 0 0 1 60.699 83.042L59.984 82.328C60.924 79.889 60.417 77.012 58.451 75.045A6.78 6.78 0 0 0 53.624 73.046C53.578 73.046 53.531 73.052 53.485 73.054 55.183 70.413 54.881 66.847 52.572 64.536A6.78 6.78 0 0 0 47.748 62.538C47.423 62.538 47.101 62.568 46.783 62.613 47.029 61.904 47.163 61.156 47.163 60.383A6.78 6.78 0 0 0 45.164 55.558 6.78 6.78 0 0 0 40.339 53.559 6.76 6.76 0 0 0 36.277 54.908 6.8 6.8 0 0 0 34.283 50.052 6.8 6.8 0 0 0 29.457 48.054C27.635 48.054 25.92 48.764 24.632 50.052L17.955 56.729 10.463 49.234C-0.179 38.593-0.179 21.278 10.461 10.638 15.617 5.483 22.47 2.644 29.759 2.644A27.1 27.1 0 0 1 48.129 9.764L25.833 32.063C23.172 34.724 23.163 39.045 25.813 41.694L26.995 42.875A6.74 6.74 0 0 0 31.796 44.849C33.619 44.849 35.333 44.139 36.62 42.851L51.087 28.386 81.874 59.174A4.3 4.3 0 0 1 83.145 62.242 4.3 4.3 0 0 1 81.874 65.312M82.521 56.076L52.064 25.651A1.2 1.2 0 0 0 51.575 25.363 1.2 1.2 0 0 0 51.186 25.287C50.869 25.287 50.551 25.409 50.308 25.65L49.33 26.629 34.864 41.095A4.3 4.3 0 0 1 31.796 42.366C30.619 42.366 29.567 41.935 28.751 41.119L27.57 39.938C25.888 38.257 25.898 35.512 27.591 33.819L48.695 12.71 50.929 10.476C51.009 10.395 51.094 10.32 51.175 10.241 56.302 5.238 63.05 2.482 70.227 2.482 77.516 2.482 84.371 5.321 89.524 10.476 94.679 15.631 97.517 22.484 97.517 29.774S94.679 43.917 89.524 49.072z" data-fill-palette-color="accent"></path></svg></g></svg></g></svg></g></svg></g><defs></defs></svg><rect width="395.52" height="93.7494559336717" fill="none" stroke="none" visibility="hidden"></rect></g></svg></g></svg>