<?xml version="1.0" standalone="no"?>
<!DOCTYPE svg PUBLIC "-//W3C//DTD SVG 20010904//EN"
 "http://www.w3.org/TR/2001/REC-SVG-20010904/DTD/svg10.dtd">
<svg version="1.0" xmlns="http://www.w3.org/2000/svg"
 width="128.000000pt" height="128.000000pt" viewBox="0 0 128.000000 128.000000"
 preserveAspectRatio="xMidYMid meet">
<metadata>
Created by potrace 1.14, written by Peter Selinger 2001-2017
</metadata>
<g transform="translate(0.000000,128.000000) scale(0.100000,-0.100000)"
fill="#000000" stroke="none">
<path d="M130 635 l0 -515 515 0 515 0 0 515 0 515 -515 0 -515 0 0 -515z
m1000 0 l0 -485 -485 0 -485 0 0 485 0 485 485 0 485 0 0 -485z"/>
<path d="M526 746 c-32 -31 -34 -83 -6 -119 11 -14 20 -28 20 -32 0 -19 86
-95 107 -95 23 0 103 70 103 91 0 6 9 22 20 36 28 36 26 88 -6 119 -21 22 -31
25 -67 20 -23 -3 -46 -6 -52 -6 -5 0 -29 3 -52 6 -36 5 -46 2 -67 -20z m100 3
c3 -6 -8 -26 -26 -44 -20 -21 -30 -40 -27 -49 9 -22 22 -20 50 8 l24 24 47
-47 c25 -26 46 -50 46 -54 0 -13 -15 -7 -43 18 -15 14 -27 22 -27 17 0 -5 11
-18 25 -30 25 -22 33 -42 17 -42 -5 0 -21 13 -37 30 -15 16 -31 28 -34 28 -3
-1 -18 4 -33 12 -22 10 -30 11 -43 0 -13 -11 -19 -9 -35 10 -26 30 -26 84 0
110 22 22 84 28 96 9z m132 -9 c29 -27 29 -83 2 -110 l-21 -21 -45 47 -45 46
-28 -26 c-31 -29 -41 -32 -41 -12 0 8 21 33 46 55 54 47 97 54 132 21z m-164
-134 c-6 -16 -34 -30 -42 -21 -8 7 19 35 34 35 7 0 11 -6 8 -14z m14 -33 c-13
-14 -24 -19 -26 -13 -5 15 28 51 40 44 5 -3 -1 -17 -14 -31z m42 -1 c0 -14
-39 -46 -47 -39 -3 4 2 16 12 27 19 21 35 26 35 12z m44 -40 c-3 -4 -9 -1 -11
6 -4 10 -9 8 -20 -7 -19 -28 -48 -29 -33 -1 6 11 17 20 25 20 9 0 12 6 8 17
-5 12 0 10 16 -6 13 -13 19 -26 15 -29z"/>
</g>
</svg>
