<?xml version="1.0" standalone="no"?>
<!DOCTYPE svg PUBLIC "-//W3C//DTD SVG 20010904//EN"
 "http://www.w3.org/TR/2001/REC-SVG-20010904/DTD/svg10.dtd">
<svg version="1.0" xmlns="http://www.w3.org/2000/svg"
 width="128.000000pt" height="128.000000pt" viewBox="0 0 128.000000 128.000000"
 preserveAspectRatio="xMidYMid meet">
<metadata>
Created by potrace 1.14, written by Peter Selinger 2001-2017
</metadata>
<g transform="translate(0.000000,128.000000) scale(0.100000,-0.100000)"
fill="#000000" stroke="none">
<path d="M391 1109 c-97 -18 -180 -80 -223 -168 -18 -37 -23 -63 -23 -131 0
-102 19 -144 100 -230 44 -46 52 -60 48 -82 -7 -37 19 -75 57 -83 17 -4 29 -9
26 -12 -13 -13 26 -64 53 -69 20 -4 30 -14 37 -37 7 -24 17 -34 41 -41 23 -7
33 -17 37 -37 5 -27 56 -65 69 -52 4 3 29 5 56 5 59 -2 87 19 83 59 -1 3 13 6
30 7 37 1 68 27 68 59 0 17 6 23 20 23 30 0 70 44 65 70 -3 16 3 24 25 31 37
13 58 61 39 91 -5 8 11 32 45 68 82 86 101 128 101 230 0 68 -5 94 -23 131
-52 105 -154 170 -264 170 -35 0 -73 -2 -84 -4 -22 -5 -86 -38 -115 -58 -12
-9 -24 -6 -55 14 -67 43 -141 59 -213 46z m166 -50 c76 -37 76 -36 -56 -169
-134 -134 -142 -152 -94 -202 45 -47 71 -39 162 52 45 44 84 80 88 80 13 0
323 -317 323 -329 0 -7 -4 -21 -10 -31 -18 -35 -54 -16 -145 74 -61 61 -91 86
-103 81 -12 -4 9 -30 87 -109 90 -90 103 -107 97 -129 -3 -14 -15 -27 -28 -30
-19 -5 -41 12 -127 98 -92 92 -121 113 -121 86 0 -4 45 -53 99 -108 67 -69 98
-107 96 -120 -2 -10 -4 -21 -4 -24 -2 -12 -33 -20 -52 -14 -13 5 -19 16 -19
37 0 33 -24 68 -47 68 -8 0 -13 12 -13 35 0 39 -28 75 -59 75 -13 0 -18 5 -14
18 2 10 -5 30 -17 45 -17 21 -30 27 -61 27 -28 0 -39 4 -39 15 0 23 -46 48
-75 41 -13 -3 -40 -22 -59 -41 -20 -19 -40 -35 -45 -35 -20 0 -105 97 -128
148 -45 95 -28 219 39 293 83 92 217 120 325 68z m424 -5 c126 -69 179 -228
116 -355 -14 -30 -48 -75 -75 -102 l-48 -48 -157 157 c-140 140 -159 155 -174
143 -9 -8 -49 -47 -88 -86 -74 -75 -100 -87 -129 -57 -34 33 -20 56 122 196
75 74 148 141 162 148 90 48 188 49 271 4z m-513 -466 c21 -21 13 -42 -39 -95
-52 -53 -75 -63 -97 -41 -22 22 -13 48 34 98 47 50 78 62 102 38z m114 -62
c16 -24 6 -43 -54 -103 -70 -70 -101 -80 -120 -38 -11 24 -7 30 57 95 54 55
74 69 90 64 11 -4 23 -12 27 -18z m68 -86 c26 -26 18 -43 -52 -112 -49 -48
-62 -56 -81 -49 -14 5 -23 18 -25 36 -3 24 6 38 58 87 33 32 65 58 70 58 6 0
19 -9 30 -20z m67 -120 c11 -23 9 -28 -30 -68 -54 -56 -72 -66 -97 -52 -34 18
-24 53 30 104 55 51 77 55 97 16z m9 -98 c-7 -20 -34 -37 -44 -27 -3 3 5 16
18 30 26 28 35 27 26 -3z"/>
</g>
</svg>
